<svg width="961" height="96" viewBox="0 0 961 96" fill="none" xmlns="http://www.w3.org/2000/svg">
<rect width="961" height="96" fill="#F1F1F6"/>
<path d="M319.5 24C319.5 21.7909 321.291 20 323.5 20H471.5C473.709 20 475.5 21.7909 475.5 24V72C475.5 74.2091 473.709 76 471.5 76H323.5C321.291 76 319.5 74.2091 319.5 72V24Z" fill="#353A40"/>
<g clip-path="url(#clip0_4743_77359)">
<path d="M343.5 35.6665C342.91 35.6665 342.351 35.7836 341.841 35.9949C341.331 36.2065 340.746 35.9644 340.535 35.4543C340.323 34.9441 340.565 34.359 341.075 34.1475C341.823 33.8372 342.643 33.6665 343.5 33.6665H345.5C346.052 33.6665 346.5 34.1142 346.5 34.6665C346.5 35.2188 346.052 35.6665 345.5 35.6665H343.5Z" fill="white"/>
<path d="M348.5 34.6665C348.5 34.1142 348.948 33.6665 349.5 33.6665H353.5C354.052 33.6665 354.5 34.1142 354.5 34.6665C354.5 35.2188 354.052 35.6665 353.5 35.6665H349.5C348.948 35.6665 348.5 35.2188 348.5 34.6665Z" fill="white"/>
<path d="M356.5 34.6665C356.5 34.1142 356.948 33.6665 357.5 33.6665H359.5C360.357 33.6665 361.176 33.8372 361.924 34.1475C362.435 34.359 362.677 34.9441 362.465 35.4543C362.254 35.9644 361.668 36.2065 361.158 35.9949C360.649 35.7836 360.089 35.6665 359.5 35.6665H357.5C356.948 35.6665 356.5 35.2188 356.5 34.6665Z" fill="white"/>
<path d="M338.954 37.0346C339.464 37.2461 339.706 37.8312 339.495 38.3414C339.284 38.8509 339.167 39.4104 339.167 39.9998V41.9998C339.167 42.5521 338.719 42.9998 338.167 42.9998C337.614 42.9998 337.167 42.5521 337.167 41.9998V39.9998C337.167 39.1429 337.337 38.3234 337.647 37.5752C337.859 37.0651 338.444 36.823 338.954 37.0346Z" fill="white"/>
<path d="M364.045 37.0346C364.556 36.823 365.141 37.0651 365.352 37.5752C365.662 38.3234 365.833 39.1429 365.833 39.9998V41.9998C365.833 42.5521 365.385 42.9998 364.833 42.9998C364.281 42.9998 363.833 42.5521 363.833 41.9998V39.9998C363.833 39.4104 363.716 38.8509 363.505 38.3414C363.293 37.8312 363.535 37.2461 364.045 37.0346Z" fill="white"/>
<path d="M338.167 44.9998C338.719 44.9998 339.167 45.4476 339.167 45.9998V49.9998C339.167 50.5521 338.719 50.9998 338.167 50.9998C337.614 50.9998 337.167 50.5521 337.167 49.9998V45.9998C337.167 45.4476 337.614 44.9998 338.167 44.9998Z" fill="white"/>
<path d="M364.833 44.9998C365.385 44.9998 365.833 45.4476 365.833 45.9998V49.9998C365.833 50.5521 365.385 50.9998 364.833 50.9998C364.281 50.9998 363.833 50.5521 363.833 49.9998V45.9998C363.833 45.4476 364.281 44.9998 364.833 44.9998Z" fill="white"/>
<path d="M338.167 52.9998C338.719 52.9998 339.167 53.4476 339.167 53.9998V55.9998C339.167 56.5892 339.284 57.1488 339.495 57.6583C339.706 58.1685 339.464 58.7535 338.954 58.9651C338.444 59.1767 337.859 58.9346 337.647 58.4244C337.337 57.6763 337.167 56.8567 337.167 55.9998V53.9998C337.167 53.4476 337.614 52.9998 338.167 52.9998Z" fill="white"/>
<path d="M364.833 52.9998C365.385 52.9998 365.833 53.4476 365.833 53.9998V55.9998C365.833 56.8567 365.662 57.6763 365.352 58.4244C365.141 58.9346 364.556 59.1767 364.045 58.9651C363.535 58.7535 363.293 58.1685 363.505 57.6583C363.716 57.1488 363.833 56.5892 363.833 55.9998V53.9998C363.833 53.4476 364.281 52.9998 364.833 52.9998Z" fill="white"/>
<path d="M340.535 60.5454C340.746 60.0353 341.331 59.7932 341.841 60.0047C342.351 60.216 342.91 60.3332 343.5 60.3332H345.5C346.052 60.3332 346.5 60.7809 346.5 61.3332C346.5 61.8855 346.052 62.3332 345.5 62.3332H343.5C342.643 62.3332 341.823 62.1624 341.075 61.8522C340.565 61.6406 340.323 61.0556 340.535 60.5454Z" fill="white"/>
<path d="M362.465 60.5454C362.677 61.0556 362.435 61.6406 361.924 61.8522C361.176 62.1624 360.357 62.3332 359.5 62.3332H357.5C356.948 62.3332 356.5 61.8855 356.5 61.3332C356.5 60.7809 356.948 60.3332 357.5 60.3332H359.5C360.089 60.3332 360.649 60.216 361.158 60.0047C361.668 59.7932 362.254 60.0353 362.465 60.5454Z" fill="white"/>
<path d="M348.5 61.3332C348.5 60.7809 348.948 60.3332 349.5 60.3332H353.5C354.052 60.3332 354.5 60.7809 354.5 61.3332C354.5 61.8855 354.052 62.3332 353.5 62.3332H349.5C348.948 62.3332 348.5 61.8855 348.5 61.3332Z" fill="white"/>
<path d="M362.874 38.1212C363.264 37.7306 363.264 37.0975 362.874 36.7069C362.483 36.3164 361.85 36.3164 361.459 36.7069L360.131 38.0352C359.741 38.4257 359.741 39.0589 360.131 39.4494C360.522 39.84 361.155 39.84 361.545 39.4494L362.874 38.1212Z" fill="white"/>
<path d="M358.889 42.106C359.279 41.7155 359.279 41.0823 358.889 40.6918C358.498 40.3013 357.865 40.3013 357.475 40.6918L354.818 43.3483C354.427 43.7389 354.427 44.372 354.818 44.7625C355.209 45.1531 355.842 45.1531 356.232 44.7625L358.889 42.106Z" fill="white"/>
<path d="M353.576 47.4191C353.966 47.0286 353.966 46.3954 353.576 46.0049C353.185 45.6144 352.552 45.6144 352.161 46.0049L351.5 46.6665L350.838 46.0049C350.448 45.6144 349.815 45.6144 349.424 46.0049C349.033 46.3954 349.033 47.0286 349.424 47.4191L350.086 48.0807L349.505 48.6614C349.114 49.052 349.114 49.6851 349.505 50.0757C349.895 50.4662 350.529 50.4662 350.919 50.0757L351.5 49.4949L352.081 50.0757C352.471 50.4662 353.104 50.4662 353.495 50.0757C353.885 49.6851 353.885 49.052 353.495 48.6614L352.914 48.0807L353.576 47.4191Z" fill="white"/>
<path d="M348.263 52.7322C348.653 52.3417 348.653 51.7085 348.263 51.318C347.872 50.9275 347.239 50.9275 346.848 51.318L344.192 53.9746C343.801 54.3651 343.801 54.9983 344.192 55.3888C344.582 55.7793 345.215 55.7793 345.606 55.3888L348.263 52.7322Z" fill="white"/>
<path d="M342.949 58.0453C343.34 57.6548 343.34 57.0216 342.949 56.6311C342.559 56.2406 341.926 56.2406 341.535 56.6311L340.207 57.9594C339.816 58.3499 339.816 58.9831 340.207 59.3736C340.597 59.7641 341.231 59.7641 341.621 59.3736L342.949 58.0453Z" fill="white"/>
<path d="M361.379 59.3736C361.769 59.7641 362.402 59.7641 362.793 59.3736C363.183 58.9831 363.183 58.3499 362.793 57.9594L361.464 56.6311C361.074 56.2406 360.441 56.2406 360.05 56.6311C359.66 57.0216 359.66 57.6548 360.05 58.0453L361.379 59.3736Z" fill="white"/>
<path d="M357.394 55.3888C357.784 55.7793 358.417 55.7793 358.808 55.3888C359.198 54.9983 359.198 54.3651 358.808 53.9746L356.151 51.318C355.761 50.9275 355.128 50.9275 354.737 51.318C354.347 51.7085 354.347 52.3417 354.737 52.7322L357.394 55.3888Z" fill="white"/>
<path d="M346.767 44.7625C347.158 45.1531 347.791 45.1531 348.182 44.7625C348.572 44.372 348.572 43.7389 348.182 43.3483L345.525 40.6918C345.135 40.3013 344.501 40.3013 344.111 40.6918C343.72 41.0823 343.72 41.7155 344.111 42.106L346.767 44.7625Z" fill="white"/>
<path d="M341.454 39.4494C341.845 39.84 342.478 39.84 342.869 39.4494C343.259 39.0589 343.259 38.4257 342.869 38.0352L341.54 36.7069C341.15 36.3164 340.517 36.3164 340.126 36.7069C339.736 37.0975 339.736 37.7306 340.126 38.1212L341.454 39.4494Z" fill="white"/>
<path d="M347.574 41.1852C347.972 41.0649 348.394 40.9998 348.833 40.9998H349.833C350.385 40.9998 350.833 40.5521 350.833 39.9998C350.833 39.4476 350.385 38.9998 349.833 38.9998H348.833C348.195 38.9998 347.578 39.0945 346.995 39.2711C346.466 39.4313 346.167 39.9896 346.327 40.5181C346.488 41.0467 347.046 41.3454 347.574 41.1852Z" fill="white"/>
<path d="M353.167 38.9998C352.614 38.9998 352.167 39.4476 352.167 39.9998C352.167 40.5521 352.614 40.9998 353.167 40.9998H354.167C354.606 40.9998 355.028 41.0649 355.425 41.1852C355.954 41.3454 356.512 41.0467 356.672 40.5181C356.832 39.9896 356.534 39.4313 356.005 39.2711C355.422 39.0945 354.804 38.9998 354.167 38.9998H353.167Z" fill="white"/>
<path d="M344.685 44.0744C344.845 43.5459 344.547 42.9876 344.018 42.8274C343.49 42.6673 342.931 42.9659 342.771 43.4945C342.594 44.0776 342.5 44.6952 342.5 45.3332V46.3332C342.5 46.8855 342.948 47.3332 343.5 47.3332C344.052 47.3332 344.5 46.8855 344.5 46.3332V45.3332C344.5 44.8939 344.565 44.4716 344.685 44.0744Z" fill="white"/>
<path d="M360.229 43.4945C360.068 42.9659 359.51 42.6673 358.982 42.8274C358.453 42.9876 358.154 43.5459 358.314 44.0744C358.435 44.4716 358.5 44.8939 358.5 45.3332V46.3332C358.5 46.8855 358.948 47.3332 359.5 47.3332C360.052 47.3332 360.5 46.8855 360.5 46.3332V45.3332C360.5 44.6952 360.405 44.0776 360.229 43.4945Z" fill="white"/>
<path d="M344.5 49.6665C344.5 49.1142 344.052 48.6665 343.5 48.6665C342.948 48.6665 342.5 49.1142 342.5 49.6665V50.6665C342.5 51.3044 342.594 51.9221 342.771 52.5052C342.931 53.0337 343.49 53.3324 344.018 53.1723C344.547 53.0121 344.845 52.4538 344.685 51.9253C344.565 51.5281 344.5 51.1058 344.5 50.6665V49.6665Z" fill="white"/>
<path d="M360.5 49.6665C360.5 49.1142 360.052 48.6665 359.5 48.6665C358.948 48.6665 358.5 49.1142 358.5 49.6665V50.6665C358.5 51.1058 358.435 51.5281 358.314 51.9253C358.154 52.4538 358.453 53.0121 358.982 53.1723C359.51 53.3324 360.068 53.0337 360.229 52.5052C360.405 51.9221 360.5 51.3044 360.5 50.6665V49.6665Z" fill="white"/>
<path d="M347.574 54.8145C347.046 54.6543 346.488 54.953 346.327 55.4815C346.167 56.0101 346.466 56.5684 346.995 56.7285C347.578 56.9052 348.195 56.9998 348.833 56.9998H349.833C350.385 56.9998 350.833 56.5521 350.833 55.9998C350.833 55.4476 350.385 54.9998 349.833 54.9998H348.833C348.394 54.9998 347.972 54.9348 347.574 54.8145Z" fill="white"/>
<path d="M356.005 56.7285C356.534 56.5684 356.832 56.0101 356.672 55.4815C356.512 54.953 355.954 54.6543 355.425 54.8145C355.028 54.9348 354.606 54.9998 354.167 54.9998H353.167C352.614 54.9998 352.167 55.4476 352.167 55.9998C352.167 56.5521 352.614 56.9998 353.167 56.9998H354.167C354.804 56.9998 355.422 56.9052 356.005 56.7285Z" fill="white"/>
<path d="M390.829 48.9971C390.829 51.5824 390.091 53.5625 388.616 54.9375C387.148 56.3125 385.025 57 382.246 57H377.799V41.2949H382.729C385.293 41.2949 387.284 41.9717 388.702 43.3252C390.12 44.6787 390.829 46.5693 390.829 48.9971ZM387.37 49.083C387.37 45.71 385.881 44.0234 382.901 44.0234H381.129V54.25H382.558C385.766 54.25 387.37 52.5277 387.37 49.083ZM399.05 47.0957C398.355 47.0957 397.811 47.3177 397.417 47.7617C397.023 48.1986 396.798 48.8216 396.74 49.6309H401.338C401.324 48.8216 401.112 48.1986 400.704 47.7617C400.296 47.3177 399.744 47.0957 399.05 47.0957ZM399.512 57.2148C397.578 57.2148 396.067 56.6813 394.979 55.6143C393.89 54.5472 393.346 53.0361 393.346 51.0811C393.346 49.0687 393.847 47.5146 394.85 46.4189C395.859 45.3161 397.252 44.7646 399.028 44.7646C400.726 44.7646 402.047 45.248 402.992 46.2148C403.938 47.1816 404.41 48.5173 404.41 50.2217V51.8115H396.665C396.701 52.7425 396.977 53.4694 397.492 53.9922C398.008 54.515 398.731 54.7764 399.662 54.7764C400.385 54.7764 401.069 54.7012 401.714 54.5508C402.358 54.4004 403.032 54.1605 403.733 53.8311V56.3662C403.16 56.6527 402.548 56.8639 401.896 57C401.245 57.1432 400.45 57.2148 399.512 57.2148ZM413.963 47.4502H411.127V57H407.851V47.4502H406.046V45.8711L407.851 44.9902V44.1094C407.851 42.7415 408.187 41.7425 408.86 41.1123C409.534 40.4821 410.611 40.167 412.094 40.167C413.225 40.167 414.231 40.3353 415.112 40.6719L414.274 43.0781C413.616 42.8704 413.007 42.7666 412.448 42.7666C411.983 42.7666 411.646 42.9062 411.438 43.1855C411.231 43.4577 411.127 43.8086 411.127 44.2383V44.9902H413.963V47.4502ZM423.73 57L423.097 55.3672H423.011C422.459 56.0618 421.89 56.5452 421.303 56.8174C420.723 57.0824 419.964 57.2148 419.025 57.2148C417.872 57.2148 416.963 56.8854 416.297 56.2266C415.638 55.5677 415.309 54.6296 415.309 53.4121C415.309 52.1374 415.753 51.1992 416.641 50.5977C417.536 49.9889 418.882 49.6523 420.68 49.5879L422.764 49.5234V48.9971C422.764 47.7796 422.141 47.1709 420.895 47.1709C419.935 47.1709 418.807 47.4609 417.511 48.041L416.426 45.8281C417.808 45.1048 419.34 44.7432 421.023 44.7432C422.635 44.7432 423.87 45.0941 424.729 45.7959C425.589 46.4977 426.019 47.5648 426.019 48.9971V57H423.73ZM422.764 51.4355L421.496 51.4785C420.544 51.5072 419.835 51.679 419.369 51.9941C418.904 52.3092 418.671 52.7891 418.671 53.4336C418.671 54.3574 419.201 54.8193 420.261 54.8193C421.02 54.8193 421.625 54.6009 422.076 54.1641C422.535 53.7272 422.764 53.1471 422.764 52.4238V51.4355ZM438.16 57L437.72 55.4639H437.548C437.197 56.0225 436.699 56.4557 436.055 56.7637C435.41 57.0645 434.676 57.2148 433.853 57.2148C432.442 57.2148 431.378 56.8389 430.662 56.0869C429.946 55.3278 429.588 54.2393 429.588 52.8213V44.9902H432.864V52.0049C432.864 52.8714 433.018 53.5231 433.326 53.96C433.634 54.3896 434.125 54.6045 434.798 54.6045C435.715 54.6045 436.377 54.3001 436.785 53.6914C437.193 53.0755 437.397 52.0586 437.397 50.6406V44.9902H440.674V57H438.16ZM447.638 57H444.361V40.2852H447.638V57ZM456.396 54.6045C456.968 54.6045 457.656 54.4792 458.458 54.2285V56.667C457.642 57.0322 456.639 57.2148 455.45 57.2148C454.14 57.2148 453.184 56.8854 452.582 56.2266C451.988 55.5605 451.69 54.5651 451.69 53.2402V47.4502H450.122V46.0645L451.927 44.9688L452.872 42.4336H454.967V44.9902H458.329V47.4502H454.967V53.2402C454.967 53.7057 455.096 54.0495 455.354 54.2715C455.618 54.4935 455.966 54.6045 456.396 54.6045Z" fill="white"/>
</g>
<path d="M485.5 24C485.5 21.7909 487.291 20 489.5 20H637.5C639.709 20 641.5 21.7909 641.5 24V72C641.5 74.2091 639.709 76 637.5 76H489.5C487.291 76 485.5 74.2091 485.5 72V24Z" fill="#0063A3"/>
<g clip-path="url(#clip1_4743_77359)">
<path d="M509.5 35.6665C508.91 35.6665 508.351 35.7836 507.841 35.9949C507.331 36.2065 506.746 35.9644 506.535 35.4543C506.323 34.9441 506.565 34.359 507.075 34.1475C507.823 33.8372 508.643 33.6665 509.5 33.6665H511.5C512.052 33.6665 512.5 34.1142 512.5 34.6665C512.5 35.2188 512.052 35.6665 511.5 35.6665H509.5Z" fill="white"/>
<path d="M514.5 34.6665C514.5 34.1142 514.948 33.6665 515.5 33.6665H519.5C520.052 33.6665 520.5 34.1142 520.5 34.6665C520.5 35.2188 520.052 35.6665 519.5 35.6665H515.5C514.948 35.6665 514.5 35.2188 514.5 34.6665Z" fill="white"/>
<path d="M522.5 34.6665C522.5 34.1142 522.948 33.6665 523.5 33.6665H525.5C526.357 33.6665 527.176 33.8372 527.924 34.1475C528.435 34.359 528.677 34.9441 528.465 35.4543C528.254 35.9644 527.668 36.2065 527.158 35.9949C526.649 35.7836 526.089 35.6665 525.5 35.6665H523.5C522.948 35.6665 522.5 35.2188 522.5 34.6665Z" fill="white"/>
<path d="M504.954 37.0346C505.464 37.2461 505.706 37.8312 505.495 38.3414C505.284 38.8509 505.167 39.4104 505.167 39.9998V41.9998C505.167 42.5521 504.719 42.9998 504.167 42.9998C503.614 42.9998 503.167 42.5521 503.167 41.9998V39.9998C503.167 39.1429 503.337 38.3234 503.647 37.5752C503.859 37.0651 504.444 36.823 504.954 37.0346Z" fill="white"/>
<path d="M530.045 37.0346C530.556 36.823 531.141 37.0651 531.352 37.5752C531.662 38.3234 531.833 39.1429 531.833 39.9998V41.9998C531.833 42.5521 531.385 42.9998 530.833 42.9998C530.281 42.9998 529.833 42.5521 529.833 41.9998V39.9998C529.833 39.4104 529.716 38.8509 529.505 38.3414C529.293 37.8312 529.535 37.2461 530.045 37.0346Z" fill="white"/>
<path d="M504.167 44.9998C504.719 44.9998 505.167 45.4476 505.167 45.9998V49.9998C505.167 50.5521 504.719 50.9998 504.167 50.9998C503.614 50.9998 503.167 50.5521 503.167 49.9998V45.9998C503.167 45.4476 503.614 44.9998 504.167 44.9998Z" fill="white"/>
<path d="M530.833 44.9998C531.385 44.9998 531.833 45.4476 531.833 45.9998V49.9998C531.833 50.5521 531.385 50.9998 530.833 50.9998C530.281 50.9998 529.833 50.5521 529.833 49.9998V45.9998C529.833 45.4476 530.281 44.9998 530.833 44.9998Z" fill="white"/>
<path d="M504.167 52.9998C504.719 52.9998 505.167 53.4476 505.167 53.9998V55.9998C505.167 56.5892 505.284 57.1488 505.495 57.6583C505.706 58.1685 505.464 58.7535 504.954 58.9651C504.444 59.1767 503.859 58.9346 503.647 58.4244C503.337 57.6763 503.167 56.8567 503.167 55.9998V53.9998C503.167 53.4476 503.614 52.9998 504.167 52.9998Z" fill="white"/>
<path d="M530.833 52.9998C531.385 52.9998 531.833 53.4476 531.833 53.9998V55.9998C531.833 56.8567 531.662 57.6763 531.352 58.4244C531.141 58.9346 530.556 59.1767 530.045 58.9651C529.535 58.7535 529.293 58.1685 529.505 57.6583C529.716 57.1488 529.833 56.5892 529.833 55.9998V53.9998C529.833 53.4476 530.281 52.9998 530.833 52.9998Z" fill="white"/>
<path d="M506.535 60.5454C506.746 60.0353 507.331 59.7932 507.841 60.0047C508.351 60.216 508.91 60.3332 509.5 60.3332H511.5C512.052 60.3332 512.5 60.7809 512.5 61.3332C512.5 61.8855 512.052 62.3332 511.5 62.3332H509.5C508.643 62.3332 507.823 62.1624 507.075 61.8522C506.565 61.6406 506.323 61.0556 506.535 60.5454Z" fill="white"/>
<path d="M528.465 60.5454C528.677 61.0556 528.435 61.6406 527.924 61.8522C527.176 62.1624 526.357 62.3332 525.5 62.3332H523.5C522.948 62.3332 522.5 61.8855 522.5 61.3332C522.5 60.7809 522.948 60.3332 523.5 60.3332H525.5C526.089 60.3332 526.649 60.216 527.158 60.0047C527.668 59.7932 528.254 60.0353 528.465 60.5454Z" fill="white"/>
<path d="M514.5 61.3332C514.5 60.7809 514.948 60.3332 515.5 60.3332H519.5C520.052 60.3332 520.5 60.7809 520.5 61.3332C520.5 61.8855 520.052 62.3332 519.5 62.3332H515.5C514.948 62.3332 514.5 61.8855 514.5 61.3332Z" fill="white"/>
<path d="M528.874 38.1212C529.264 37.7306 529.264 37.0975 528.874 36.7069C528.483 36.3164 527.85 36.3164 527.459 36.7069L526.131 38.0352C525.741 38.4257 525.741 39.0589 526.131 39.4494C526.522 39.84 527.155 39.84 527.545 39.4494L528.874 38.1212Z" fill="white"/>
<path d="M524.889 42.106C525.279 41.7155 525.279 41.0823 524.889 40.6918C524.498 40.3013 523.865 40.3013 523.475 40.6918L520.818 43.3483C520.427 43.7389 520.427 44.372 520.818 44.7625C521.209 45.1531 521.842 45.1531 522.232 44.7625L524.889 42.106Z" fill="white"/>
<path d="M519.576 47.4191C519.966 47.0286 519.966 46.3954 519.576 46.0049C519.185 45.6144 518.552 45.6144 518.161 46.0049L517.5 46.6665L516.838 46.0049C516.448 45.6144 515.815 45.6144 515.424 46.0049C515.033 46.3954 515.033 47.0286 515.424 47.4191L516.086 48.0807L515.505 48.6614C515.114 49.052 515.114 49.6851 515.505 50.0757C515.895 50.4662 516.529 50.4662 516.919 50.0757L517.5 49.4949L518.081 50.0757C518.471 50.4662 519.104 50.4662 519.495 50.0757C519.885 49.6851 519.885 49.052 519.495 48.6614L518.914 48.0807L519.576 47.4191Z" fill="white"/>
<path d="M514.263 52.7322C514.653 52.3417 514.653 51.7085 514.263 51.318C513.872 50.9275 513.239 50.9275 512.848 51.318L510.192 53.9746C509.801 54.3651 509.801 54.9983 510.192 55.3888C510.582 55.7793 511.215 55.7793 511.606 55.3888L514.263 52.7322Z" fill="white"/>
<path d="M508.949 58.0453C509.34 57.6548 509.34 57.0216 508.949 56.6311C508.559 56.2406 507.926 56.2406 507.535 56.6311L506.207 57.9594C505.816 58.3499 505.816 58.9831 506.207 59.3736C506.597 59.7641 507.231 59.7641 507.621 59.3736L508.949 58.0453Z" fill="white"/>
<path d="M527.379 59.3736C527.769 59.7641 528.402 59.7641 528.793 59.3736C529.183 58.9831 529.183 58.3499 528.793 57.9594L527.464 56.6311C527.074 56.2406 526.441 56.2406 526.05 56.6311C525.66 57.0216 525.66 57.6548 526.05 58.0453L527.379 59.3736Z" fill="white"/>
<path d="M523.394 55.3888C523.784 55.7793 524.417 55.7793 524.808 55.3888C525.198 54.9983 525.198 54.3651 524.808 53.9746L522.151 51.318C521.761 50.9275 521.128 50.9275 520.737 51.318C520.347 51.7085 520.347 52.3417 520.737 52.7322L523.394 55.3888Z" fill="white"/>
<path d="M512.767 44.7625C513.158 45.1531 513.791 45.1531 514.182 44.7625C514.572 44.372 514.572 43.7389 514.182 43.3483L511.525 40.6918C511.135 40.3013 510.501 40.3013 510.111 40.6918C509.72 41.0823 509.72 41.7155 510.111 42.106L512.767 44.7625Z" fill="white"/>
<path d="M507.454 39.4494C507.845 39.84 508.478 39.84 508.869 39.4494C509.259 39.0589 509.259 38.4257 508.869 38.0352L507.54 36.7069C507.15 36.3164 506.517 36.3164 506.126 36.7069C505.736 37.0975 505.736 37.7306 506.126 38.1212L507.454 39.4494Z" fill="white"/>
<path d="M513.574 41.1852C513.972 41.0649 514.394 40.9998 514.833 40.9998H515.833C516.385 40.9998 516.833 40.5521 516.833 39.9998C516.833 39.4476 516.385 38.9998 515.833 38.9998H514.833C514.195 38.9998 513.578 39.0945 512.995 39.2711C512.466 39.4313 512.167 39.9896 512.327 40.5181C512.488 41.0467 513.046 41.3454 513.574 41.1852Z" fill="white"/>
<path d="M519.167 38.9998C518.614 38.9998 518.167 39.4476 518.167 39.9998C518.167 40.5521 518.614 40.9998 519.167 40.9998H520.167C520.606 40.9998 521.028 41.0649 521.425 41.1852C521.954 41.3454 522.512 41.0467 522.672 40.5181C522.832 39.9896 522.534 39.4313 522.005 39.2711C521.422 39.0945 520.804 38.9998 520.167 38.9998H519.167Z" fill="white"/>
<path d="M510.685 44.0744C510.845 43.5459 510.547 42.9876 510.018 42.8274C509.49 42.6673 508.931 42.9659 508.771 43.4945C508.594 44.0776 508.5 44.6952 508.5 45.3332V46.3332C508.5 46.8855 508.948 47.3332 509.5 47.3332C510.052 47.3332 510.5 46.8855 510.5 46.3332V45.3332C510.5 44.8939 510.565 44.4716 510.685 44.0744Z" fill="white"/>
<path d="M526.229 43.4945C526.068 42.9659 525.51 42.6673 524.982 42.8274C524.453 42.9876 524.154 43.5459 524.314 44.0744C524.435 44.4716 524.5 44.8939 524.5 45.3332V46.3332C524.5 46.8855 524.948 47.3332 525.5 47.3332C526.052 47.3332 526.5 46.8855 526.5 46.3332V45.3332C526.5 44.6952 526.405 44.0776 526.229 43.4945Z" fill="white"/>
<path d="M510.5 49.6665C510.5 49.1142 510.052 48.6665 509.5 48.6665C508.948 48.6665 508.5 49.1142 508.5 49.6665V50.6665C508.5 51.3044 508.594 51.9221 508.771 52.5052C508.931 53.0337 509.49 53.3324 510.018 53.1723C510.547 53.0121 510.845 52.4538 510.685 51.9253C510.565 51.5281 510.5 51.1058 510.5 50.6665V49.6665Z" fill="white"/>
<path d="M526.5 49.6665C526.5 49.1142 526.052 48.6665 525.5 48.6665C524.948 48.6665 524.5 49.1142 524.5 49.6665V50.6665C524.5 51.1058 524.435 51.5281 524.314 51.9253C524.154 52.4538 524.453 53.0121 524.982 53.1723C525.51 53.3324 526.068 53.0337 526.229 52.5052C526.405 51.9221 526.5 51.3044 526.5 50.6665V49.6665Z" fill="white"/>
<path d="M513.574 54.8145C513.046 54.6543 512.488 54.953 512.327 55.4815C512.167 56.0101 512.466 56.5684 512.995 56.7285C513.578 56.9052 514.195 56.9998 514.833 56.9998H515.833C516.385 56.9998 516.833 56.5521 516.833 55.9998C516.833 55.4476 516.385 54.9998 515.833 54.9998H514.833C514.394 54.9998 513.972 54.9348 513.574 54.8145Z" fill="white"/>
<path d="M522.005 56.7285C522.534 56.5684 522.832 56.0101 522.672 55.4815C522.512 54.953 521.954 54.6543 521.425 54.8145C521.028 54.9348 520.606 54.9998 520.167 54.9998H519.167C518.614 54.9998 518.167 55.4476 518.167 55.9998C518.167 56.5521 518.614 56.9998 519.167 56.9998H520.167C520.804 56.9998 521.422 56.9052 522.005 56.7285Z" fill="white"/>
<path d="M556.829 48.9971C556.829 51.5824 556.091 53.5625 554.616 54.9375C553.148 56.3125 551.025 57 548.246 57H543.799V41.2949H548.729C551.293 41.2949 553.284 41.9717 554.702 43.3252C556.12 44.6787 556.829 46.5693 556.829 48.9971ZM553.37 49.083C553.37 45.71 551.881 44.0234 548.901 44.0234H547.129V54.25H548.558C551.766 54.25 553.37 52.5277 553.37 49.083ZM565.05 47.0957C564.355 47.0957 563.811 47.3177 563.417 47.7617C563.023 48.1986 562.798 48.8216 562.74 49.6309H567.338C567.324 48.8216 567.112 48.1986 566.704 47.7617C566.296 47.3177 565.744 47.0957 565.05 47.0957ZM565.512 57.2148C563.578 57.2148 562.067 56.6813 560.979 55.6143C559.89 54.5472 559.346 53.0361 559.346 51.0811C559.346 49.0687 559.847 47.5146 560.85 46.4189C561.859 45.3161 563.252 44.7646 565.028 44.7646C566.726 44.7646 568.047 45.248 568.992 46.2148C569.938 47.1816 570.41 48.5173 570.41 50.2217V51.8115H562.665C562.701 52.7425 562.977 53.4694 563.492 53.9922C564.008 54.515 564.731 54.7764 565.662 54.7764C566.385 54.7764 567.069 54.7012 567.714 54.5508C568.358 54.4004 569.032 54.1605 569.733 53.8311V56.3662C569.16 56.6527 568.548 56.8639 567.896 57C567.245 57.1432 566.45 57.2148 565.512 57.2148ZM579.963 47.4502H577.127V57H573.851V47.4502H572.046V45.8711L573.851 44.9902V44.1094C573.851 42.7415 574.187 41.7425 574.86 41.1123C575.534 40.4821 576.611 40.167 578.094 40.167C579.225 40.167 580.231 40.3353 581.112 40.6719L580.274 43.0781C579.616 42.8704 579.007 42.7666 578.448 42.7666C577.983 42.7666 577.646 42.9062 577.438 43.1855C577.231 43.4577 577.127 43.8086 577.127 44.2383V44.9902H579.963V47.4502ZM589.73 57L589.097 55.3672H589.011C588.459 56.0618 587.89 56.5452 587.303 56.8174C586.723 57.0824 585.964 57.2148 585.025 57.2148C583.872 57.2148 582.963 56.8854 582.297 56.2266C581.638 55.5677 581.309 54.6296 581.309 53.4121C581.309 52.1374 581.753 51.1992 582.641 50.5977C583.536 49.9889 584.882 49.6523 586.68 49.5879L588.764 49.5234V48.9971C588.764 47.7796 588.141 47.1709 586.895 47.1709C585.935 47.1709 584.807 47.4609 583.511 48.041L582.426 45.8281C583.808 45.1048 585.34 44.7432 587.023 44.7432C588.635 44.7432 589.87 45.0941 590.729 45.7959C591.589 46.4977 592.019 47.5648 592.019 48.9971V57H589.73ZM588.764 51.4355L587.496 51.4785C586.544 51.5072 585.835 51.679 585.369 51.9941C584.904 52.3092 584.671 52.7891 584.671 53.4336C584.671 54.3574 585.201 54.8193 586.261 54.8193C587.02 54.8193 587.625 54.6009 588.076 54.1641C588.535 53.7272 588.764 53.1471 588.764 52.4238V51.4355ZM604.16 57L603.72 55.4639H603.548C603.197 56.0225 602.699 56.4557 602.055 56.7637C601.41 57.0645 600.676 57.2148 599.853 57.2148C598.442 57.2148 597.378 56.8389 596.662 56.0869C595.946 55.3278 595.588 54.2393 595.588 52.8213V44.9902H598.864V52.0049C598.864 52.8714 599.018 53.5231 599.326 53.96C599.634 54.3896 600.125 54.6045 600.798 54.6045C601.715 54.6045 602.377 54.3001 602.785 53.6914C603.193 53.0755 603.397 52.0586 603.397 50.6406V44.9902H606.674V57H604.16ZM613.638 57H610.361V40.2852H613.638V57ZM622.396 54.6045C622.968 54.6045 623.656 54.4792 624.458 54.2285V56.667C623.642 57.0322 622.639 57.2148 621.45 57.2148C620.14 57.2148 619.184 56.8854 618.582 56.2266C617.988 55.5605 617.69 54.5651 617.69 53.2402V47.4502H616.122V46.0645L617.927 44.9688L618.872 42.4336H620.967V44.9902H624.329V47.4502H620.967V53.2402C620.967 53.7057 621.096 54.0495 621.354 54.2715C621.618 54.4935 621.966 54.6045 622.396 54.6045Z" fill="white"/>
</g>
<defs>
<clipPath id="clip0_4743_77359">
<rect width="124" height="32" fill="white" transform="translate(335.5 32)"/>
</clipPath>
<clipPath id="clip1_4743_77359">
<rect width="124" height="32" fill="white" transform="translate(501.5 32)"/>
</clipPath>
</defs>
</svg>
