<svg width="980" height="228" viewBox="0 0 980 228" fill="none" xmlns="http://www.w3.org/2000/svg">
<rect width="979" height="228" transform="translate(0.5)" fill="#F1F1F6"/>
<g clip-path="url(#clip0_4850_76535)">
<path fill-rule="evenodd" clip-rule="evenodd" d="M60.6667 105H79.3333C80.8133 105 82 106.2 82 107.667V126.333C82 127.8 80.8133 129 79.3333 129H60.6667C59.1867 129 58 127.8 58 126.333V107.667C58 106.2 59.1867 105 60.6667 105ZM60.6667 117L67.3333 123.667L79.3333 111.667L77.4533 109.773L67.3333 119.893L62.5467 115.12L60.6667 117Z" fill="#217CBB"/>
<path fill-rule="evenodd" clip-rule="evenodd" d="M60.6667 117L67.3333 123.667L79.3333 111.667L77.4533 109.773L67.3333 119.893L62.5467 115.12L60.6667 117Z" fill="white"/>
<path d="M107.521 121.821C107.521 123.203 107.02 124.281 106.018 125.055C105.015 125.828 103.654 126.215 101.936 126.215C100.074 126.215 98.6413 125.975 97.6387 125.495V123.733C98.2832 124.006 98.985 124.22 99.7441 124.378C100.503 124.535 101.255 124.614 102 124.614C103.217 124.614 104.134 124.385 104.75 123.927C105.366 123.461 105.674 122.817 105.674 121.993C105.674 121.449 105.563 121.005 105.341 120.661C105.126 120.31 104.761 119.988 104.245 119.694C103.737 119.401 102.96 119.068 101.914 118.695C100.453 118.173 99.4076 117.553 98.7773 116.837C98.1543 116.121 97.8428 115.186 97.8428 114.033C97.8428 112.823 98.2975 111.86 99.207 111.144C100.117 110.427 101.32 110.069 102.816 110.069C104.378 110.069 105.813 110.356 107.124 110.929L106.555 112.519C105.258 111.974 103.998 111.702 102.773 111.702C101.807 111.702 101.051 111.91 100.507 112.325C99.9626 112.741 99.6904 113.317 99.6904 114.055C99.6904 114.599 99.7907 115.047 99.9912 115.397C100.192 115.741 100.528 116.06 101.001 116.354C101.481 116.64 102.211 116.959 103.192 117.31C104.84 117.897 105.971 118.527 106.587 119.2C107.21 119.873 107.521 120.747 107.521 121.821ZM115.688 126.215C113.948 126.215 112.573 125.685 111.563 124.625C110.561 123.565 110.06 122.093 110.06 120.21C110.06 118.312 110.525 116.805 111.456 115.688C112.394 114.57 113.651 114.012 115.227 114.012C116.702 114.012 117.869 114.499 118.729 115.473C119.588 116.439 120.018 117.718 120.018 119.308V120.436H111.907C111.943 121.818 112.29 122.867 112.949 123.583C113.615 124.299 114.55 124.657 115.753 124.657C117.021 124.657 118.274 124.392 119.513 123.862V125.452C118.882 125.724 118.285 125.918 117.719 126.032C117.16 126.154 116.483 126.215 115.688 126.215ZM115.205 115.505C114.26 115.505 113.504 115.813 112.938 116.429C112.38 117.045 112.05 117.897 111.95 118.985H118.105C118.105 117.861 117.855 117.002 117.354 116.407C116.852 115.806 116.136 115.505 115.205 115.505ZM125.102 126H123.318V109.285H125.102V126ZM134.106 126.215C132.366 126.215 130.991 125.685 129.981 124.625C128.979 123.565 128.478 122.093 128.478 120.21C128.478 118.312 128.943 116.805 129.874 115.688C130.812 114.57 132.069 114.012 133.645 114.012C135.12 114.012 136.287 114.499 137.146 115.473C138.006 116.439 138.436 117.718 138.436 119.308V120.436H130.325C130.361 121.818 130.708 122.867 131.367 123.583C132.033 124.299 132.968 124.657 134.171 124.657C135.438 124.657 136.692 124.392 137.931 123.862V125.452C137.3 125.724 136.702 125.918 136.137 126.032C135.578 126.154 134.901 126.215 134.106 126.215ZM133.623 115.505C132.678 115.505 131.922 115.813 131.356 116.429C130.798 117.045 130.468 117.897 130.368 118.985H136.523C136.523 117.861 136.273 117.002 135.771 116.407C135.27 115.806 134.554 115.505 133.623 115.505ZM146.441 126.215C144.737 126.215 143.416 125.692 142.478 124.646C141.547 123.594 141.081 122.108 141.081 120.188C141.081 118.219 141.554 116.697 142.499 115.623C143.451 114.549 144.805 114.012 146.56 114.012C147.125 114.012 147.691 114.073 148.257 114.194C148.823 114.316 149.267 114.459 149.589 114.624L149.041 116.139C148.647 115.981 148.217 115.852 147.752 115.752C147.286 115.645 146.875 115.591 146.517 115.591C144.125 115.591 142.929 117.116 142.929 120.167C142.929 121.614 143.219 122.724 143.799 123.497C144.386 124.271 145.253 124.657 146.398 124.657C147.38 124.657 148.386 124.446 149.417 124.023V125.603C148.629 126.011 147.637 126.215 146.441 126.215ZM156.273 124.743C156.589 124.743 156.893 124.722 157.187 124.679C157.48 124.629 157.713 124.578 157.885 124.528V125.893C157.691 125.986 157.405 126.061 157.025 126.118C156.653 126.183 156.316 126.215 156.016 126.215C153.738 126.215 152.6 125.015 152.6 122.616V115.612H150.913V114.753L152.6 114.012L153.352 111.498H154.383V114.227H157.799V115.612H154.383V122.541C154.383 123.25 154.551 123.794 154.888 124.174C155.224 124.553 155.686 124.743 156.273 124.743ZM165.472 126.215C163.731 126.215 162.356 125.685 161.347 124.625C160.344 123.565 159.843 122.093 159.843 120.21C159.843 118.312 160.308 116.805 161.239 115.688C162.177 114.57 163.434 114.012 165.01 114.012C166.485 114.012 167.652 114.499 168.512 115.473C169.371 116.439 169.801 117.718 169.801 119.308V120.436H161.69C161.726 121.818 162.074 122.867 162.732 123.583C163.398 124.299 164.333 124.657 165.536 124.657C166.804 124.657 168.057 124.392 169.296 123.862V125.452C168.666 125.724 168.068 125.918 167.502 126.032C166.943 126.154 166.267 126.215 165.472 126.215ZM164.988 115.505C164.043 115.505 163.287 115.813 162.722 116.429C162.163 117.045 161.834 117.897 161.733 118.985H167.889C167.889 117.861 167.638 117.002 167.137 116.407C166.635 115.806 165.919 115.505 164.988 115.505ZM181.115 124.421H181.019C180.195 125.617 178.963 126.215 177.323 126.215C175.784 126.215 174.584 125.688 173.725 124.636C172.872 123.583 172.446 122.086 172.446 120.146C172.446 118.205 172.876 116.697 173.735 115.623C174.595 114.549 175.791 114.012 177.323 114.012C178.92 114.012 180.145 114.592 180.997 115.752H181.137L181.062 114.903L181.019 114.076V109.285H182.802V126H181.352L181.115 124.421ZM177.549 124.722C178.766 124.722 179.647 124.392 180.191 123.733C180.743 123.067 181.019 121.997 181.019 120.521V120.146C181.019 118.477 180.739 117.288 180.181 116.579C179.629 115.863 178.745 115.505 177.527 115.505C176.482 115.505 175.68 115.913 175.121 116.729C174.57 117.539 174.294 118.685 174.294 120.167C174.294 121.671 174.57 122.806 175.121 123.572C175.673 124.339 176.482 124.722 177.549 124.722Z" fill="#252A2E"/>
</g>
<g clip-path="url(#clip1_4850_76535)">
<path fill-rule="evenodd" clip-rule="evenodd" d="M232.167 100.649H250.833C252.313 100.649 253.5 101.849 253.5 103.315V121.982C253.5 123.449 252.313 124.649 250.833 124.649H232.167C230.687 124.649 229.5 123.449 229.5 121.982V103.315C229.5 101.849 230.687 100.649 232.167 100.649ZM232.167 112.649L238.833 119.315L250.833 107.315L248.953 105.422L238.833 115.542L234.047 110.769L232.167 112.649Z" fill="#217CBB"/>
<path fill-rule="evenodd" clip-rule="evenodd" d="M232.167 101.6H250.833C252.313 101.6 253.5 102.8 253.5 104.267V122.933C253.5 124.4 252.313 125.6 250.833 125.6H232.167C230.687 125.6 229.5 124.4 229.5 122.933V104.267C229.5 102.8 230.687 101.6 232.167 101.6ZM232.167 113.6L238.833 120.267L250.833 108.267L248.953 106.373L238.833 116.493L234.047 111.72L232.167 113.6Z" fill="#217CBB"/>
<path d="M230.5 95.6487C227.186 95.6487 224.5 98.335 224.5 101.649V123.649C224.5 126.962 227.186 129.649 230.5 129.649H252.5C255.814 129.649 258.5 126.962 258.5 123.649V101.649C258.5 98.335 255.814 95.6487 252.5 95.6487H230.5Z" stroke="#0084FF" stroke-width="4"/>
<path d="M286.521 118.821C286.521 120.203 286.02 121.281 285.018 122.055C284.015 122.828 282.654 123.215 280.936 123.215C279.074 123.215 277.641 122.975 276.639 122.495V120.733C277.283 121.006 277.985 121.22 278.744 121.378C279.503 121.535 280.255 121.614 281 121.614C282.217 121.614 283.134 121.385 283.75 120.927C284.366 120.461 284.674 119.817 284.674 118.993C284.674 118.449 284.563 118.005 284.341 117.661C284.126 117.31 283.761 116.988 283.245 116.694C282.737 116.401 281.96 116.068 280.914 115.695C279.453 115.173 278.408 114.553 277.777 113.837C277.154 113.121 276.843 112.186 276.843 111.033C276.843 109.823 277.298 108.86 278.207 108.144C279.117 107.427 280.32 107.069 281.816 107.069C283.378 107.069 284.813 107.356 286.124 107.929L285.555 109.519C284.258 108.974 282.998 108.702 281.773 108.702C280.807 108.702 280.051 108.91 279.507 109.325C278.963 109.741 278.69 110.317 278.69 111.055C278.69 111.599 278.791 112.047 278.991 112.397C279.192 112.741 279.528 113.06 280.001 113.354C280.481 113.64 281.211 113.959 282.192 114.31C283.84 114.897 284.971 115.527 285.587 116.2C286.21 116.873 286.521 117.747 286.521 118.821ZM294.688 123.215C292.948 123.215 291.573 122.685 290.563 121.625C289.561 120.565 289.06 119.093 289.06 117.21C289.06 115.312 289.525 113.805 290.456 112.688C291.394 111.57 292.651 111.012 294.227 111.012C295.702 111.012 296.869 111.499 297.729 112.473C298.588 113.439 299.018 114.718 299.018 116.308V117.436H290.907C290.943 118.818 291.29 119.867 291.949 120.583C292.615 121.299 293.55 121.657 294.753 121.657C296.021 121.657 297.274 121.392 298.513 120.862V122.452C297.882 122.724 297.285 122.918 296.719 123.032C296.16 123.154 295.483 123.215 294.688 123.215ZM294.205 112.505C293.26 112.505 292.504 112.813 291.938 113.429C291.38 114.045 291.05 114.897 290.95 115.985H297.105C297.105 114.861 296.855 114.002 296.354 113.407C295.852 112.806 295.136 112.505 294.205 112.505ZM304.102 123H302.318V106.285H304.102V123ZM313.106 123.215C311.366 123.215 309.991 122.685 308.981 121.625C307.979 120.565 307.478 119.093 307.478 117.21C307.478 115.312 307.943 113.805 308.874 112.688C309.812 111.57 311.069 111.012 312.645 111.012C314.12 111.012 315.287 111.499 316.146 112.473C317.006 113.439 317.436 114.718 317.436 116.308V117.436H309.325C309.361 118.818 309.708 119.867 310.367 120.583C311.033 121.299 311.968 121.657 313.171 121.657C314.438 121.657 315.692 121.392 316.931 120.862V122.452C316.3 122.724 315.702 122.918 315.137 123.032C314.578 123.154 313.901 123.215 313.106 123.215ZM312.623 112.505C311.678 112.505 310.922 112.813 310.356 113.429C309.798 114.045 309.468 114.897 309.368 115.985H315.523C315.523 114.861 315.273 114.002 314.771 113.407C314.27 112.806 313.554 112.505 312.623 112.505ZM325.441 123.215C323.737 123.215 322.416 122.692 321.478 121.646C320.547 120.594 320.081 119.108 320.081 117.188C320.081 115.219 320.554 113.697 321.499 112.623C322.451 111.549 323.805 111.012 325.56 111.012C326.125 111.012 326.691 111.073 327.257 111.194C327.823 111.316 328.267 111.459 328.589 111.624L328.041 113.139C327.647 112.981 327.217 112.852 326.752 112.752C326.286 112.645 325.875 112.591 325.517 112.591C323.125 112.591 321.929 114.116 321.929 117.167C321.929 118.614 322.219 119.724 322.799 120.497C323.386 121.271 324.253 121.657 325.398 121.657C326.38 121.657 327.386 121.446 328.417 121.023V122.603C327.629 123.011 326.637 123.215 325.441 123.215ZM335.273 121.743C335.589 121.743 335.893 121.722 336.187 121.679C336.48 121.629 336.713 121.578 336.885 121.528V122.893C336.691 122.986 336.405 123.061 336.025 123.118C335.653 123.183 335.316 123.215 335.016 123.215C332.738 123.215 331.6 122.015 331.6 119.616V112.612H329.913V111.753L331.6 111.012L332.352 108.498H333.383V111.227H336.799V112.612H333.383V119.541C333.383 120.25 333.551 120.794 333.888 121.174C334.224 121.553 334.686 121.743 335.273 121.743ZM344.472 123.215C342.731 123.215 341.356 122.685 340.347 121.625C339.344 120.565 338.843 119.093 338.843 117.21C338.843 115.312 339.308 113.805 340.239 112.688C341.177 111.57 342.434 111.012 344.01 111.012C345.485 111.012 346.652 111.499 347.512 112.473C348.371 113.439 348.801 114.718 348.801 116.308V117.436H340.69C340.726 118.818 341.074 119.867 341.732 120.583C342.398 121.299 343.333 121.657 344.536 121.657C345.804 121.657 347.057 121.392 348.296 120.862V122.452C347.666 122.724 347.068 122.918 346.502 123.032C345.943 123.154 345.267 123.215 344.472 123.215ZM343.988 112.505C343.043 112.505 342.287 112.813 341.722 113.429C341.163 114.045 340.834 114.897 340.733 115.985H346.889C346.889 114.861 346.638 114.002 346.137 113.407C345.635 112.806 344.919 112.505 343.988 112.505ZM360.115 121.421H360.019C359.195 122.617 357.963 123.215 356.323 123.215C354.784 123.215 353.584 122.688 352.725 121.636C351.872 120.583 351.446 119.086 351.446 117.146C351.446 115.205 351.876 113.697 352.735 112.623C353.595 111.549 354.791 111.012 356.323 111.012C357.92 111.012 359.145 111.592 359.997 112.752H360.137L360.062 111.903L360.019 111.076V106.285H361.802V123H360.352L360.115 121.421ZM356.549 121.722C357.766 121.722 358.647 121.392 359.191 120.733C359.743 120.067 360.019 118.997 360.019 117.521V117.146C360.019 115.477 359.739 114.288 359.181 113.579C358.629 112.863 357.745 112.505 356.527 112.505C355.482 112.505 354.68 112.913 354.121 113.729C353.57 114.539 353.294 115.685 353.294 117.167C353.294 118.671 353.57 119.806 354.121 120.572C354.673 121.339 355.482 121.722 356.549 121.722Z" fill="#252A2E"/>
</g>
<g opacity="0.5">
<g clip-path="url(#clip2_4850_76535)">
<path fill-rule="evenodd" clip-rule="evenodd" d="M413.167 102H431.833C433.313 102 434.5 103.2 434.5 104.667V123.333C434.5 124.8 433.313 126 431.833 126H413.167C411.687 126 410.5 124.8 410.5 123.333V104.667C410.5 103.2 411.687 102 413.167 102ZM413.167 114L419.833 120.667L431.833 108.667L429.953 106.773L419.833 116.893L415.047 112.12L413.167 114Z" fill="#217CBB"/>
<path d="M457.521 118.821C457.521 120.203 457.02 121.281 456.018 122.055C455.015 122.828 453.654 123.215 451.936 123.215C450.074 123.215 448.641 122.975 447.639 122.495V120.733C448.283 121.006 448.985 121.22 449.744 121.378C450.503 121.535 451.255 121.614 452 121.614C453.217 121.614 454.134 121.385 454.75 120.927C455.366 120.461 455.674 119.817 455.674 118.993C455.674 118.449 455.563 118.005 455.341 117.661C455.126 117.31 454.761 116.988 454.245 116.694C453.737 116.401 452.96 116.068 451.914 115.695C450.453 115.173 449.408 114.553 448.777 113.837C448.154 113.121 447.843 112.186 447.843 111.033C447.843 109.823 448.298 108.86 449.207 108.144C450.117 107.427 451.32 107.069 452.816 107.069C454.378 107.069 455.813 107.356 457.124 107.929L456.555 109.519C455.258 108.974 453.998 108.702 452.773 108.702C451.807 108.702 451.051 108.91 450.507 109.325C449.963 109.741 449.69 110.317 449.69 111.055C449.69 111.599 449.791 112.047 449.991 112.397C450.192 112.741 450.528 113.06 451.001 113.354C451.481 113.64 452.211 113.959 453.192 114.31C454.84 114.897 455.971 115.527 456.587 116.2C457.21 116.873 457.521 117.747 457.521 118.821ZM465.688 123.215C463.948 123.215 462.573 122.685 461.563 121.625C460.561 120.565 460.06 119.093 460.06 117.21C460.06 115.312 460.525 113.805 461.456 112.688C462.394 111.57 463.651 111.012 465.227 111.012C466.702 111.012 467.869 111.499 468.729 112.473C469.588 113.439 470.018 114.718 470.018 116.308V117.436H461.907C461.943 118.818 462.29 119.867 462.949 120.583C463.615 121.299 464.55 121.657 465.753 121.657C467.021 121.657 468.274 121.392 469.513 120.862V122.452C468.882 122.724 468.285 122.918 467.719 123.032C467.16 123.154 466.483 123.215 465.688 123.215ZM465.205 112.505C464.26 112.505 463.504 112.813 462.938 113.429C462.38 114.045 462.05 114.897 461.95 115.985H468.105C468.105 114.861 467.855 114.002 467.354 113.407C466.852 112.806 466.136 112.505 465.205 112.505ZM475.102 123H473.318V106.285H475.102V123ZM484.106 123.215C482.366 123.215 480.991 122.685 479.981 121.625C478.979 120.565 478.478 119.093 478.478 117.21C478.478 115.312 478.943 113.805 479.874 112.688C480.812 111.57 482.069 111.012 483.645 111.012C485.12 111.012 486.287 111.499 487.146 112.473C488.006 113.439 488.436 114.718 488.436 116.308V117.436H480.325C480.361 118.818 480.708 119.867 481.367 120.583C482.033 121.299 482.968 121.657 484.171 121.657C485.438 121.657 486.692 121.392 487.931 120.862V122.452C487.3 122.724 486.702 122.918 486.137 123.032C485.578 123.154 484.901 123.215 484.106 123.215ZM483.623 112.505C482.678 112.505 481.922 112.813 481.356 113.429C480.798 114.045 480.468 114.897 480.368 115.985H486.523C486.523 114.861 486.273 114.002 485.771 113.407C485.27 112.806 484.554 112.505 483.623 112.505ZM496.441 123.215C494.737 123.215 493.416 122.692 492.478 121.646C491.547 120.594 491.081 119.108 491.081 117.188C491.081 115.219 491.554 113.697 492.499 112.623C493.451 111.549 494.805 111.012 496.56 111.012C497.125 111.012 497.691 111.073 498.257 111.194C498.823 111.316 499.267 111.459 499.589 111.624L499.041 113.139C498.647 112.981 498.217 112.852 497.752 112.752C497.286 112.645 496.875 112.591 496.517 112.591C494.125 112.591 492.929 114.116 492.929 117.167C492.929 118.614 493.219 119.724 493.799 120.497C494.386 121.271 495.253 121.657 496.398 121.657C497.38 121.657 498.386 121.446 499.417 121.023V122.603C498.629 123.011 497.637 123.215 496.441 123.215ZM506.273 121.743C506.589 121.743 506.893 121.722 507.187 121.679C507.48 121.629 507.713 121.578 507.885 121.528V122.893C507.691 122.986 507.405 123.061 507.025 123.118C506.653 123.183 506.316 123.215 506.016 123.215C503.738 123.215 502.6 122.015 502.6 119.616V112.612H500.913V111.753L502.6 111.012L503.352 108.498H504.383V111.227H507.799V112.612H504.383V119.541C504.383 120.25 504.551 120.794 504.888 121.174C505.224 121.553 505.686 121.743 506.273 121.743ZM515.472 123.215C513.731 123.215 512.356 122.685 511.347 121.625C510.344 120.565 509.843 119.093 509.843 117.21C509.843 115.312 510.308 113.805 511.239 112.688C512.177 111.57 513.434 111.012 515.01 111.012C516.485 111.012 517.652 111.499 518.512 112.473C519.371 113.439 519.801 114.718 519.801 116.308V117.436H511.69C511.726 118.818 512.074 119.867 512.732 120.583C513.398 121.299 514.333 121.657 515.536 121.657C516.804 121.657 518.057 121.392 519.296 120.862V122.452C518.666 122.724 518.068 122.918 517.502 123.032C516.943 123.154 516.267 123.215 515.472 123.215ZM514.988 112.505C514.043 112.505 513.287 112.813 512.722 113.429C512.163 114.045 511.834 114.897 511.733 115.985H517.889C517.889 114.861 517.638 114.002 517.137 113.407C516.635 112.806 515.919 112.505 514.988 112.505ZM531.115 121.421H531.019C530.195 122.617 528.963 123.215 527.323 123.215C525.784 123.215 524.584 122.688 523.725 121.636C522.872 120.583 522.446 119.086 522.446 117.146C522.446 115.205 522.876 113.697 523.735 112.623C524.595 111.549 525.791 111.012 527.323 111.012C528.92 111.012 530.145 111.592 530.997 112.752H531.137L531.062 111.903L531.019 111.076V106.285H532.802V123H531.352L531.115 121.421ZM527.549 121.722C528.766 121.722 529.647 121.392 530.191 120.733C530.743 120.067 531.019 118.997 531.019 117.521V117.146C531.019 115.477 530.739 114.288 530.181 113.579C529.629 112.863 528.745 112.505 527.527 112.505C526.482 112.505 525.68 112.913 525.121 113.729C524.57 114.539 524.294 115.685 524.294 117.167C524.294 118.671 524.57 119.806 525.121 120.572C525.673 121.339 526.482 121.722 527.549 121.722Z" fill="#252A2E"/>
</g>
</g>
<g clip-path="url(#clip3_4850_76535)">
<rect x="583.5" y="104" width="20" height="20" fill="white"/>
<path fill-rule="evenodd" clip-rule="evenodd" d="M584.167 102H602.833C604.3 102 605.5 103.2 605.5 104.667V123.333C605.5 124.8 604.3 126 602.833 126H584.167C582.7 126 581.5 124.8 581.5 123.333V104.667C581.5 103.2 582.7 102 584.167 102ZM602.833 123.333V104.667H584.167V123.333H602.833Z" fill="#90939F"/>
<path d="M635.193 121.743C635.508 121.743 635.813 121.722 636.106 121.679C636.4 121.629 636.633 121.578 636.805 121.528V122.893C636.611 122.986 636.325 123.061 635.945 123.118C635.573 123.183 635.236 123.215 634.936 123.215C632.658 123.215 631.52 122.015 631.52 119.616V112.612H629.833V111.753L631.52 111.012L632.271 108.498H633.303V111.227H636.719V112.612H633.303V119.541C633.303 120.25 633.471 120.794 633.808 121.174C634.144 121.553 634.606 121.743 635.193 121.743ZM644.392 123.215C642.651 123.215 641.276 122.685 640.267 121.625C639.264 120.565 638.763 119.093 638.763 117.21C638.763 115.312 639.228 113.805 640.159 112.688C641.097 111.57 642.354 111.012 643.93 111.012C645.405 111.012 646.572 111.499 647.432 112.473C648.291 113.439 648.721 114.718 648.721 116.308V117.436H640.61C640.646 118.818 640.993 119.867 641.652 120.583C642.318 121.299 643.253 121.657 644.456 121.657C645.724 121.657 646.977 121.392 648.216 120.862V122.452C647.586 122.724 646.988 122.918 646.422 123.032C645.863 123.154 645.187 123.215 644.392 123.215ZM643.908 112.505C642.963 112.505 642.207 112.813 641.642 113.429C641.083 114.045 640.754 114.897 640.653 115.985H646.809C646.809 114.861 646.558 114.002 646.057 113.407C645.555 112.806 644.839 112.505 643.908 112.505ZM654.857 116.974L650.765 111.227H652.795L655.899 115.738L658.993 111.227H661.002L656.909 116.974L661.217 123H659.197L655.899 118.23L652.569 123H650.55L654.857 116.974ZM667.611 121.743C667.926 121.743 668.231 121.722 668.524 121.679C668.818 121.629 669.051 121.578 669.223 121.528V122.893C669.029 122.986 668.743 123.061 668.363 123.118C667.991 123.183 667.654 123.215 667.354 123.215C665.076 123.215 663.938 122.015 663.938 119.616V112.612H662.251V111.753L663.938 111.012L664.689 108.498H665.721V111.227H669.137V112.612H665.721V119.541C665.721 120.25 665.889 120.794 666.226 121.174C666.562 121.553 667.024 121.743 667.611 121.743Z" fill="#464B52"/>
</g>
<g clip-path="url(#clip4_4850_76535)">
<rect x="720.5" y="104.5" width="20" height="20" fill="white"/>
<path fill-rule="evenodd" clip-rule="evenodd" d="M721.167 102H739.833C741.3 102 742.5 103.2 742.5 104.667V123.333C742.5 124.8 741.3 126 739.833 126H721.167C719.7 126 718.5 124.8 718.5 123.333V104.667C718.5 103.2 719.7 102 721.167 102ZM739.833 123.333V104.667H721.167V123.333H739.833Z" fill="#90939F"/>
<path d="M719.5 97C716.186 97 713.5 99.6863 713.5 103V125C713.5 128.314 716.186 131 719.5 131H741.5C744.814 131 747.5 128.314 747.5 125V103C747.5 99.6863 744.814 97 741.5 97H719.5Z" stroke="#B44E2A" stroke-width="4"/>
<path d="M770.193 121.743C770.508 121.743 770.813 121.722 771.106 121.679C771.4 121.629 771.633 121.578 771.805 121.528V122.893C771.611 122.986 771.325 123.061 770.945 123.118C770.573 123.183 770.236 123.215 769.936 123.215C767.658 123.215 766.52 122.015 766.52 119.616V112.612H764.833V111.753L766.52 111.012L767.271 108.498H768.303V111.227H771.719V112.612H768.303V119.541C768.303 120.25 768.471 120.794 768.808 121.174C769.144 121.553 769.606 121.743 770.193 121.743ZM779.392 123.215C777.651 123.215 776.276 122.685 775.267 121.625C774.264 120.565 773.763 119.093 773.763 117.21C773.763 115.312 774.228 113.805 775.159 112.688C776.097 111.57 777.354 111.012 778.93 111.012C780.405 111.012 781.572 111.499 782.432 112.473C783.291 113.439 783.721 114.718 783.721 116.308V117.436H775.61C775.646 118.818 775.993 119.867 776.652 120.583C777.318 121.299 778.253 121.657 779.456 121.657C780.724 121.657 781.977 121.392 783.216 120.862V122.452C782.586 122.724 781.988 122.918 781.422 123.032C780.863 123.154 780.187 123.215 779.392 123.215ZM778.908 112.505C777.963 112.505 777.207 112.813 776.642 113.429C776.083 114.045 775.754 114.897 775.653 115.985H781.809C781.809 114.861 781.558 114.002 781.057 113.407C780.555 112.806 779.839 112.505 778.908 112.505ZM789.857 116.974L785.765 111.227H787.795L790.899 115.738L793.993 111.227H796.002L791.909 116.974L796.217 123H794.197L790.899 118.23L787.569 123H785.55L789.857 116.974ZM802.611 121.743C802.926 121.743 803.231 121.722 803.524 121.679C803.818 121.629 804.051 121.578 804.223 121.528V122.893C804.029 122.986 803.743 123.061 803.363 123.118C802.991 123.183 802.654 123.215 802.354 123.215C800.076 123.215 798.938 122.015 798.938 119.616V112.612H797.251V111.753L798.938 111.012L799.689 108.498H800.721V111.227H804.137V112.612H800.721V119.541C800.721 120.25 800.889 120.794 801.226 121.174C801.562 121.553 802.024 121.743 802.611 121.743Z" fill="#464B52"/>
</g>
<g opacity="0.3">
<g clip-path="url(#clip5_4850_76535)">
<path fill-rule="evenodd" clip-rule="evenodd" d="M854.167 102H872.833C874.3 102 875.5 103.2 875.5 104.667V123.333C875.5 124.8 874.3 126 872.833 126H854.167C852.7 126 851.5 124.8 851.5 123.333V104.667C851.5 103.2 852.7 102 854.167 102ZM872.833 123.333V104.667H854.167V123.333H872.833Z" fill="#90939F"/>
<path d="M893.193 121.743C893.508 121.743 893.813 121.722 894.106 121.679C894.4 121.629 894.633 121.578 894.805 121.528V122.893C894.611 122.986 894.325 123.061 893.945 123.118C893.573 123.183 893.236 123.215 892.936 123.215C890.658 123.215 889.52 122.015 889.52 119.616V112.612H887.833V111.753L889.52 111.012L890.271 108.498H891.303V111.227H894.719V112.612H891.303V119.541C891.303 120.25 891.471 120.794 891.808 121.174C892.144 121.553 892.606 121.743 893.193 121.743ZM902.392 123.215C900.651 123.215 899.276 122.685 898.267 121.625C897.264 120.565 896.763 119.093 896.763 117.21C896.763 115.312 897.228 113.805 898.159 112.688C899.097 111.57 900.354 111.012 901.93 111.012C903.405 111.012 904.572 111.499 905.432 112.473C906.291 113.439 906.721 114.718 906.721 116.308V117.436H898.61C898.646 118.818 898.993 119.867 899.652 120.583C900.318 121.299 901.253 121.657 902.456 121.657C903.724 121.657 904.977 121.392 906.216 120.862V122.452C905.586 122.724 904.988 122.918 904.422 123.032C903.863 123.154 903.187 123.215 902.392 123.215ZM901.908 112.505C900.963 112.505 900.207 112.813 899.642 113.429C899.083 114.045 898.754 114.897 898.653 115.985H904.809C904.809 114.861 904.558 114.002 904.057 113.407C903.555 112.806 902.839 112.505 901.908 112.505ZM912.857 116.974L908.765 111.227H910.795L913.899 115.738L916.993 111.227H919.002L914.909 116.974L919.217 123H917.197L913.899 118.23L910.569 123H908.55L912.857 116.974ZM925.611 121.743C925.926 121.743 926.231 121.722 926.524 121.679C926.818 121.629 927.051 121.578 927.223 121.528V122.893C927.029 122.986 926.743 123.061 926.363 123.118C925.991 123.183 925.654 123.215 925.354 123.215C923.076 123.215 921.938 122.015 921.938 119.616V112.612H920.251V111.753L921.938 111.012L922.689 108.498H923.721V111.227H927.137V112.612H923.721V119.541C923.721 120.25 923.889 120.794 924.226 121.174C924.562 121.553 925.024 121.743 925.611 121.743Z" fill="#252A2E"/>
</g>
</g>
<defs>
<clipPath id="clip0_4850_76535">
<rect width="134" height="38" fill="white" transform="translate(51.5 98)"/>
</clipPath>
<clipPath id="clip1_4850_76535">
<rect width="142" height="40" fill="white" transform="translate(222.5 94)"/>
</clipPath>
<clipPath id="clip2_4850_76535">
<rect width="129" height="32" fill="white" transform="translate(406.5 98)"/>
</clipPath>
<clipPath id="clip3_4850_76535">
<rect width="93" height="32" fill="white" transform="translate(577.5 98)"/>
</clipPath>
<clipPath id="clip4_4850_76535">
<rect width="93" height="39" fill="white" transform="translate(712.5 94.5)"/>
</clipPath>
<clipPath id="clip5_4850_76535">
<rect width="81" height="32" fill="white" transform="translate(847.5 98)"/>
</clipPath>
</defs>
</svg>
