<svg width="982" height="143" viewBox="0 0 982 143" fill="none" xmlns="http://www.w3.org/2000/svg">
<rect width="981" height="142.333" transform="translate(0.5 0.666748)" fill="#C4C4C4"/>
<rect width="489" height="40" transform="translate(1.5 1.66675)" fill="#F1F1F6"/>
<path d="M12.7578 26.6667V16.6726H14.877V24.9167H18.9307V26.6667H12.7578ZM25.2793 26.6667L24.876 25.6277H24.8213C24.4704 26.0697 24.1081 26.3774 23.7344 26.5505C23.3652 26.7192 22.8821 26.8035 22.2851 26.8035C21.5514 26.8035 20.9726 26.5938 20.5488 26.1746C20.1295 25.7553 19.9199 25.1583 19.9199 24.3835C19.9199 23.5723 20.2025 22.9753 20.7676 22.5925C21.3372 22.2052 22.194 21.991 23.3379 21.95L24.664 21.9089V21.574C24.664 20.7992 24.2676 20.4119 23.4746 20.4119C22.8639 20.4119 22.1461 20.5964 21.3213 20.9656L20.6308 19.5574C21.5104 19.0971 22.4857 18.8669 23.5566 18.8669C24.582 18.8669 25.3681 19.0903 25.915 19.5369C26.4619 19.9835 26.7353 20.6625 26.7353 21.574V26.6667H25.2793ZM24.664 23.1257L23.8574 23.1531C23.2513 23.1713 22.8001 23.2807 22.5039 23.4812C22.2077 23.6817 22.0596 23.9871 22.0596 24.3972C22.0596 24.9851 22.3968 25.2791 23.0713 25.2791C23.5543 25.2791 23.9394 25.1401 24.2265 24.8621C24.5182 24.5841 24.664 24.2149 24.664 23.7546V23.1257ZM33.0566 18.8806C33.959 18.8806 34.6653 19.2338 35.1758 19.9402C35.6862 20.642 35.9414 21.6059 35.9414 22.8318C35.9414 24.0942 35.6771 25.0717 35.1484 25.7644C34.6243 26.4571 33.9088 26.8035 33.0019 26.8035C32.1041 26.8035 31.4 26.4776 30.8896 25.8259H30.7461L30.3974 26.6667H28.8047V16.03H30.8896V18.5046C30.8896 18.8191 30.8623 19.3227 30.8076 20.0154H30.8896C31.3772 19.2589 32.0996 18.8806 33.0566 18.8806ZM32.3867 20.5486C31.8717 20.5486 31.4957 20.7081 31.2588 21.0271C31.0218 21.3416 30.8987 21.8634 30.8896 22.5925V22.8181C30.8896 23.6384 31.0104 24.2263 31.2519 24.5818C31.498 24.9373 31.8854 25.115 32.414 25.115C32.8424 25.115 33.1819 24.919 33.4326 24.5271C33.6878 24.1306 33.8154 23.5564 33.8154 22.8044C33.8154 22.0525 33.6878 21.4897 33.4326 21.116C33.1774 20.7377 32.8287 20.5486 32.3867 20.5486ZM40.7451 20.364C40.303 20.364 39.9567 20.5053 39.706 20.7878C39.4554 21.0658 39.3118 21.4623 39.2753 21.9773H42.2011C42.192 21.4623 42.0576 21.0658 41.7978 20.7878C41.538 20.5053 41.1871 20.364 40.7451 20.364ZM41.039 26.8035C39.8085 26.8035 38.847 26.4639 38.1542 25.7849C37.4615 25.1059 37.1152 24.1443 37.1152 22.9001C37.1152 21.6195 37.4342 20.6306 38.0722 19.9333C38.7148 19.2315 39.6012 18.8806 40.7314 18.8806C41.8115 18.8806 42.6523 19.1882 43.2539 19.8035C43.8554 20.4187 44.1562 21.2686 44.1562 22.3533V23.365H39.2275C39.2503 23.9574 39.4257 24.42 39.7539 24.7527C40.082 25.0854 40.5423 25.2517 41.1347 25.2517C41.595 25.2517 42.0302 25.2039 42.4404 25.1082C42.8505 25.0125 43.2789 24.8598 43.7255 24.6501V26.2634C43.361 26.4457 42.9713 26.5802 42.5566 26.6667C42.1419 26.7579 41.636 26.8035 41.039 26.8035ZM47.8525 26.6667H45.7675V16.03H47.8525V26.6667ZM55.7987 21.1091H56.4823C57.1522 21.1091 57.6467 20.9975 57.9657 20.7742C58.2847 20.5509 58.4442 20.2 58.4442 19.7214C58.4442 19.2475 58.2802 18.9102 57.9521 18.7097C57.6285 18.5092 57.1249 18.4089 56.4413 18.4089H55.7987V21.1091ZM55.7987 22.8318V26.6667H53.6796V16.6726H56.5917C57.9498 16.6726 58.9547 16.921 59.6063 17.4177C60.258 17.9099 60.5839 18.6596 60.5839 19.6667C60.5839 20.2546 60.4221 20.7787 60.0985 21.239C59.775 21.6947 59.317 22.0525 58.7245 22.3123C60.2284 24.559 61.2082 26.0105 61.664 26.6667H59.3124L56.9267 22.8318H55.7987ZM62.5849 17.0486C62.5849 16.3695 62.9631 16.03 63.7196 16.03C64.4761 16.03 64.8544 16.3695 64.8544 17.0486C64.8544 17.3722 64.7587 17.6251 64.5673 17.8074C64.3804 17.9851 64.0979 18.074 63.7196 18.074C62.9631 18.074 62.5849 17.7322 62.5849 17.0486ZM64.7587 26.6667H62.6737V19.0242H64.7587V26.6667ZM73.5204 19.0242V20.0837L72.3241 20.3914C72.5428 20.7332 72.6522 21.116 72.6522 21.5398C72.6522 22.3601 72.3651 23.0004 71.7909 23.4607C71.2212 23.9164 70.4283 24.1443 69.412 24.1443L69.036 24.1238L68.7284 24.0896C68.5142 24.2537 68.4071 24.436 68.4071 24.6365C68.4071 24.9373 68.7899 25.0876 69.5555 25.0876H70.8544C71.6929 25.0876 72.3309 25.2677 72.7684 25.6277C73.2105 25.9877 73.4315 26.5164 73.4315 27.2136C73.4315 28.1069 73.0578 28.7996 72.3104 29.2917C71.5676 29.7839 70.4989 30.03 69.1044 30.03C68.038 30.03 67.2222 29.8432 66.6571 29.4695C66.0966 29.1003 65.8163 28.5808 65.8163 27.9109C65.8163 27.4506 65.9598 27.0655 66.2469 26.7556C66.5341 26.4457 66.9556 26.2247 67.5116 26.0925C67.2974 26.0014 67.1106 25.8533 66.951 25.6482C66.7915 25.4386 66.7118 25.2175 66.7118 24.9851C66.7118 24.6934 66.7961 24.4519 66.9647 24.2605C67.1333 24.0645 67.3772 23.8731 67.6962 23.6863C67.2951 23.5131 66.9761 23.2351 66.7391 22.8523C66.5067 22.4695 66.3905 22.0183 66.3905 21.4988C66.3905 20.6648 66.6617 20.0199 67.204 19.5642C67.7463 19.1085 68.521 18.8806 69.5282 18.8806C69.7424 18.8806 69.9953 18.9011 70.287 18.9421C70.5832 18.9786 70.7723 19.0059 70.8544 19.0242H73.5204ZM67.621 27.7468C67.621 28.0339 67.7577 28.2595 68.0311 28.4236C68.3091 28.5876 68.6965 28.6697 69.1932 28.6697C69.9406 28.6697 70.5262 28.5671 70.9501 28.3621C71.3739 28.157 71.5858 27.8767 71.5858 27.5212C71.5858 27.2341 71.4605 27.0359 71.2098 26.9265C70.9592 26.8171 70.5718 26.7625 70.0477 26.7625H68.9676C68.5848 26.7625 68.2635 26.8513 68.0038 27.0291C67.7486 27.2113 67.621 27.4506 67.621 27.7468ZM68.3798 21.5261C68.3798 21.9408 68.4732 22.269 68.66 22.5105C68.8514 22.752 69.1408 22.8728 69.5282 22.8728C69.9201 22.8728 70.2072 22.752 70.3895 22.5105C70.5718 22.269 70.663 21.9408 70.663 21.5261C70.663 20.6056 70.2847 20.1453 69.5282 20.1453C68.7626 20.1453 68.3798 20.6056 68.3798 21.5261ZM81.7557 26.6667H79.6708V22.2029C79.6708 21.1 79.2606 20.5486 78.4403 20.5486C77.857 20.5486 77.4354 20.7468 77.1756 21.1433C76.9159 21.5398 76.786 22.1824 76.786 23.071V26.6667H74.701V16.03H76.786V18.197C76.786 18.3656 76.77 18.7621 76.7381 19.3865L76.6903 20.0017H76.7997C77.2645 19.2543 78.0028 18.8806 79.0145 18.8806C79.9123 18.8806 80.5936 19.1222 81.0585 19.6052C81.5233 20.0883 81.7557 20.781 81.7557 21.6833V26.6667ZM87.0379 25.1423C87.4025 25.1423 87.84 25.0626 88.3504 24.9031V26.4548C87.8309 26.6873 87.1929 26.8035 86.4364 26.8035C85.6024 26.8035 84.994 26.5938 84.6112 26.1746C84.2329 25.7507 84.0438 25.1173 84.0438 24.2742V20.5896H83.0457V19.7078L84.1942 19.0105L84.7957 17.3972H86.1288V19.0242H88.2684V20.5896H86.1288V24.2742C86.1288 24.5704 86.2108 24.7891 86.3748 24.9304C86.5435 25.0717 86.7645 25.1423 87.0379 25.1423Z" fill="#464B52"/>
<rect width="489" height="99.3333" transform="translate(1.5 42.6667)" fill="white"/>
<g clip-path="url(#clip0_4933_78661)">
<path d="M186.521 100.155C186.521 101.537 186.02 102.615 185.018 103.388C184.015 104.162 182.654 104.548 180.936 104.548C179.074 104.548 177.641 104.308 176.639 103.829V102.067C177.283 102.339 177.985 102.554 178.744 102.711C179.503 102.869 180.255 102.948 181 102.948C182.217 102.948 183.134 102.719 183.75 102.26C184.366 101.795 184.674 101.15 184.674 100.327C184.674 99.7823 184.563 99.3383 184.341 98.9946C184.126 98.6437 183.761 98.3214 183.245 98.0278C182.737 97.7342 181.96 97.4011 180.914 97.0287C179.453 96.506 178.408 95.8865 177.777 95.1703C177.154 94.4542 176.843 93.5196 176.843 92.3666C176.843 91.1564 177.298 90.1931 178.207 89.477C179.117 88.7608 180.32 88.4028 181.816 88.4028C183.378 88.4028 184.813 88.6892 186.124 89.2621L185.555 90.852C184.258 90.3077 182.998 90.0356 181.773 90.0356C180.807 90.0356 180.051 90.2433 179.507 90.6586C178.963 91.074 178.69 91.6505 178.69 92.3881C178.69 92.9324 178.791 93.38 178.991 93.7309C179.192 94.0746 179.528 94.3933 180.001 94.687C180.481 94.9734 181.211 95.2921 182.192 95.643C183.84 96.2302 184.971 96.8605 185.587 97.5336C186.21 98.2068 186.521 99.0805 186.521 100.155ZM194.688 104.548C192.948 104.548 191.573 104.018 190.563 102.958C189.561 101.899 189.06 100.427 189.06 98.5434C189.06 96.6456 189.525 95.1381 190.456 94.0209C191.394 92.9037 192.651 92.3452 194.227 92.3452C195.702 92.3452 196.869 92.8321 197.729 93.8061C198.588 94.7729 199.018 96.0512 199.018 97.6411V98.769H190.907C190.943 100.151 191.29 101.2 191.949 101.916C192.615 102.633 193.55 102.991 194.753 102.991C196.021 102.991 197.274 102.726 198.513 102.196V103.786C197.882 104.058 197.285 104.251 196.719 104.366C196.16 104.487 195.483 104.548 194.688 104.548ZM194.205 93.8383C193.26 93.8383 192.504 94.1463 191.938 94.7621C191.38 95.378 191.05 96.2302 190.95 97.3188H197.105C197.105 96.1944 196.855 95.3351 196.354 94.7407C195.852 94.1391 195.136 93.8383 194.205 93.8383ZM204.102 104.333H202.318V87.6186H204.102V104.333ZM213.106 104.548C211.366 104.548 209.991 104.018 208.981 102.958C207.979 101.899 207.478 100.427 207.478 98.5434C207.478 96.6456 207.943 95.1381 208.874 94.0209C209.812 92.9037 211.069 92.3452 212.645 92.3452C214.12 92.3452 215.287 92.8321 216.146 93.8061C217.006 94.7729 217.436 96.0512 217.436 97.6411V98.769H209.325C209.361 100.151 209.708 101.2 210.367 101.916C211.033 102.633 211.968 102.991 213.171 102.991C214.438 102.991 215.692 102.726 216.931 102.196V103.786C216.3 104.058 215.702 104.251 215.137 104.366C214.578 104.487 213.901 104.548 213.106 104.548ZM212.623 93.8383C211.678 93.8383 210.922 94.1463 210.356 94.7621C209.798 95.378 209.468 96.2302 209.368 97.3188H215.523C215.523 96.1944 215.273 95.3351 214.771 94.7407C214.27 94.1391 213.554 93.8383 212.623 93.8383ZM225.441 104.548C223.737 104.548 222.416 104.025 221.478 102.98C220.547 101.927 220.081 100.441 220.081 98.5219C220.081 96.5525 220.554 95.0307 221.499 93.9565C222.451 92.8823 223.805 92.3452 225.56 92.3452C226.125 92.3452 226.691 92.406 227.257 92.5278C227.823 92.6495 228.267 92.7927 228.589 92.9575L228.041 94.4721C227.647 94.3146 227.217 94.1856 226.752 94.0854C226.286 93.978 225.875 93.9243 225.517 93.9243C223.125 93.9243 221.929 95.4496 221.929 98.5004C221.929 99.947 222.219 101.057 222.799 101.831C223.386 102.604 224.253 102.991 225.398 102.991C226.38 102.991 227.386 102.779 228.417 102.357V103.936C227.629 104.344 226.637 104.548 225.441 104.548ZM235.273 103.077C235.589 103.077 235.893 103.055 236.187 103.012C236.48 102.962 236.713 102.912 236.885 102.862V104.226C236.691 104.319 236.405 104.394 236.025 104.452C235.653 104.516 235.316 104.548 235.016 104.548C232.738 104.548 231.6 103.349 231.6 100.95V93.9457H229.913V93.0864L231.6 92.3452L232.352 89.8315H233.383V92.56H236.799V93.9457H233.383V100.874C233.383 101.583 233.551 102.128 233.888 102.507C234.224 102.887 234.686 103.077 235.273 103.077ZM244.472 104.548C242.731 104.548 241.356 104.018 240.347 102.958C239.344 101.899 238.843 100.427 238.843 98.5434C238.843 96.6456 239.308 95.1381 240.239 94.0209C241.177 92.9037 242.434 92.3452 244.01 92.3452C245.485 92.3452 246.652 92.8321 247.512 93.8061C248.371 94.7729 248.801 96.0512 248.801 97.6411V98.769H240.69C240.726 100.151 241.074 101.2 241.732 101.916C242.398 102.633 243.333 102.991 244.536 102.991C245.804 102.991 247.057 102.726 248.296 102.196V103.786C247.666 104.058 247.068 104.251 246.502 104.366C245.943 104.487 245.267 104.548 244.472 104.548ZM243.988 93.8383C243.043 93.8383 242.287 94.1463 241.722 94.7621C241.163 95.378 240.834 96.2302 240.733 97.3188H246.889C246.889 96.1944 246.638 95.3351 246.137 94.7407C245.635 94.1391 244.919 93.8383 243.988 93.8383ZM260.115 102.754H260.019C259.195 103.95 257.963 104.548 256.323 104.548C254.784 104.548 253.584 104.022 252.725 102.969C251.872 101.916 251.446 100.42 251.446 98.4789C251.446 96.5382 251.876 95.0307 252.735 93.9565C253.595 92.8823 254.791 92.3452 256.323 92.3452C257.92 92.3452 259.145 92.9252 259.997 94.0854H260.137L260.062 93.2368L260.019 92.4096V87.6186H261.802V104.333H260.352L260.115 102.754ZM256.549 103.055C257.766 103.055 258.647 102.726 259.191 102.067C259.743 101.401 260.019 100.33 260.019 98.8549V98.4789C260.019 96.8103 259.739 95.6215 259.181 94.9125C258.629 94.1964 257.745 93.8383 256.527 93.8383C255.482 93.8383 254.68 94.2465 254.121 95.0629C253.57 95.8722 253.294 97.018 253.294 98.5004C253.294 100.004 253.57 101.139 254.121 101.906C254.673 102.672 255.482 103.055 256.549 103.055Z" fill="#252A2E"/>
<path fill-rule="evenodd" clip-rule="evenodd" d="M293.667 83.3334H312.333C313.813 83.3334 315 84.5334 315 86.0001V104.667C315 106.133 313.813 107.333 312.333 107.333H293.667C292.187 107.333 291 106.133 291 104.667V86.0001C291 84.5334 292.187 83.3334 293.667 83.3334ZM293.667 95.3334L300.333 102L312.333 90.0001L310.453 88.1068L300.333 98.2268L295.547 93.4534L293.667 95.3334Z" fill="#217CBB"/>
<path fill-rule="evenodd" clip-rule="evenodd" d="M293.667 95.3334L300.333 102L312.333 90.0001L310.453 88.1068L300.333 98.2268L295.547 93.4534L293.667 95.3334Z" fill="white"/>
</g>
<rect width="489" height="40" transform="translate(491.5 1.66675)" fill="#F1F1F6"/>
<path d="M502.758 26.6667V16.6726H504.877V24.9167H508.931V26.6667H502.758ZM515.279 26.6667L514.876 25.6277H514.821C514.47 26.0697 514.108 26.3774 513.734 26.5505C513.365 26.7192 512.882 26.8035 512.285 26.8035C511.551 26.8035 510.973 26.5938 510.549 26.1746C510.13 25.7553 509.92 25.1583 509.92 24.3835C509.92 23.5723 510.202 22.9753 510.768 22.5925C511.337 22.2052 512.194 21.991 513.338 21.95L514.664 21.9089V21.574C514.664 20.7992 514.268 20.4119 513.475 20.4119C512.864 20.4119 512.146 20.5964 511.321 20.9656L510.631 19.5574C511.51 19.0971 512.486 18.8669 513.557 18.8669C514.582 18.8669 515.368 19.0903 515.915 19.5369C516.462 19.9835 516.735 20.6625 516.735 21.574V26.6667H515.279ZM514.664 23.1257L513.857 23.1531C513.251 23.1713 512.8 23.2807 512.504 23.4812C512.208 23.6817 512.06 23.9871 512.06 24.3972C512.06 24.9851 512.397 25.2791 513.071 25.2791C513.554 25.2791 513.939 25.1401 514.227 24.8621C514.518 24.5841 514.664 24.2149 514.664 23.7546V23.1257ZM523.057 18.8806C523.959 18.8806 524.665 19.2338 525.176 19.9402C525.686 20.642 525.941 21.6059 525.941 22.8318C525.941 24.0942 525.677 25.0717 525.148 25.7644C524.624 26.4571 523.909 26.8035 523.002 26.8035C522.104 26.8035 521.4 26.4776 520.89 25.8259H520.746L520.397 26.6667H518.805V16.03H520.89V18.5046C520.89 18.8191 520.862 19.3227 520.808 20.0154H520.89C521.377 19.2589 522.1 18.8806 523.057 18.8806ZM522.387 20.5486C521.872 20.5486 521.496 20.7081 521.259 21.0271C521.022 21.3416 520.899 21.8634 520.89 22.5925V22.8181C520.89 23.6384 521.01 24.2263 521.252 24.5818C521.498 24.9373 521.885 25.115 522.414 25.115C522.842 25.115 523.182 24.919 523.433 24.5271C523.688 24.1306 523.815 23.5564 523.815 22.8044C523.815 22.0525 523.688 21.4897 523.433 21.116C523.177 20.7377 522.829 20.5486 522.387 20.5486ZM530.745 20.364C530.303 20.364 529.957 20.5053 529.706 20.7878C529.455 21.0658 529.312 21.4623 529.275 21.9773H532.201C532.192 21.4623 532.058 21.0658 531.798 20.7878C531.538 20.5053 531.187 20.364 530.745 20.364ZM531.039 26.8035C529.809 26.8035 528.847 26.4639 528.154 25.7849C527.462 25.1059 527.115 24.1443 527.115 22.9001C527.115 21.6195 527.434 20.6306 528.072 19.9333C528.715 19.2315 529.601 18.8806 530.731 18.8806C531.811 18.8806 532.652 19.1882 533.254 19.8035C533.855 20.4187 534.156 21.2686 534.156 22.3533V23.365H529.227C529.25 23.9574 529.426 24.42 529.754 24.7527C530.082 25.0854 530.542 25.2517 531.135 25.2517C531.595 25.2517 532.03 25.2039 532.44 25.1082C532.851 25.0125 533.279 24.8598 533.726 24.6501V26.2634C533.361 26.4457 532.971 26.5802 532.557 26.6667C532.142 26.7579 531.636 26.8035 531.039 26.8035ZM537.852 26.6667H535.768V16.03H537.852V26.6667ZM543.68 26.6667V16.6726H545.799V24.9167H549.852V26.6667H543.68ZM554.513 20.364C554.071 20.364 553.724 20.5053 553.474 20.7878C553.223 21.0658 553.079 21.4623 553.043 21.9773H555.969C555.96 21.4623 555.825 21.0658 555.565 20.7878C555.306 20.5053 554.955 20.364 554.513 20.364ZM554.807 26.8035C553.576 26.8035 552.614 26.4639 551.922 25.7849C551.229 25.1059 550.883 24.1443 550.883 22.9001C550.883 21.6195 551.202 20.6306 551.84 19.9333C552.482 19.2315 553.369 18.8806 554.499 18.8806C555.579 18.8806 556.42 19.1882 557.021 19.8035C557.623 20.4187 557.924 21.2686 557.924 22.3533V23.365H552.995C553.018 23.9574 553.193 24.42 553.521 24.7527C553.849 25.0854 554.31 25.2517 554.902 25.2517C555.363 25.2517 555.798 25.2039 556.208 25.1082C556.618 25.0125 557.046 24.8598 557.493 24.6501V26.2634C557.128 26.4457 556.739 26.5802 556.324 26.6667C555.909 26.7579 555.404 26.8035 554.807 26.8035ZM563.76 20.5896H561.955V26.6667H559.87V20.5896H558.722V19.5847L559.87 19.0242V18.4636C559.87 17.5932 560.084 16.9574 560.513 16.5564C560.941 16.1554 561.627 15.9548 562.57 15.9548C563.29 15.9548 563.931 16.0619 564.491 16.2761L563.958 17.8074C563.539 17.6752 563.151 17.6091 562.796 17.6091C562.5 17.6091 562.285 17.698 562.153 17.8757C562.021 18.0489 561.955 18.2722 561.955 18.5457V19.0242H563.76V20.5896ZM568.098 25.1423C568.463 25.1423 568.901 25.0626 569.411 24.9031V26.4548C568.891 26.6873 568.253 26.8035 567.497 26.8035C566.663 26.8035 566.055 26.5938 565.672 26.1746C565.293 25.7507 565.104 25.1173 565.104 24.2742V20.5896H564.106V19.7078L565.255 19.0105L565.856 17.3972H567.189V19.0242H569.329V20.5896H567.189V24.2742C567.189 24.5704 567.271 24.7891 567.435 24.9304C567.604 25.0717 567.825 25.1423 568.098 25.1423Z" fill="#464B52"/>
<rect width="489" height="99.3333" transform="translate(491.5 42.6667)" fill="white"/>
<g clip-path="url(#clip1_4933_78661)">
<path fill-rule="evenodd" clip-rule="evenodd" d="M680.667 83.3334H699.333C700.813 83.3334 702 84.5334 702 86.0001V104.667C702 106.133 700.813 107.333 699.333 107.333H680.667C679.187 107.333 678 106.133 678 104.667V86.0001C678 84.5334 679.187 83.3334 680.667 83.3334ZM680.667 95.3334L687.333 102L699.333 90.0001L697.453 88.1068L687.333 98.2268L682.547 93.4534L680.667 95.3334Z" fill="#217CBB"/>
<path fill-rule="evenodd" clip-rule="evenodd" d="M680.667 95.3334L687.333 102L699.333 90.0001L697.453 88.1068L687.333 98.2268L682.547 93.4534L680.667 95.3334Z" fill="white"/>
<path d="M727.521 100.155C727.521 101.537 727.02 102.615 726.018 103.388C725.015 104.162 723.654 104.548 721.936 104.548C720.074 104.548 718.641 104.308 717.639 103.829V102.067C718.283 102.339 718.985 102.554 719.744 102.711C720.503 102.869 721.255 102.948 722 102.948C723.217 102.948 724.134 102.719 724.75 102.26C725.366 101.795 725.674 101.15 725.674 100.327C725.674 99.7823 725.563 99.3383 725.341 98.9946C725.126 98.6437 724.761 98.3214 724.245 98.0278C723.737 97.7342 722.96 97.4011 721.914 97.0287C720.453 96.506 719.408 95.8865 718.777 95.1703C718.154 94.4542 717.843 93.5196 717.843 92.3666C717.843 91.1564 718.298 90.1931 719.207 89.477C720.117 88.7608 721.32 88.4028 722.816 88.4028C724.378 88.4028 725.813 88.6892 727.124 89.2621L726.555 90.852C725.258 90.3077 723.998 90.0356 722.773 90.0356C721.807 90.0356 721.051 90.2433 720.507 90.6586C719.963 91.074 719.69 91.6505 719.69 92.3881C719.69 92.9324 719.791 93.38 719.991 93.7309C720.192 94.0746 720.528 94.3933 721.001 94.687C721.481 94.9734 722.211 95.2921 723.192 95.643C724.84 96.2302 725.971 96.8605 726.587 97.5336C727.21 98.2068 727.521 99.0805 727.521 100.155ZM735.688 104.548C733.948 104.548 732.573 104.018 731.563 102.958C730.561 101.899 730.06 100.427 730.06 98.5434C730.06 96.6456 730.525 95.1381 731.456 94.0209C732.394 92.9037 733.651 92.3452 735.227 92.3452C736.702 92.3452 737.869 92.8321 738.729 93.8061C739.588 94.7729 740.018 96.0512 740.018 97.6411V98.769H731.907C731.943 100.151 732.29 101.2 732.949 101.916C733.615 102.633 734.55 102.991 735.753 102.991C737.021 102.991 738.274 102.726 739.513 102.196V103.786C738.882 104.058 738.285 104.251 737.719 104.366C737.16 104.487 736.483 104.548 735.688 104.548ZM735.205 93.8383C734.26 93.8383 733.504 94.1463 732.938 94.7621C732.38 95.378 732.05 96.2302 731.95 97.3188H738.105C738.105 96.1944 737.855 95.3351 737.354 94.7407C736.852 94.1391 736.136 93.8383 735.205 93.8383ZM745.102 104.333H743.318V87.6186H745.102V104.333ZM754.106 104.548C752.366 104.548 750.991 104.018 749.981 102.958C748.979 101.899 748.478 100.427 748.478 98.5434C748.478 96.6456 748.943 95.1381 749.874 94.0209C750.812 92.9037 752.069 92.3452 753.645 92.3452C755.12 92.3452 756.287 92.8321 757.146 93.8061C758.006 94.7729 758.436 96.0512 758.436 97.6411V98.769H750.325C750.361 100.151 750.708 101.2 751.367 101.916C752.033 102.633 752.968 102.991 754.171 102.991C755.438 102.991 756.692 102.726 757.931 102.196V103.786C757.3 104.058 756.702 104.251 756.137 104.366C755.578 104.487 754.901 104.548 754.106 104.548ZM753.623 93.8383C752.678 93.8383 751.922 94.1463 751.356 94.7621C750.798 95.378 750.468 96.2302 750.368 97.3188H756.523C756.523 96.1944 756.273 95.3351 755.771 94.7407C755.27 94.1391 754.554 93.8383 753.623 93.8383ZM766.441 104.548C764.737 104.548 763.416 104.025 762.478 102.98C761.547 101.927 761.081 100.441 761.081 98.5219C761.081 96.5525 761.554 95.0307 762.499 93.9565C763.451 92.8823 764.805 92.3452 766.56 92.3452C767.125 92.3452 767.691 92.406 768.257 92.5278C768.823 92.6495 769.267 92.7927 769.589 92.9575L769.041 94.4721C768.647 94.3146 768.217 94.1856 767.752 94.0854C767.286 93.978 766.875 93.9243 766.517 93.9243C764.125 93.9243 762.929 95.4496 762.929 98.5004C762.929 99.947 763.219 101.057 763.799 101.831C764.386 102.604 765.253 102.991 766.398 102.991C767.38 102.991 768.386 102.779 769.417 102.357V103.936C768.629 104.344 767.637 104.548 766.441 104.548ZM776.273 103.077C776.589 103.077 776.893 103.055 777.187 103.012C777.48 102.962 777.713 102.912 777.885 102.862V104.226C777.691 104.319 777.405 104.394 777.025 104.452C776.653 104.516 776.316 104.548 776.016 104.548C773.738 104.548 772.6 103.349 772.6 100.95V93.9457H770.913V93.0864L772.6 92.3452L773.352 89.8315H774.383V92.56H777.799V93.9457H774.383V100.874C774.383 101.583 774.551 102.128 774.888 102.507C775.224 102.887 775.686 103.077 776.273 103.077ZM785.472 104.548C783.731 104.548 782.356 104.018 781.347 102.958C780.344 101.899 779.843 100.427 779.843 98.5434C779.843 96.6456 780.308 95.1381 781.239 94.0209C782.177 92.9037 783.434 92.3452 785.01 92.3452C786.485 92.3452 787.652 92.8321 788.512 93.8061C789.371 94.7729 789.801 96.0512 789.801 97.6411V98.769H781.69C781.726 100.151 782.074 101.2 782.732 101.916C783.398 102.633 784.333 102.991 785.536 102.991C786.804 102.991 788.057 102.726 789.296 102.196V103.786C788.666 104.058 788.068 104.251 787.502 104.366C786.943 104.487 786.267 104.548 785.472 104.548ZM784.988 93.8383C784.043 93.8383 783.287 94.1463 782.722 94.7621C782.163 95.378 781.834 96.2302 781.733 97.3188H787.889C787.889 96.1944 787.638 95.3351 787.137 94.7407C786.635 94.1391 785.919 93.8383 784.988 93.8383ZM801.115 102.754H801.019C800.195 103.95 798.963 104.548 797.323 104.548C795.784 104.548 794.584 104.022 793.725 102.969C792.872 101.916 792.446 100.42 792.446 98.4789C792.446 96.5382 792.876 95.0307 793.735 93.9565C794.595 92.8823 795.791 92.3452 797.323 92.3452C798.92 92.3452 800.145 92.9252 800.997 94.0854H801.137L801.062 93.2368L801.019 92.4096V87.6186H802.802V104.333H801.352L801.115 102.754ZM797.549 103.055C798.766 103.055 799.647 102.726 800.191 102.067C800.743 101.401 801.019 100.33 801.019 98.8549V98.4789C801.019 96.8103 800.739 95.6215 800.181 94.9125C799.629 94.1964 798.745 93.8383 797.527 93.8383C796.482 93.8383 795.68 94.2465 795.121 95.0629C794.57 95.8722 794.294 97.018 794.294 98.5004C794.294 100.004 794.57 101.139 795.121 101.906C795.673 102.672 796.482 103.055 797.549 103.055Z" fill="#252A2E"/>
</g>
<defs>
<clipPath id="clip0_4933_78661">
<rect width="146" height="38" fill="white" transform="translate(175.5 76.3334)"/>
</clipPath>
<clipPath id="clip1_4933_78661">
<rect width="134" height="38" fill="white" transform="translate(671.5 76.3334)"/>
</clipPath>
</defs>
</svg>
