<svg width="1088" height="388" viewBox="0 0 1088 388" fill="none" xmlns="http://www.w3.org/2000/svg">
<rect width="1087" height="388" transform="translate(0.5)" fill="#F1F1F6"/>
<g clip-path="url(#clip0_4930_81308)">
<rect x="256.75" y="31.4683" width="574.5" height="325.064" fill="#F1F1F6"/>
<g clip-path="url(#clip1_4930_81308)">
<rect width="574.5" height="37.0644" transform="translate(256.75 31.4683)" fill="white"/>
<rect x="256.75" y="31.4683" width="574.5" height="37.0644" fill="#0E416C"/>
<g clip-path="url(#clip2_4930_81308)">
<path d="M269.354 54.4486H281.296V53.1218H269.354V54.4486ZM269.354 51.1316H281.296V49.8049H269.354V51.1316ZM269.354 46.4879V47.8147H281.296V46.4879H269.354Z" fill="white"/>
</g>
<path d="M300.812 44.76C300.539 44.76 300.28 44.8142 300.044 44.912C299.808 45.0099 299.537 44.8979 299.439 44.6618C299.341 44.4256 299.453 44.1548 299.689 44.0569C300.036 43.9133 300.415 43.8343 300.812 43.8343H301.737C301.993 43.8343 302.2 44.0415 302.2 44.2972C302.2 44.5528 301.993 44.76 301.737 44.76H300.812Z" fill="white"/>
<path d="M303.126 44.2972C303.126 44.0415 303.333 43.8343 303.589 43.8343H305.44C305.696 43.8343 305.903 44.0415 305.903 44.2972C305.903 44.5528 305.696 44.76 305.44 44.76H303.589C303.333 44.76 303.126 44.5528 303.126 44.2972Z" fill="white"/>
<path d="M306.828 44.2972C306.828 44.0415 307.036 43.8343 307.291 43.8343H308.217C308.614 43.8343 308.993 43.9133 309.339 44.0569C309.575 44.1548 309.687 44.4256 309.589 44.6618C309.491 44.8979 309.221 45.0099 308.985 44.912C308.749 44.8142 308.49 44.76 308.217 44.76H307.291C307.036 44.76 306.828 44.5528 306.828 44.2972Z" fill="white"/>
<path d="M298.708 45.3932C298.944 45.4911 299.056 45.7619 298.958 45.998C298.86 46.2338 298.806 46.4928 298.806 46.7656V47.6913C298.806 47.9469 298.599 48.1541 298.343 48.1541C298.088 48.1541 297.88 47.9469 297.88 47.6913V46.7656C297.88 46.369 297.959 45.9897 298.103 45.6434C298.201 45.4073 298.472 45.2953 298.708 45.3932Z" fill="white"/>
<path d="M310.321 45.3932C310.557 45.2953 310.828 45.4073 310.926 45.6434C311.069 45.9897 311.148 46.369 311.148 46.7656V47.6913C311.148 47.9469 310.941 48.1541 310.685 48.1541C310.43 48.1541 310.223 47.9469 310.223 47.6913V46.7656C310.223 46.4928 310.168 46.2338 310.071 45.998C309.973 45.7619 310.085 45.4911 310.321 45.3932Z" fill="white"/>
<path d="M298.343 49.0798C298.599 49.0798 298.806 49.287 298.806 49.5426V51.3939C298.806 51.6496 298.599 51.8568 298.343 51.8568C298.088 51.8568 297.88 51.6496 297.88 51.3939V49.5426C297.88 49.287 298.088 49.0798 298.343 49.0798Z" fill="white"/>
<path d="M310.685 49.0798C310.941 49.0798 311.148 49.287 311.148 49.5426V51.3939C311.148 51.6496 310.941 51.8568 310.685 51.8568C310.43 51.8568 310.223 51.6496 310.223 51.3939V49.5426C310.223 49.287 310.43 49.0798 310.685 49.0798Z" fill="white"/>
<path d="M298.343 52.7824C298.599 52.7824 298.806 52.9897 298.806 53.2453V54.1709C298.806 54.4437 298.86 54.7027 298.958 54.9385C299.056 55.1747 298.944 55.4454 298.708 55.5434C298.472 55.6413 298.201 55.5292 298.103 55.2931C297.959 54.9469 297.88 54.5675 297.88 54.1709V53.2453C297.88 52.9897 298.088 52.7824 298.343 52.7824Z" fill="white"/>
<path d="M310.685 52.7824C310.941 52.7824 311.148 52.9897 311.148 53.2453V54.1709C311.148 54.5675 311.069 54.9469 310.926 55.2931C310.828 55.5292 310.557 55.6413 310.321 55.5434C310.085 55.4454 309.973 55.1747 310.071 54.9385C310.168 54.7027 310.223 54.4437 310.223 54.1709V53.2453C310.223 52.9897 310.43 52.7824 310.685 52.7824Z" fill="white"/>
<path d="M299.439 56.2748C299.537 56.0387 299.808 55.9266 300.044 56.0245C300.28 56.1223 300.539 56.1766 300.812 56.1766H301.737C301.993 56.1766 302.2 56.3838 302.2 56.6394C302.2 56.895 301.993 57.1022 301.737 57.1022H300.812C300.415 57.1022 300.036 57.0232 299.689 56.8796C299.453 56.7817 299.341 56.5109 299.439 56.2748Z" fill="white"/>
<path d="M309.589 56.2748C309.687 56.5109 309.575 56.7817 309.339 56.8796C308.993 57.0232 308.614 57.1022 308.217 57.1022H307.291C307.036 57.1022 306.828 56.895 306.828 56.6394C306.828 56.3838 307.036 56.1766 307.291 56.1766H308.217C308.49 56.1766 308.749 56.1223 308.985 56.0245C309.221 55.9266 309.491 56.0387 309.589 56.2748Z" fill="white"/>
<path d="M303.126 56.6394C303.126 56.3838 303.333 56.1766 303.589 56.1766H305.44C305.696 56.1766 305.903 56.3838 305.903 56.6394C305.903 56.895 305.696 57.1022 305.44 57.1022H303.589C303.333 57.1022 303.126 56.895 303.126 56.6394Z" fill="white"/>
<path d="M309.778 45.8961C309.959 45.7153 309.959 45.4223 309.778 45.2415C309.598 45.0608 309.305 45.0608 309.124 45.2415L308.509 45.8563C308.328 46.0371 308.328 46.3301 308.509 46.5109C308.69 46.6916 308.983 46.6916 309.164 46.5109L309.778 45.8961Z" fill="white"/>
<path d="M307.934 47.7404C308.115 47.5597 308.115 47.2666 307.934 47.0859C307.753 46.9051 307.46 46.9051 307.28 47.0859L306.05 48.3154C305.869 48.4961 305.869 48.7892 306.05 48.9699C306.231 49.1507 306.524 49.1507 306.705 48.9699L307.934 47.7404Z" fill="white"/>
<path d="M305.475 50.1995C305.656 50.0187 305.656 49.7257 305.475 49.5449C305.294 49.3642 305.001 49.3642 304.821 49.5449L304.514 49.8512L304.208 49.5449C304.027 49.3642 303.734 49.3642 303.554 49.5449C303.373 49.7257 303.373 50.0187 303.554 50.1995L303.86 50.5057L303.591 50.7745C303.41 50.9552 303.41 51.2483 303.591 51.429C303.772 51.6098 304.065 51.6098 304.246 51.429L304.514 51.1602L304.783 51.429C304.964 51.6098 305.257 51.6098 305.438 51.429C305.618 51.2483 305.618 50.9552 305.438 50.7745L305.169 50.5057L305.475 50.1995Z" fill="white"/>
<path d="M303.016 52.6586C303.197 52.4778 303.197 52.1848 303.016 52.004C302.835 51.8233 302.542 51.8233 302.361 52.004L301.132 53.2336C300.951 53.4143 300.951 53.7074 301.132 53.8881C301.313 54.0689 301.606 54.0689 301.786 53.8881L303.016 52.6586Z" fill="white"/>
<path d="M300.557 55.1177C300.738 54.9369 300.738 54.6439 300.557 54.4631C300.376 54.2824 300.083 54.2824 299.902 54.4631L299.288 55.0779C299.107 55.2586 299.107 55.5517 299.288 55.7324C299.468 55.9132 299.761 55.9132 299.942 55.7324L300.557 55.1177Z" fill="white"/>
<path d="M309.087 55.7324C309.267 55.9132 309.56 55.9132 309.741 55.7324C309.922 55.5517 309.922 55.2586 309.741 55.0779L309.126 54.4631C308.946 54.2824 308.652 54.2824 308.472 54.4631C308.291 54.6439 308.291 54.9369 308.472 55.1177L309.087 55.7324Z" fill="white"/>
<path d="M307.242 53.8881C307.423 54.0689 307.716 54.0689 307.897 53.8881C308.077 53.7074 308.077 53.4143 307.897 53.2336L306.667 52.004C306.486 51.8233 306.193 51.8233 306.013 52.004C305.832 52.1848 305.832 52.4778 306.013 52.6586L307.242 53.8881Z" fill="white"/>
<path d="M302.324 48.9699C302.505 49.1507 302.798 49.1507 302.979 48.9699C303.159 48.7892 303.159 48.4961 302.979 48.3154L301.749 47.0859C301.568 46.9051 301.275 46.9051 301.094 47.0859C300.914 47.2666 300.914 47.5597 301.094 47.7404L302.324 48.9699Z" fill="white"/>
<path d="M299.865 46.5109C300.046 46.6916 300.339 46.6916 300.519 46.5109C300.7 46.3301 300.7 46.0371 300.519 45.8563L299.905 45.2415C299.724 45.0608 299.431 45.0608 299.25 45.2415C299.069 45.4223 299.069 45.7153 299.25 45.8961L299.865 46.5109Z" fill="white"/>
<path d="M302.698 47.3142C302.881 47.2585 303.077 47.2284 303.28 47.2284H303.743C303.999 47.2284 304.206 47.0212 304.206 46.7656C304.206 46.51 303.999 46.3028 303.743 46.3028H303.28C302.985 46.3028 302.699 46.3466 302.429 46.4283C302.184 46.5024 302.046 46.7608 302.12 47.0055C302.194 47.2501 302.453 47.3883 302.698 47.3142Z" fill="white"/>
<path d="M305.286 46.3028C305.03 46.3028 304.823 46.51 304.823 46.7656C304.823 47.0212 305.03 47.2284 305.286 47.2284H305.749C305.952 47.2284 306.147 47.2585 306.331 47.3142C306.576 47.3883 306.834 47.2501 306.908 47.0055C306.982 46.7608 306.844 46.5024 306.6 46.4283C306.33 46.3466 306.044 46.3028 305.749 46.3028H305.286Z" fill="white"/>
<path d="M301.36 48.6515C301.434 48.4068 301.296 48.1484 301.052 48.0743C300.807 48.0002 300.549 48.1384 300.474 48.383C300.393 48.6529 300.349 48.9388 300.349 49.234V49.6969C300.349 49.9525 300.556 50.1597 300.812 50.1597C301.067 50.1597 301.274 49.9525 301.274 49.6969V49.234C301.274 49.0307 301.305 48.8353 301.36 48.6515Z" fill="white"/>
<path d="M308.554 48.3831C308.48 48.1384 308.222 48.0002 307.977 48.0743C307.732 48.1484 307.594 48.4068 307.668 48.6515C307.724 48.8353 307.754 49.0307 307.754 49.234V49.6969C307.754 49.9525 307.961 50.1597 308.217 50.1597C308.473 50.1597 308.68 49.9525 308.68 49.6969V49.234C308.68 48.9388 308.636 48.6529 308.554 48.3831Z" fill="white"/>
<path d="M301.274 51.2397C301.274 50.984 301.067 50.7768 300.812 50.7768C300.556 50.7768 300.349 50.984 300.349 51.2397V51.7025C300.349 51.9977 300.393 52.2836 300.474 52.5535C300.549 52.7981 300.807 52.9364 301.052 52.8622C301.296 52.7881 301.434 52.5297 301.36 52.2851C301.305 52.1013 301.274 51.9058 301.274 51.7025V51.2397Z" fill="white"/>
<path d="M308.68 51.2397C308.68 50.984 308.473 50.7768 308.217 50.7768C307.961 50.7768 307.754 50.984 307.754 51.2397V51.7025C307.754 51.9058 307.724 52.1013 307.668 52.2851C307.594 52.5297 307.732 52.7881 307.977 52.8622C308.222 52.9364 308.48 52.7981 308.554 52.5535C308.636 52.2836 308.68 51.9977 308.68 51.7025V51.2397Z" fill="white"/>
<path d="M302.698 53.6223C302.453 53.5482 302.194 53.6864 302.12 53.9311C302.046 54.1757 302.184 54.4341 302.429 54.5082C302.699 54.59 302.985 54.6338 303.28 54.6338H303.743C303.999 54.6338 304.206 54.4266 304.206 54.1709C304.206 53.9153 303.999 53.7081 303.743 53.7081H303.28C303.077 53.7081 302.881 53.678 302.698 53.6223Z" fill="white"/>
<path d="M306.6 54.5082C306.844 54.4341 306.982 54.1757 306.908 53.9311C306.834 53.6864 306.576 53.5482 306.331 53.6223C306.147 53.678 305.952 53.7081 305.749 53.7081H305.286C305.03 53.7081 304.823 53.9153 304.823 54.1709C304.823 54.4266 305.03 54.6338 305.286 54.6338H305.749C306.044 54.6338 306.33 54.59 306.6 54.5082Z" fill="white"/>
</g>
<path d="M267.364 88.9618C267.364 87.2051 268.788 85.781 270.545 85.781H810.183C811.94 85.781 813.364 87.2051 813.364 88.9618V111.384C813.364 113.141 811.94 114.565 810.183 114.565H270.545C268.788 114.565 267.364 113.141 267.364 111.384V88.9618Z" fill="#DCEDF9"/>
<path d="M277.147 101.155C277.147 102.108 277.326 103.052 277.674 103.933C278.021 104.813 278.531 105.614 279.173 106.288C279.815 106.962 280.578 107.496 281.417 107.861C282.256 108.226 283.155 108.414 284.064 108.414C284.972 108.414 285.871 108.226 286.71 107.861C287.549 107.496 288.312 106.962 288.954 106.288C289.596 105.614 290.106 104.813 290.453 103.933C290.801 103.052 290.98 102.108 290.98 101.155C290.98 100.202 290.801 99.258 290.453 98.3773C290.106 97.4967 289.596 96.6965 288.954 96.0225C288.312 95.3485 287.549 94.8138 286.71 94.4491C285.871 94.0843 284.972 93.8965 284.064 93.8965C283.155 93.8965 282.256 94.0843 281.417 94.4491C280.578 94.8138 279.815 95.3485 279.173 96.0225C278.531 96.6965 278.021 97.4967 277.674 98.3773C277.326 99.258 277.147 100.202 277.147 101.155V101.155Z" fill="#019AEB"/>
<path d="M284.064 94.5128C287.727 94.5128 290.706 97.4915 290.706 101.155C290.706 104.818 287.727 107.797 284.064 107.797C280.4 107.797 277.421 104.818 277.421 101.155C277.421 97.4915 280.4 94.5128 284.064 94.5128ZM284.064 93.3487C279.75 93.3487 276.257 96.841 276.257 101.155C276.257 105.469 279.75 108.961 284.064 108.961C288.378 108.961 291.87 105.469 291.87 101.155C291.87 96.841 288.378 93.3487 284.064 93.3487Z" fill="#0E416C"/>
<path d="M284.817 103.449H285.365V104.476H282.763V103.449H283.55V101.052H282.763V99.9909H284.817V103.449V103.449ZM283.482 99.3404H284.817V97.8339H283.482V99.3404Z" fill="white"/>
<path d="M304.133 104.673H303.253V97.8856H300.856V97.1038H306.53V97.8856H304.133V104.673ZM308.484 104.673H307.625V98.9987H308.484V104.673ZM307.552 97.4611C307.552 97.2643 307.6 97.1211 307.697 97.0314C307.794 96.9382 307.914 96.8916 308.059 96.8916C308.197 96.8916 308.317 96.9382 308.417 97.0314C308.517 97.1246 308.567 97.2678 308.567 97.4611C308.567 97.6543 308.517 97.7993 308.417 97.8959C308.317 97.9891 308.197 98.0357 308.059 98.0357C307.914 98.0357 307.794 97.9891 307.697 97.8959C307.6 97.7993 307.552 97.6543 307.552 97.4611ZM313.026 104.776C312.657 104.776 312.319 104.709 312.011 104.574C311.708 104.436 311.452 104.226 311.245 103.943H311.183C311.224 104.274 311.245 104.588 311.245 104.885V107.22H310.386V98.9987H311.085L311.204 99.7752H311.245C311.466 99.4646 311.723 99.2403 312.017 99.1022C312.31 98.9642 312.646 98.8951 313.026 98.8951C313.779 98.8951 314.358 99.1523 314.766 99.6665C315.176 100.181 315.382 100.902 315.382 101.831C315.382 102.762 315.173 103.487 314.755 104.005C314.341 104.519 313.765 104.776 313.026 104.776ZM312.902 99.6251C312.322 99.6251 311.903 99.7856 311.644 100.107C311.385 100.428 311.252 100.938 311.245 101.639V101.831C311.245 102.628 311.378 103.199 311.644 103.544C311.91 103.886 312.336 104.057 312.923 104.057C313.413 104.057 313.796 103.858 314.072 103.461C314.351 103.064 314.491 102.517 314.491 101.82C314.491 101.113 314.351 100.571 314.072 100.195C313.796 99.8149 313.406 99.6251 312.902 99.6251ZM324.699 101.831C324.699 102.756 324.466 103.479 324 104C323.534 104.518 322.891 104.776 322.069 104.776C321.562 104.776 321.111 104.657 320.718 104.419C320.324 104.181 320.021 103.839 319.807 103.394C319.593 102.949 319.486 102.428 319.486 101.831C319.486 100.906 319.717 100.186 320.179 99.6717C320.642 99.154 321.284 98.8951 322.105 98.8951C322.899 98.8951 323.529 99.1592 323.995 99.6872C324.464 100.215 324.699 100.93 324.699 101.831ZM320.376 101.831C320.376 102.555 320.521 103.108 320.811 103.487C321.101 103.867 321.527 104.057 322.09 104.057C322.652 104.057 323.079 103.869 323.369 103.492C323.662 103.113 323.809 102.559 323.809 101.831C323.809 101.109 323.662 100.562 323.369 100.189C323.079 99.8132 322.649 99.6251 322.079 99.6251C321.517 99.6251 321.092 99.8098 320.806 100.179C320.519 100.548 320.376 101.099 320.376 101.831ZM328.879 98.8951C329.131 98.8951 329.357 98.9158 329.557 98.9573L329.438 99.7545C329.203 99.7028 328.996 99.6769 328.817 99.6769C328.358 99.6769 327.964 99.8633 327.636 100.236C327.312 100.609 327.15 101.073 327.15 101.629V104.673H326.29V98.9987H327L327.098 100.05H327.139C327.35 99.6803 327.604 99.3956 327.9 99.1954C328.197 98.9952 328.523 98.8951 328.879 98.8951ZM333.661 104.673V97.1038H334.541V104.673H333.661ZM340.455 104.673V101.002C340.455 100.54 340.35 100.195 340.14 99.9668C339.929 99.739 339.599 99.6251 339.151 99.6251C338.557 99.6251 338.122 99.7856 337.846 100.107C337.57 100.428 337.432 100.957 337.432 101.696V104.673H336.573V98.9987H337.271L337.411 99.7752H337.453C337.629 99.4957 337.875 99.28 338.193 99.1281C338.511 98.9728 338.864 98.8951 339.254 98.8951C339.938 98.8951 340.452 99.0608 340.797 99.3921C341.142 99.72 341.315 100.246 341.315 100.971V104.673H340.455ZM345.722 99.6665H344.278V104.673H343.419V99.6665H342.404V99.2782L343.419 98.9676V98.6518C343.419 97.2574 344.028 96.5602 345.246 96.5602C345.546 96.5602 345.898 96.6206 346.302 96.7414L346.08 97.43C345.748 97.323 345.465 97.2695 345.231 97.2695C344.906 97.2695 344.666 97.3782 344.511 97.5957C344.356 97.8097 344.278 98.1548 344.278 98.6311V98.9987H345.722V99.6665ZM351.735 101.831C351.735 102.756 351.502 103.479 351.036 104C350.57 104.518 349.926 104.776 349.105 104.776C348.598 104.776 348.147 104.657 347.754 104.419C347.36 104.181 347.057 103.839 346.843 103.394C346.629 102.949 346.522 102.428 346.522 101.831C346.522 100.906 346.753 100.186 347.215 99.6717C347.678 99.154 348.32 98.8951 349.141 98.8951C349.935 98.8951 350.565 99.1592 351.031 99.6872C351.5 100.215 351.735 100.93 351.735 101.831ZM347.412 101.831C347.412 102.555 347.557 103.108 347.847 103.487C348.137 103.867 348.563 104.057 349.126 104.057C349.688 104.057 350.115 103.869 350.404 103.492C350.698 103.113 350.844 102.559 350.844 101.831C350.844 101.109 350.698 100.562 350.404 100.189C350.115 99.8132 349.685 99.6251 349.115 99.6251C348.553 99.6251 348.128 99.8098 347.842 100.179C347.555 100.548 347.412 101.099 347.412 101.831ZM355.684 102.224V101.437H358.226V102.224H355.684ZM367.124 104.673L366.083 101.344C366.017 101.14 365.895 100.678 365.716 99.9564H365.674C365.536 100.56 365.415 101.026 365.312 101.354L364.24 104.673H363.246L361.698 98.9987H362.599C362.965 100.424 363.243 101.51 363.432 102.255C363.626 103.001 363.736 103.503 363.764 103.762H363.805C363.843 103.565 363.904 103.311 363.986 103.001C364.073 102.687 364.147 102.438 364.209 102.255L365.25 98.9987H366.181L367.196 102.255C367.389 102.849 367.521 103.347 367.59 103.751H367.631C367.645 103.627 367.681 103.435 367.74 103.177C367.802 102.918 368.163 101.525 368.822 98.9987H369.712L368.144 104.673H367.124ZM373.411 98.8951C373.663 98.8951 373.889 98.9158 374.089 98.9573L373.97 99.7545C373.735 99.7028 373.528 99.6769 373.348 99.6769C372.889 99.6769 372.496 99.8633 372.168 100.236C371.844 100.609 371.681 101.073 371.681 101.629V104.673H370.822V98.9987H371.531L371.63 100.05H371.671C371.882 99.6803 372.135 99.3956 372.432 99.1954C372.729 98.9952 373.055 98.8951 373.411 98.8951ZM376.089 104.673H375.23V98.9987H376.089V104.673ZM375.157 97.4611C375.157 97.2643 375.205 97.1211 375.302 97.0314C375.399 96.9382 375.52 96.8916 375.665 96.8916C375.803 96.8916 375.922 96.9382 376.022 97.0314C376.122 97.1246 376.172 97.2678 376.172 97.4611C376.172 97.6543 376.122 97.7993 376.022 97.8959C375.922 97.9891 375.803 98.0357 375.665 98.0357C375.52 98.0357 375.399 97.9891 375.302 97.8959C375.205 97.7993 375.157 97.6543 375.157 97.4611ZM379.824 104.067C379.975 104.067 380.122 104.057 380.264 104.036C380.405 104.012 380.517 103.988 380.6 103.964V104.621C380.507 104.666 380.369 104.702 380.186 104.73C380.007 104.761 379.844 104.776 379.699 104.776C378.602 104.776 378.053 104.198 378.053 103.042V99.6665H377.24V99.2524L378.053 98.8951L378.415 97.6837H378.912V98.9987H380.559V99.6665H378.912V103.006C378.912 103.347 378.994 103.61 379.156 103.793C379.318 103.976 379.541 104.067 379.824 104.067ZM384.216 104.776C383.377 104.776 382.714 104.521 382.228 104.01C381.744 103.499 381.503 102.79 381.503 101.882C381.503 100.968 381.727 100.241 382.176 99.7028C382.628 99.1643 383.234 98.8951 383.993 98.8951C384.704 98.8951 385.267 99.1298 385.681 99.5992C386.095 100.065 386.302 100.681 386.302 101.447V101.991H382.393C382.411 102.657 382.578 103.163 382.896 103.508C383.217 103.853 383.667 104.026 384.247 104.026C384.858 104.026 385.462 103.898 386.059 103.643V104.409C385.755 104.54 385.467 104.633 385.194 104.688C384.925 104.747 384.599 104.776 384.216 104.776ZM383.983 99.6148C383.527 99.6148 383.163 99.7632 382.89 100.06C382.621 100.357 382.462 100.768 382.414 101.292H385.381C385.381 100.75 385.26 100.336 385.018 100.05C384.777 99.7597 384.431 99.6148 383.983 99.6148ZM394.346 103.125C394.346 103.653 394.149 104.06 393.756 104.347C393.362 104.633 392.81 104.776 392.099 104.776C391.347 104.776 390.76 104.657 390.339 104.419V103.622C390.611 103.76 390.903 103.869 391.214 103.948C391.528 104.027 391.83 104.067 392.12 104.067C392.568 104.067 392.914 103.996 393.155 103.855C393.397 103.71 393.518 103.491 393.518 103.197C393.518 102.976 393.421 102.788 393.228 102.633C393.038 102.474 392.665 102.288 392.109 102.074C391.581 101.877 391.205 101.706 390.981 101.561C390.76 101.413 390.594 101.246 390.484 101.059C390.377 100.873 390.323 100.65 390.323 100.391C390.323 99.9288 390.511 99.5647 390.888 99.299C391.264 99.0297 391.78 98.8951 392.436 98.8951C393.046 98.8951 393.644 99.0194 394.227 99.2679L393.921 99.9668C393.352 99.7321 392.836 99.6148 392.373 99.6148C391.966 99.6148 391.659 99.6786 391.452 99.8063C391.245 99.934 391.141 100.11 391.141 100.334C391.141 100.486 391.179 100.616 391.255 100.723C391.335 100.83 391.461 100.931 391.633 101.028C391.806 101.125 392.137 101.265 392.627 101.447C393.3 101.693 393.754 101.939 393.989 102.188C394.227 102.436 394.346 102.749 394.346 103.125ZM400.726 101.831C400.726 102.756 400.493 103.479 400.027 104C399.561 104.518 398.917 104.776 398.096 104.776C397.589 104.776 397.138 104.657 396.745 104.419C396.351 104.181 396.048 103.839 395.834 103.394C395.62 102.949 395.513 102.428 395.513 101.831C395.513 100.906 395.744 100.186 396.206 99.6717C396.669 99.154 397.311 98.8951 398.132 98.8951C398.926 98.8951 399.556 99.1592 400.022 99.6872C400.491 100.215 400.726 100.93 400.726 101.831ZM396.403 101.831C396.403 102.555 396.548 103.108 396.838 103.487C397.128 103.867 397.554 104.057 398.117 104.057C398.679 104.057 399.106 103.869 399.395 103.492C399.689 103.113 399.836 102.559 399.836 101.831C399.836 101.109 399.689 100.562 399.395 100.189C399.106 99.8132 398.676 99.6251 398.106 99.6251C397.544 99.6251 397.119 99.8098 396.833 100.179C396.546 100.548 396.403 101.099 396.403 101.831ZM409.55 104.673V100.982C409.55 100.529 409.453 100.191 409.26 99.9668C409.066 99.739 408.766 99.6251 408.359 99.6251C407.824 99.6251 407.429 99.7787 407.173 100.086C406.918 100.393 406.79 100.866 406.79 101.504V104.673H405.931V100.982C405.931 100.529 405.834 100.191 405.641 99.9668C405.448 99.739 405.146 99.6251 404.735 99.6251C404.197 99.6251 403.801 99.7873 403.549 100.112C403.301 100.433 403.177 100.961 403.177 101.696V104.673H402.317V98.9987H403.016L403.156 99.7752H403.197C403.36 99.4991 403.587 99.2834 403.881 99.1281C404.178 98.9728 404.509 98.8951 404.875 98.8951C405.762 98.8951 406.342 99.2161 406.614 99.8581H406.656C406.825 99.5613 407.07 99.3266 407.391 99.154C407.712 98.9814 408.078 98.8951 408.488 98.8951C409.13 98.8951 409.61 99.0608 409.928 99.3921C410.249 99.72 410.409 100.246 410.409 100.971V104.673H409.55ZM414.661 104.776C413.823 104.776 413.16 104.521 412.673 104.01C412.19 103.499 411.949 102.79 411.949 101.882C411.949 100.968 412.173 100.241 412.622 99.7028C413.074 99.1643 413.679 98.8951 414.439 98.8951C415.15 98.8951 415.712 99.1298 416.127 99.5992C416.541 100.065 416.748 100.681 416.748 101.447V101.991H412.839C412.856 102.657 413.024 103.163 413.341 103.508C413.662 103.853 414.113 104.026 414.692 104.026C415.303 104.026 415.907 103.898 416.504 103.643V104.409C416.201 104.54 415.913 104.633 415.64 104.688C415.371 104.747 415.045 104.776 414.661 104.776ZM414.428 99.6148C413.973 99.6148 413.609 99.7632 413.336 100.06C413.067 100.357 412.908 100.768 412.86 101.292H415.826C415.826 100.75 415.705 100.336 415.464 100.05C415.222 99.7597 414.877 99.6148 414.428 99.6148ZM421.939 98.9987V102.68C421.939 103.142 422.044 103.487 422.255 103.715C422.465 103.943 422.795 104.057 423.244 104.057C423.837 104.057 424.27 103.895 424.543 103.57C424.819 103.246 424.957 102.716 424.957 101.981V98.9987H425.817V104.673H425.107L424.983 103.912H424.937C424.761 104.191 424.515 104.405 424.201 104.554C423.891 104.702 423.535 104.776 423.135 104.776C422.445 104.776 421.927 104.612 421.582 104.285C421.24 103.957 421.069 103.432 421.069 102.711V98.9987H421.939ZM431.384 103.125C431.384 103.653 431.187 104.06 430.794 104.347C430.4 104.633 429.848 104.776 429.137 104.776C428.385 104.776 427.798 104.657 427.377 104.419V103.622C427.65 103.76 427.941 103.869 428.252 103.948C428.566 104.027 428.868 104.067 429.158 104.067C429.606 104.067 429.952 103.996 430.193 103.855C430.435 103.71 430.556 103.491 430.556 103.197C430.556 102.976 430.459 102.788 430.266 102.633C430.076 102.474 429.703 102.288 429.147 102.074C428.619 101.877 428.243 101.706 428.019 101.561C427.798 101.413 427.632 101.246 427.522 101.059C427.415 100.873 427.361 100.65 427.361 100.391C427.361 99.9288 427.549 99.5647 427.926 99.299C428.302 99.0297 428.818 98.8951 429.474 98.8951C430.084 98.8951 430.682 99.0194 431.265 99.2679L430.959 99.9668C430.39 99.7321 429.874 99.6148 429.411 99.6148C429.004 99.6148 428.697 99.6786 428.49 99.8063C428.283 99.934 428.179 100.11 428.179 100.334C428.179 100.486 428.217 100.616 428.293 100.723C428.373 100.83 428.499 100.931 428.671 101.028C428.844 101.125 429.175 101.265 429.665 101.447C430.338 101.693 430.792 101.939 431.027 102.188C431.265 102.436 431.384 102.749 431.384 103.125ZM435.263 104.776C434.425 104.776 433.762 104.521 433.275 104.01C432.792 103.499 432.551 102.79 432.551 101.882C432.551 100.968 432.775 100.241 433.224 99.7028C433.676 99.1643 434.282 98.8951 435.041 98.8951C435.752 98.8951 436.314 99.1298 436.729 99.5992C437.143 100.065 437.35 100.681 437.35 101.447V101.991H433.441C433.458 102.657 433.626 103.163 433.943 103.508C434.264 103.853 434.715 104.026 435.295 104.026C435.905 104.026 436.509 103.898 437.107 103.643V104.409C436.803 104.54 436.515 104.633 436.242 104.688C435.973 104.747 435.647 104.776 435.263 104.776ZM435.031 99.6148C434.575 99.6148 434.211 99.7632 433.938 100.06C433.669 100.357 433.51 100.768 433.462 101.292H436.428C436.428 100.75 436.308 100.336 436.066 100.05C435.824 99.7597 435.479 99.6148 435.031 99.6148ZM441.457 99.6665H440.013V104.673H439.153V99.6665H438.139V99.2782L439.153 98.9676V98.6518C439.153 97.2574 439.763 96.5602 440.981 96.5602C441.281 96.5602 441.633 96.6206 442.037 96.7414L441.814 97.43C441.483 97.323 441.2 97.2695 440.965 97.2695C440.641 97.2695 440.401 97.3782 440.246 97.5957C440.09 97.8097 440.013 98.1548 440.013 98.6311V98.9987H441.457V99.6665ZM443.38 98.9987V102.68C443.38 103.142 443.485 103.487 443.696 103.715C443.906 103.943 444.236 104.057 444.684 104.057C445.278 104.057 445.711 103.895 445.984 103.57C446.26 103.246 446.398 102.716 446.398 101.981V98.9987H447.257V104.673H446.548L446.424 103.912H446.377C446.201 104.191 445.956 104.405 445.642 104.554C445.332 104.702 444.976 104.776 444.576 104.776C443.885 104.776 443.368 104.612 443.023 104.285C442.681 103.957 442.51 103.432 442.51 102.711V98.9987H443.38ZM450.024 104.673H449.165V96.6172H450.024V104.673ZM456.592 104.067C456.744 104.067 456.891 104.057 457.032 104.036C457.174 104.012 457.286 103.988 457.369 103.964V104.621C457.276 104.666 457.138 104.702 456.955 104.73C456.775 104.761 456.613 104.776 456.468 104.776C455.37 104.776 454.822 104.198 454.822 103.042V99.6665H454.009V99.2524L454.822 98.8951L455.184 97.6837H455.681V98.9987H457.327V99.6665H455.681V103.006C455.681 103.347 455.762 103.61 455.924 103.793C456.087 103.976 456.309 104.067 456.592 104.067ZM460.984 104.776C460.146 104.776 459.483 104.521 458.996 104.01C458.513 103.499 458.272 102.79 458.272 101.882C458.272 100.968 458.496 100.241 458.945 99.7028C459.397 99.1643 460.002 98.8951 460.762 98.8951C461.473 98.8951 462.035 99.1298 462.449 99.5992C462.864 100.065 463.071 100.681 463.071 101.447V101.991H459.162C459.179 102.657 459.347 103.163 459.664 103.508C459.985 103.853 460.436 104.026 461.015 104.026C461.626 104.026 462.23 103.898 462.827 103.643V104.409C462.524 104.54 462.235 104.633 461.963 104.688C461.694 104.747 461.367 104.776 460.984 104.776ZM460.751 99.6148C460.296 99.6148 459.932 99.7632 459.659 100.06C459.39 100.357 459.231 100.768 459.183 101.292H462.149C462.149 100.75 462.028 100.336 461.787 100.05C461.545 99.7597 461.2 99.6148 460.751 99.6148ZM465.987 101.768L464.015 98.9987H464.993L466.49 101.173L467.981 98.9987H468.949L466.976 101.768L469.052 104.673H468.079L466.49 102.374L464.885 104.673H463.911L465.987 101.768ZM472.093 104.067C472.245 104.067 472.392 104.057 472.533 104.036C472.675 104.012 472.787 103.988 472.87 103.964V104.621C472.776 104.666 472.638 104.702 472.455 104.73C472.276 104.761 472.114 104.776 471.969 104.776C470.871 104.776 470.322 104.198 470.322 103.042V99.6665H469.51V99.2524L470.322 98.8951L470.685 97.6837H471.182V98.9987H472.828V99.6665H471.182V103.006C471.182 103.347 471.263 103.61 471.425 103.793C471.587 103.976 471.81 104.067 472.093 104.067Z" fill="#252A2E"/>
<rect width="553.271" height="132.016" transform="translate(267.364 122.525)" fill="#CBCBCB"/>
<rect width="551.945" height="43.1207" transform="translate(268.028 123.189)" fill="white"/>
<path d="M280.074 150.249V139.83H281.286V149.152H285.882V150.249H280.074ZM288.828 150.249H287.645V142.439H288.828V150.249ZM287.545 140.322C287.545 140.051 287.611 139.854 287.744 139.731C287.877 139.602 288.044 139.538 288.243 139.538C288.433 139.538 288.597 139.602 288.735 139.731C288.873 139.859 288.942 140.056 288.942 140.322C288.942 140.588 288.873 140.788 288.735 140.921C288.597 141.049 288.433 141.113 288.243 141.113C288.044 141.113 287.877 141.049 287.744 140.921C287.611 140.788 287.545 140.588 287.545 140.322ZM296.54 148.118C296.54 148.845 296.269 149.406 295.728 149.8C295.186 150.194 294.426 150.392 293.447 150.392C292.412 150.392 291.604 150.228 291.024 149.9V148.802C291.4 148.992 291.801 149.142 292.229 149.251C292.661 149.361 293.077 149.415 293.476 149.415C294.093 149.415 294.569 149.318 294.901 149.123C295.234 148.924 295.4 148.622 295.4 148.218C295.4 147.914 295.267 147.655 295.001 147.441C294.74 147.223 294.226 146.966 293.462 146.672C292.735 146.401 292.217 146.166 291.908 145.966C291.604 145.762 291.376 145.531 291.224 145.275C291.077 145.018 291.003 144.712 291.003 144.356C291.003 143.719 291.262 143.218 291.78 142.852C292.298 142.481 293.008 142.296 293.911 142.296C294.751 142.296 295.573 142.467 296.376 142.809L295.956 143.771C295.172 143.448 294.462 143.287 293.825 143.287C293.264 143.287 292.842 143.375 292.557 143.55C292.271 143.726 292.129 143.968 292.129 144.277C292.129 144.486 292.181 144.664 292.286 144.812C292.395 144.959 292.568 145.099 292.806 145.232C293.044 145.365 293.5 145.558 294.174 145.809C295.101 146.147 295.725 146.486 296.048 146.828C296.376 147.17 296.54 147.6 296.54 148.118ZM301.16 149.415C301.369 149.415 301.571 149.401 301.766 149.372C301.96 149.339 302.115 149.306 302.229 149.273V150.178C302.101 150.24 301.911 150.289 301.659 150.327C301.412 150.37 301.188 150.392 300.989 150.392C299.478 150.392 298.723 149.596 298.723 148.004V143.358H297.604V142.788L298.723 142.296L299.222 140.629H299.906V142.439H302.172V143.358H299.906V147.954C299.906 148.425 300.017 148.786 300.241 149.038C300.464 149.289 300.77 149.415 301.16 149.415ZM308.098 150.249V139.83H309.309V150.249H308.098ZM314.684 149.415C314.893 149.415 315.095 149.401 315.29 149.372C315.485 149.339 315.639 149.306 315.753 149.273V150.178C315.625 150.24 315.435 150.289 315.183 150.327C314.936 150.37 314.713 150.392 314.513 150.392C313.003 150.392 312.247 149.596 312.247 148.004V143.358H311.128V142.788L312.247 142.296L312.746 140.629H313.43V142.439H315.696V143.358H313.43V147.954C313.43 148.425 313.542 148.786 313.765 149.038C313.988 149.289 314.295 149.415 314.684 149.415ZM320.786 150.392C319.632 150.392 318.72 150.04 318.05 149.337C317.385 148.634 317.052 147.657 317.052 146.408C317.052 145.149 317.361 144.149 317.979 143.408C318.601 142.667 319.435 142.296 320.48 142.296C321.459 142.296 322.233 142.619 322.803 143.265C323.373 143.907 323.658 144.755 323.658 145.809V146.558H318.278C318.302 147.475 318.532 148.171 318.969 148.646C319.411 149.121 320.031 149.358 320.829 149.358C321.67 149.358 322.502 149.182 323.323 148.831V149.886C322.905 150.066 322.509 150.194 322.133 150.27C321.763 150.351 321.314 150.392 320.786 150.392ZM320.466 143.287C319.839 143.287 319.337 143.491 318.962 143.899C318.592 144.308 318.373 144.873 318.306 145.596H322.39C322.39 144.85 322.224 144.28 321.891 143.885C321.558 143.486 321.083 143.287 320.466 143.287ZM335.804 150.249V145.168C335.804 144.546 335.671 144.08 335.404 143.771C335.138 143.458 334.725 143.301 334.164 143.301C333.428 143.301 332.884 143.512 332.533 143.935C332.181 144.358 332.005 145.009 332.005 145.888V150.249H330.822V145.168C330.822 144.546 330.689 144.08 330.423 143.771C330.157 143.458 329.741 143.301 329.176 143.301C328.435 143.301 327.891 143.524 327.544 143.971C327.202 144.413 327.031 145.139 327.031 146.151V150.249H325.848V142.439H326.81L327.003 143.508H327.06C327.283 143.127 327.596 142.831 328 142.617C328.409 142.403 328.865 142.296 329.368 142.296C330.589 142.296 331.388 142.738 331.763 143.622H331.82C332.053 143.213 332.39 142.89 332.832 142.652C333.274 142.415 333.777 142.296 334.343 142.296C335.226 142.296 335.887 142.524 336.324 142.98C336.766 143.432 336.987 144.156 336.987 145.154V150.249H335.804Z" fill="#252A2E"/>
<g clip-path="url(#clip3_4930_81308)">
<rect x="789.788" y="138.115" width="13.2679" height="13.2679" fill="white"/>
<rect x="788.461" y="138.115" width="13.2679" height="13.2679" fill="white"/>
<path fill-rule="evenodd" clip-rule="evenodd" d="M789.705 136.788H802.475C803.479 136.788 804.3 137.584 804.3 138.557V150.941C804.3 151.914 803.479 152.71 802.475 152.71H789.705C788.702 152.71 787.881 151.914 787.881 150.941V138.557C787.881 137.584 788.702 136.788 789.705 136.788ZM802.475 150.941V138.557H789.705V150.941H802.475Z" fill="#90939F"/>
<path fill-rule="evenodd" clip-rule="evenodd" d="M789.641 136.788H802.54C803.553 136.788 804.383 137.584 804.383 138.557V150.941C804.383 151.914 803.553 152.71 802.54 152.71H789.641C788.627 152.71 787.798 151.914 787.798 150.941V138.557C787.798 137.584 788.627 136.788 789.641 136.788ZM802.54 150.941V138.557H789.641V150.941H802.54Z" fill="#90939F"/>
</g>
<rect width="551.945" height="43.1207" transform="translate(268.028 166.973)" fill="white"/>
<path d="M280.074 193.919V183.5H281.286V192.821H285.882V193.919H280.074ZM288.828 193.919H287.645V186.108H288.828V193.919ZM287.545 183.992C287.545 183.721 287.611 183.524 287.744 183.4C287.877 183.272 288.044 183.208 288.243 183.208C288.433 183.208 288.597 183.272 288.735 183.4C288.873 183.529 288.942 183.726 288.942 183.992C288.942 184.258 288.873 184.457 288.735 184.59C288.597 184.719 288.433 184.783 288.243 184.783C288.044 184.783 287.877 184.719 287.744 184.59C287.611 184.457 287.545 184.258 287.545 183.992ZM296.54 191.788C296.54 192.515 296.269 193.075 295.728 193.47C295.186 193.864 294.426 194.061 293.447 194.061C292.412 194.061 291.604 193.897 291.024 193.57V192.472C291.4 192.662 291.801 192.812 292.229 192.921C292.661 193.03 293.077 193.085 293.476 193.085C294.093 193.085 294.569 192.988 294.901 192.793C295.234 192.593 295.4 192.292 295.4 191.888C295.4 191.584 295.267 191.325 295.001 191.111C294.74 190.892 294.226 190.636 293.462 190.341C292.735 190.071 292.217 189.835 291.908 189.636C291.604 189.432 291.376 189.201 291.224 188.945C291.077 188.688 291.003 188.382 291.003 188.025C291.003 187.389 291.262 186.887 291.78 186.522C292.298 186.151 293.008 185.966 293.911 185.966C294.751 185.966 295.573 186.137 296.376 186.479L295.956 187.441C295.172 187.118 294.462 186.956 293.825 186.956C293.264 186.956 292.842 187.044 292.557 187.22C292.271 187.396 292.129 187.638 292.129 187.947C292.129 188.156 292.181 188.334 292.286 188.481C292.395 188.629 292.568 188.769 292.806 188.902C293.044 189.035 293.5 189.227 294.174 189.479C295.101 189.816 295.725 190.156 296.048 190.498C296.376 190.84 296.54 191.27 296.54 191.788ZM301.16 193.085C301.369 193.085 301.571 193.071 301.766 193.042C301.96 193.009 302.115 192.976 302.229 192.942V193.847C302.101 193.909 301.911 193.959 301.659 193.997C301.412 194.04 301.188 194.061 300.989 194.061C299.478 194.061 298.723 193.266 298.723 191.674V187.028H297.604V186.458L298.723 185.966L299.222 184.298H299.906V186.108H302.172V187.028H299.906V191.624C299.906 192.094 300.017 192.455 300.241 192.707C300.464 192.959 300.77 193.085 301.16 193.085ZM308.098 193.919V183.5H309.309V193.919H308.098ZM314.684 193.085C314.893 193.085 315.095 193.071 315.29 193.042C315.485 193.009 315.639 192.976 315.753 192.942V193.847C315.625 193.909 315.435 193.959 315.183 193.997C314.936 194.04 314.713 194.061 314.513 194.061C313.003 194.061 312.247 193.266 312.247 191.674V187.028H311.128V186.458L312.247 185.966L312.746 184.298H313.43V186.108H315.696V187.028H313.43V191.624C313.43 192.094 313.542 192.455 313.765 192.707C313.988 192.959 314.295 193.085 314.684 193.085ZM320.786 194.061C319.632 194.061 318.72 193.71 318.05 193.007C317.385 192.303 317.052 191.327 317.052 190.078C317.052 188.819 317.361 187.819 317.979 187.078C318.601 186.336 319.435 185.966 320.48 185.966C321.459 185.966 322.233 186.289 322.803 186.935C323.373 187.576 323.658 188.424 323.658 189.479V190.227H318.278C318.302 191.144 318.532 191.84 318.969 192.315C319.411 192.79 320.031 193.028 320.829 193.028C321.67 193.028 322.502 192.852 323.323 192.501V193.555C322.905 193.736 322.509 193.864 322.133 193.94C321.763 194.021 321.314 194.061 320.786 194.061ZM320.466 186.956C319.839 186.956 319.337 187.161 318.962 187.569C318.592 187.978 318.373 188.543 318.306 189.265H322.39C322.39 188.519 322.224 187.949 321.891 187.555C321.558 187.156 321.083 186.956 320.466 186.956ZM335.804 193.919V188.838C335.804 188.215 335.671 187.75 335.404 187.441C335.138 187.127 334.725 186.971 334.164 186.971C333.428 186.971 332.884 187.182 332.533 187.605C332.181 188.028 332.005 188.679 332.005 189.557V193.919H330.822V188.838C330.822 188.215 330.689 187.75 330.423 187.441C330.157 187.127 329.741 186.971 329.176 186.971C328.435 186.971 327.891 187.194 327.544 187.64C327.202 188.082 327.031 188.809 327.031 189.821V193.919H325.848V186.108H326.81L327.003 187.177H327.06C327.283 186.797 327.596 186.5 328 186.286C328.409 186.073 328.865 185.966 329.368 185.966C330.589 185.966 331.388 186.408 331.763 187.291H331.82C332.053 186.883 332.39 186.56 332.832 186.322C333.274 186.085 333.777 185.966 334.343 185.966C335.226 185.966 335.887 186.194 336.324 186.65C336.766 187.101 336.987 187.826 336.987 188.823V193.919H335.804Z" fill="#252A2E"/>
<g clip-path="url(#clip4_4930_81308)">
<rect x="789.788" y="181.899" width="13.2679" height="13.2679" fill="white"/>
<rect x="788.461" y="181.899" width="13.2679" height="13.2679" fill="white"/>
<path fill-rule="evenodd" clip-rule="evenodd" d="M789.705 180.572H802.475C803.479 180.572 804.3 181.368 804.3 182.341V194.725C804.3 195.698 803.479 196.494 802.475 196.494H789.705C788.702 196.494 787.881 195.698 787.881 194.725V182.341C787.881 181.368 788.702 180.572 789.705 180.572ZM802.475 194.725V182.341H789.705V194.725H802.475Z" fill="#90939F"/>
<path fill-rule="evenodd" clip-rule="evenodd" d="M789.641 180.572H802.54C803.553 180.572 804.383 181.368 804.383 182.341V194.725C804.383 195.698 803.553 196.494 802.54 196.494H789.641C788.627 196.494 787.798 195.698 787.798 194.725V182.341C787.798 181.368 788.627 180.572 789.641 180.572ZM802.54 194.725V182.341H789.641V194.725H802.54Z" fill="#90939F"/>
</g>
<rect width="551.945" height="43.1207" transform="translate(268.028 210.757)" fill="white"/>
<path d="M280.074 237.703V227.284H281.286V236.605H285.882V237.703H280.074ZM288.828 237.703H287.645V229.892H288.828V237.703ZM287.545 227.776C287.545 227.505 287.611 227.308 287.744 227.184C287.877 227.056 288.044 226.992 288.243 226.992C288.433 226.992 288.597 227.056 288.735 227.184C288.873 227.313 288.942 227.51 288.942 227.776C288.942 228.042 288.873 228.241 288.735 228.374C288.597 228.503 288.433 228.567 288.243 228.567C288.044 228.567 287.877 228.503 287.744 228.374C287.611 228.241 287.545 228.042 287.545 227.776ZM296.54 235.572C296.54 236.299 296.269 236.86 295.728 237.254C295.186 237.648 294.426 237.845 293.447 237.845C292.412 237.845 291.604 237.681 291.024 237.354V236.256C291.4 236.446 291.801 236.596 292.229 236.705C292.661 236.814 293.077 236.869 293.476 236.869C294.093 236.869 294.569 236.772 294.901 236.577C295.234 236.377 295.4 236.076 295.4 235.672C295.4 235.368 295.267 235.109 295.001 234.895C294.74 234.677 294.226 234.42 293.462 234.125C292.735 233.855 292.217 233.619 291.908 233.42C291.604 233.216 291.376 232.985 291.224 232.729C291.077 232.472 291.003 232.166 291.003 231.809C291.003 231.173 291.262 230.672 291.78 230.306C292.298 229.935 293.008 229.75 293.911 229.75C294.751 229.75 295.573 229.921 296.376 230.263L295.956 231.225C295.172 230.902 294.462 230.74 293.825 230.74C293.264 230.74 292.842 230.828 292.557 231.004C292.271 231.18 292.129 231.422 292.129 231.731C292.129 231.94 292.181 232.118 292.286 232.265C292.395 232.413 292.568 232.553 292.806 232.686C293.044 232.819 293.5 233.011 294.174 233.263C295.101 233.6 295.725 233.94 296.048 234.282C296.376 234.624 296.54 235.054 296.54 235.572ZM301.16 236.869C301.369 236.869 301.571 236.855 301.766 236.826C301.96 236.793 302.115 236.76 302.229 236.727V237.632C302.101 237.693 301.911 237.743 301.659 237.781C301.412 237.824 301.188 237.845 300.989 237.845C299.478 237.845 298.723 237.05 298.723 235.458V230.812H297.604V230.242L298.723 229.75L299.222 228.082H299.906V229.892H302.172V230.812H299.906V235.408C299.906 235.878 300.017 236.24 300.241 236.491C300.464 236.743 300.77 236.869 301.16 236.869ZM308.098 237.703V227.284H309.309V237.703H308.098ZM314.684 236.869C314.893 236.869 315.095 236.855 315.29 236.826C315.485 236.793 315.639 236.76 315.753 236.727V237.632C315.625 237.693 315.435 237.743 315.183 237.781C314.936 237.824 314.713 237.845 314.513 237.845C313.003 237.845 312.247 237.05 312.247 235.458V230.812H311.128V230.242L312.247 229.75L312.746 228.082H313.43V229.892H315.696V230.812H313.43V235.408C313.43 235.878 313.542 236.24 313.765 236.491C313.988 236.743 314.295 236.869 314.684 236.869ZM320.786 237.845C319.632 237.845 318.72 237.494 318.05 236.791C317.385 236.088 317.052 235.111 317.052 233.862C317.052 232.603 317.361 231.603 317.979 230.862C318.601 230.12 319.435 229.75 320.48 229.75C321.459 229.75 322.233 230.073 322.803 230.719C323.373 231.36 323.658 232.208 323.658 233.263V234.011H318.278C318.302 234.928 318.532 235.624 318.969 236.099C319.411 236.574 320.031 236.812 320.829 236.812C321.67 236.812 322.502 236.636 323.323 236.285V237.339C322.905 237.52 322.509 237.648 322.133 237.724C321.763 237.805 321.314 237.845 320.786 237.845ZM320.466 230.74C319.839 230.74 319.337 230.945 318.962 231.353C318.592 231.762 318.373 232.327 318.306 233.049H322.39C322.39 232.303 322.224 231.733 321.891 231.339C321.558 230.94 321.083 230.74 320.466 230.74ZM335.804 237.703V232.622C335.804 231.999 335.671 231.534 335.404 231.225C335.138 230.911 334.725 230.755 334.164 230.755C333.428 230.755 332.884 230.966 332.533 231.389C332.181 231.812 332.005 232.463 332.005 233.342V237.703H330.822V232.622C330.822 231.999 330.689 231.534 330.423 231.225C330.157 230.911 329.741 230.755 329.176 230.755C328.435 230.755 327.891 230.978 327.544 231.425C327.202 231.866 327.031 232.593 327.031 233.605V237.703H325.848V229.892H326.81L327.003 230.961H327.06C327.283 230.581 327.596 230.284 328 230.071C328.409 229.857 328.865 229.75 329.368 229.75C330.589 229.75 331.388 230.192 331.763 231.075H331.82C332.053 230.667 332.39 230.344 332.832 230.106C333.274 229.869 333.777 229.75 334.343 229.75C335.226 229.75 335.887 229.978 336.324 230.434C336.766 230.885 336.987 231.61 336.987 232.608V237.703H335.804Z" fill="#252A2E"/>
<g clip-path="url(#clip5_4930_81308)">
<rect x="789.788" y="225.683" width="13.2679" height="13.2679" fill="white"/>
<rect x="788.461" y="225.683" width="13.2679" height="13.2679" fill="white"/>
<path fill-rule="evenodd" clip-rule="evenodd" d="M789.705 224.356H802.475C803.479 224.356 804.3 225.152 804.3 226.125V238.509C804.3 239.482 803.479 240.278 802.475 240.278H789.705C788.702 240.278 787.881 239.482 787.881 238.509V226.125C787.881 225.152 788.702 224.356 789.705 224.356ZM802.475 238.509V226.125H789.705V238.509H802.475Z" fill="#90939F"/>
<path fill-rule="evenodd" clip-rule="evenodd" d="M789.641 224.356H802.54C803.553 224.356 804.383 225.152 804.383 226.125V238.509C804.383 239.482 803.553 240.278 802.54 240.278H789.641C788.627 240.278 787.798 239.482 787.798 238.509V226.125C787.798 225.152 788.627 224.356 789.641 224.356ZM802.54 238.509V226.125H789.641V238.509H802.54Z" fill="#90939F"/>
</g>
</g>
<rect x="257.082" y="31.8" width="573.837" height="324.4" stroke="#90939F" stroke-width="0.663395"/>
<defs>
<clipPath id="clip0_4930_81308">
<rect x="256.75" y="31.4683" width="574.5" height="325.064" fill="white"/>
</clipPath>
<clipPath id="clip1_4930_81308">
<rect width="574.5" height="37.0644" fill="white" transform="translate(256.75 31.4683)"/>
</clipPath>
<clipPath id="clip2_4930_81308">
<rect width="15.9215" height="15.9215" fill="white" transform="translate(267.364 42.5075)"/>
</clipPath>
<clipPath id="clip3_4930_81308">
<rect width="24.5456" height="25.209" fill="white" transform="translate(783.817 132.145)"/>
</clipPath>
<clipPath id="clip4_4930_81308">
<rect width="24.5456" height="25.209" fill="white" transform="translate(783.817 175.929)"/>
</clipPath>
<clipPath id="clip5_4930_81308">
<rect width="24.5456" height="25.209" fill="white" transform="translate(783.817 219.713)"/>
</clipPath>
</defs>
</svg>
