<svg width="1087" height="317" viewBox="0 0 1087 317" fill="none" xmlns="http://www.w3.org/2000/svg">
<rect width="1087" height="142.333" transform="translate(0 0.333374)" fill="#C4C4C4"/>
<rect width="271" height="40" transform="translate(1 1.33337)" fill="#F1F1F6"/>
<path d="M18.376 26.3334L17.6514 23.9545H14.0078L13.2832 26.3334H11L14.5273 16.2982H17.1182L20.6592 26.3334H18.376ZM17.1455 22.1771C16.4756 20.0215 16.0973 18.8024 16.0107 18.5199C15.9287 18.2373 15.8695 18.014 15.833 17.85C15.6826 18.4333 15.252 19.8757 14.541 22.1771H17.1455ZM24.7793 26.4701C22.4004 26.4701 21.2109 25.1644 21.2109 22.5531C21.2109 21.2543 21.5345 20.2631 22.1816 19.5795C22.8288 18.8913 23.7562 18.5472 24.9639 18.5472C25.848 18.5472 26.6409 18.7204 27.3428 19.0668L26.7275 20.6801C26.3994 20.5479 26.0941 20.4408 25.8115 20.3588C25.529 20.2722 25.2464 20.2289 24.9639 20.2289C23.8792 20.2289 23.3369 20.9991 23.3369 22.5394C23.3369 24.0342 23.8792 24.7816 24.9639 24.7816C25.3649 24.7816 25.7363 24.7292 26.0781 24.6244C26.4199 24.515 26.7617 24.3464 27.1035 24.1185V25.9027C26.7663 26.1169 26.4245 26.265 26.0781 26.347C25.7363 26.4291 25.3034 26.4701 24.7793 26.4701ZM32.0166 24.809C32.3812 24.809 32.8187 24.7292 33.3291 24.5697V26.1215C32.8095 26.3539 32.1715 26.4701 31.415 26.4701C30.581 26.4701 29.9726 26.2605 29.5898 25.8412C29.2116 25.4174 29.0224 24.7839 29.0224 23.9408V20.2562H28.0244V19.3744L29.1728 18.6771L29.7744 17.0638H31.1074V18.6908H33.247V20.2562H31.1074V23.9408C31.1074 24.237 31.1894 24.4558 31.3535 24.597C31.5221 24.7383 31.7431 24.809 32.0166 24.809ZM34.708 16.7152C34.708 16.0362 35.0862 15.6967 35.8427 15.6967C36.5992 15.6967 36.9775 16.0362 36.9775 16.7152C36.9775 17.0388 36.8818 17.2917 36.6904 17.474C36.5035 17.6517 36.221 17.7406 35.8427 17.7406C35.0862 17.7406 34.708 17.3988 34.708 16.7152ZM36.8818 26.3334H34.7968V18.6908H36.8818V26.3334ZM40.8105 26.3334L37.8984 18.6908H40.079L41.5556 23.0453C41.7197 23.5967 41.8222 24.1185 41.8632 24.6107H41.9042C41.927 24.1732 42.0296 23.6514 42.2119 23.0453L43.6816 18.6908H45.8622L42.9501 26.3334H40.8105ZM50.0439 20.0306C49.6018 20.0306 49.2555 20.1719 49.0048 20.4545C48.7542 20.7325 48.6106 21.1289 48.5741 21.6439H51.4999C51.4908 21.1289 51.3564 20.7325 51.0966 20.4545C50.8368 20.1719 50.4859 20.0306 50.0439 20.0306ZM50.3378 26.4701C49.1073 26.4701 48.1458 26.1306 47.453 25.4515C46.7603 24.7725 46.414 23.8109 46.414 22.5668C46.414 21.2862 46.733 20.2972 47.371 19.6C48.0136 18.8982 48.9 18.5472 50.0302 18.5472C51.1103 18.5472 51.9511 18.8549 52.5527 19.4701C53.1542 20.0853 53.455 20.9353 53.455 22.0199V23.0316H48.5263C48.5491 23.6241 48.7245 24.0866 49.0527 24.4193C49.3808 24.752 49.8411 24.9183 50.4335 24.9183C50.8938 24.9183 51.329 24.8705 51.7392 24.7748C52.1493 24.6791 52.5777 24.5264 53.0243 24.3168V25.9301C52.6598 26.1123 52.2701 26.2468 51.8554 26.3334C51.4407 26.4245 50.9348 26.4701 50.3378 26.4701Z" fill="#464B52"/>
<rect width="271" height="99.3333" transform="translate(1 42.3334)" fill="white"/>
<rect x="104.5" y="76" width="64" height="32" rx="16" fill="#217CBB"/>
<path d="M165.5 92C165.5 99.1797 159.68 105 152.5 105C145.32 105 139.5 99.1797 139.5 92C139.5 84.8203 145.32 79 152.5 79C159.68 79 165.5 84.8203 165.5 92Z" fill="white"/>
<rect width="270" height="40" transform="translate(273 1.33337)" fill="#F1F1F6"/>
<path d="M290.376 26.3334L289.651 23.9545H286.008L285.283 26.3334H283L286.527 16.2982H289.118L292.659 26.3334H290.376ZM289.146 22.1771C288.476 20.0215 288.097 18.8024 288.011 18.5199C287.929 18.2373 287.869 18.014 287.833 17.85C287.683 18.4333 287.252 19.8757 286.541 22.1771H289.146ZM296.779 26.4701C294.4 26.4701 293.211 25.1644 293.211 22.5531C293.211 21.2543 293.534 20.2631 294.182 19.5795C294.829 18.8913 295.756 18.5472 296.964 18.5472C297.848 18.5472 298.641 18.7204 299.343 19.0668L298.728 20.6801C298.399 20.5479 298.094 20.4408 297.812 20.3588C297.529 20.2722 297.246 20.2289 296.964 20.2289C295.879 20.2289 295.337 20.9991 295.337 22.5394C295.337 24.0342 295.879 24.7816 296.964 24.7816C297.365 24.7816 297.736 24.7292 298.078 24.6244C298.42 24.515 298.762 24.3464 299.104 24.1185V25.9027C298.766 26.1169 298.424 26.265 298.078 26.347C297.736 26.4291 297.303 26.4701 296.779 26.4701ZM304.017 24.809C304.381 24.809 304.819 24.7292 305.329 24.5697V26.1215C304.81 26.3539 304.172 26.4701 303.415 26.4701C302.581 26.4701 301.973 26.2605 301.59 25.8412C301.212 25.4174 301.022 24.7839 301.022 23.9408V20.2562H300.024V19.3744L301.173 18.6771L301.774 17.0638H303.107V18.6908H305.247V20.2562H303.107V23.9408C303.107 24.237 303.189 24.4558 303.353 24.597C303.522 24.7383 303.743 24.809 304.017 24.809ZM306.708 16.7152C306.708 16.0362 307.086 15.6967 307.843 15.6967C308.599 15.6967 308.977 16.0362 308.977 16.7152C308.977 17.0388 308.882 17.2917 308.69 17.474C308.504 17.6517 308.221 17.7406 307.843 17.7406C307.086 17.7406 306.708 17.3988 306.708 16.7152ZM308.882 26.3334H306.797V18.6908H308.882V26.3334ZM312.81 26.3334L309.898 18.6908H312.079L313.556 23.0453C313.72 23.5967 313.822 24.1185 313.863 24.6107H313.904C313.927 24.1732 314.03 23.6514 314.212 23.0453L315.682 18.6908H317.862L314.95 26.3334H312.81ZM322.044 20.0306C321.602 20.0306 321.255 20.1719 321.005 20.4545C320.754 20.7325 320.611 21.1289 320.574 21.6439H323.5C323.491 21.1289 323.356 20.7325 323.097 20.4545C322.837 20.1719 322.486 20.0306 322.044 20.0306ZM322.338 26.4701C321.107 26.4701 320.146 26.1306 319.453 25.4515C318.76 24.7725 318.414 23.8109 318.414 22.5668C318.414 21.2862 318.733 20.2972 319.371 19.6C320.014 18.8982 320.9 18.5472 322.03 18.5472C323.11 18.5472 323.951 18.8549 324.553 19.4701C325.154 20.0853 325.455 20.9353 325.455 22.0199V23.0316H320.526C320.549 23.6241 320.725 24.0866 321.053 24.4193C321.381 24.752 321.841 24.9183 322.434 24.9183C322.894 24.9183 323.329 24.8705 323.739 24.7748C324.149 24.6791 324.578 24.5264 325.024 24.3168V25.9301C324.66 26.1123 324.27 26.2468 323.855 26.3334C323.441 26.4245 322.935 26.4701 322.338 26.4701ZM332.868 26.3334H330.783V16.3392H336.512V18.0756H332.868V20.6527H336.259V22.3822H332.868V26.3334ZM339.88 22.4984C339.88 23.2549 340.003 23.8269 340.249 24.2142C340.5 24.6016 340.905 24.7953 341.466 24.7953C342.022 24.7953 342.42 24.6039 342.662 24.2211C342.908 23.8337 343.031 23.2595 343.031 22.4984C343.031 21.7419 342.908 21.1745 342.662 20.7963C342.416 20.418 342.013 20.2289 341.452 20.2289C340.896 20.2289 340.495 20.418 340.249 20.7963C340.003 21.17 339.88 21.7373 339.88 22.4984ZM345.164 22.4984C345.164 23.7426 344.836 24.7155 344.18 25.4174C343.523 26.1192 342.61 26.4701 341.438 26.4701C340.705 26.4701 340.057 26.3106 339.497 25.9916C338.936 25.668 338.506 25.2054 338.205 24.6039C337.904 24.0023 337.754 23.3005 337.754 22.4984C337.754 21.2497 338.08 20.279 338.731 19.5863C339.383 18.8936 340.299 18.5472 341.479 18.5472C342.213 18.5472 342.86 18.7067 343.421 19.0258C343.981 19.3448 344.412 19.8028 344.713 20.3998C345.014 20.9968 345.164 21.6963 345.164 22.4984ZM349.906 26.4701C347.527 26.4701 346.338 25.1644 346.338 22.5531C346.338 21.2543 346.661 20.2631 347.308 19.5795C347.956 18.8913 348.883 18.5472 350.091 18.5472C350.975 18.5472 351.768 18.7204 352.47 19.0668L351.854 20.6801C351.526 20.5479 351.221 20.4408 350.938 20.3588C350.656 20.2722 350.373 20.2289 350.091 20.2289C349.006 20.2289 348.464 20.9991 348.464 22.5394C348.464 24.0342 349.006 24.7816 350.091 24.7816C350.492 24.7816 350.863 24.7292 351.205 24.6244C351.547 24.515 351.889 24.3464 352.23 24.1185V25.9027C351.893 26.1169 351.551 26.265 351.205 26.347C350.863 26.4291 350.43 26.4701 349.906 26.4701ZM359.338 26.3334L359.057 25.3558H358.948C358.725 25.7113 358.408 25.987 357.998 26.183C357.588 26.3744 357.121 26.4701 356.597 26.4701C355.699 26.4701 355.022 26.2308 354.566 25.7523C354.111 25.2692 353.883 24.5765 353.883 23.6742V18.6908H355.968V23.1547C355.968 23.7061 356.066 24.1208 356.262 24.3988C356.458 24.6722 356.77 24.809 357.198 24.809C357.781 24.809 358.203 24.6153 358.463 24.2279C358.723 23.836 358.852 23.1888 358.852 22.2865V18.6908H360.937V26.3334H359.338ZM368.373 24.0638C368.373 24.8477 368.099 25.4447 367.553 25.8549C367.01 26.265 366.197 26.4701 365.112 26.4701C364.556 26.4701 364.082 26.4314 363.69 26.3539C363.298 26.281 362.931 26.1716 362.59 26.0258V24.3031C362.977 24.4854 363.412 24.6381 363.895 24.7611C364.383 24.8842 364.811 24.9457 365.18 24.9457C365.937 24.9457 366.315 24.7269 366.315 24.2894C366.315 24.1254 366.265 23.9932 366.165 23.8929C366.065 23.7881 365.891 23.6719 365.645 23.5443C365.399 23.4122 365.071 23.2595 364.661 23.0863C364.073 22.8402 363.64 22.6123 363.362 22.4027C363.089 22.1931 362.888 21.9538 362.761 21.6849C362.638 21.4115 362.576 21.0765 362.576 20.6801C362.576 20.001 362.838 19.4769 363.362 19.1078C363.891 18.7341 364.638 18.5472 365.604 18.5472C366.525 18.5472 367.42 18.7478 368.291 19.1488L367.662 20.6527C367.279 20.4886 366.921 20.3542 366.589 20.2494C366.256 20.1446 365.916 20.0922 365.57 20.0922C364.955 20.0922 364.647 20.2585 364.647 20.5912C364.647 20.778 364.745 20.9398 364.941 21.0765C365.142 21.2133 365.577 21.4161 366.247 21.6849C366.844 21.9265 367.281 22.1521 367.559 22.3617C367.837 22.5713 368.042 22.8129 368.175 23.0863C368.307 23.3597 368.373 23.6856 368.373 24.0638Z" fill="#464B52"/>
<rect width="270" height="99.3333" transform="translate(273 42.3334)" fill="white"/>
<path fill-rule="evenodd" clip-rule="evenodd" d="M392 69H424C436.703 69 447 79.2975 447 92C447 104.703 436.703 115 424 115H392C379.297 115 369 104.703 369 92C369 79.2975 379.297 69 392 69ZM392 73C381.507 73 373 81.5066 373 92C373 102.493 381.507 111 392 111H424C434.493 111 443 102.493 443 92C443 81.5066 434.493 73 424 73H392Z" fill="#0084FF"/>
<rect x="376" y="76" width="64" height="32" rx="16" fill="#217CBB"/>
<path d="M437 92C437 99.1797 431.18 105 424 105C416.82 105 411 99.1797 411 92C411 84.8203 416.82 79 424 79C431.18 79 437 84.8203 437 92Z" fill="white"/>
<rect width="270" height="40" transform="translate(544 1.33337)" fill="#F1F1F6"/>
<path d="M561.376 26.3334L560.651 23.9545H557.008L556.283 26.3334H554L557.527 16.2982H560.118L563.659 26.3334H561.376ZM560.146 22.1771C559.476 20.0215 559.097 18.8024 559.011 18.5199C558.929 18.2373 558.869 18.014 558.833 17.85C558.683 18.4333 558.252 19.8757 557.541 22.1771H560.146ZM567.779 26.4701C565.4 26.4701 564.211 25.1644 564.211 22.5531C564.211 21.2543 564.534 20.2631 565.182 19.5795C565.829 18.8913 566.756 18.5472 567.964 18.5472C568.848 18.5472 569.641 18.7204 570.343 19.0668L569.728 20.6801C569.399 20.5479 569.094 20.4408 568.812 20.3588C568.529 20.2722 568.246 20.2289 567.964 20.2289C566.879 20.2289 566.337 20.9991 566.337 22.5394C566.337 24.0342 566.879 24.7816 567.964 24.7816C568.365 24.7816 568.736 24.7292 569.078 24.6244C569.42 24.515 569.762 24.3464 570.104 24.1185V25.9027C569.766 26.1169 569.424 26.265 569.078 26.347C568.736 26.4291 568.303 26.4701 567.779 26.4701ZM575.017 24.809C575.381 24.809 575.819 24.7292 576.329 24.5697V26.1215C575.81 26.3539 575.172 26.4701 574.415 26.4701C573.581 26.4701 572.973 26.2605 572.59 25.8412C572.212 25.4174 572.022 24.7839 572.022 23.9408V20.2562H571.024V19.3744L572.173 18.6771L572.774 17.0638H574.107V18.6908H576.247V20.2562H574.107V23.9408C574.107 24.237 574.189 24.4558 574.353 24.597C574.522 24.7383 574.743 24.809 575.017 24.809ZM577.708 16.7152C577.708 16.0362 578.086 15.6967 578.843 15.6967C579.599 15.6967 579.977 16.0362 579.977 16.7152C579.977 17.0388 579.882 17.2917 579.69 17.474C579.504 17.6517 579.221 17.7406 578.843 17.7406C578.086 17.7406 577.708 17.3988 577.708 16.7152ZM579.882 26.3334H577.797V18.6908H579.882V26.3334ZM583.81 26.3334L580.898 18.6908H583.079L584.556 23.0453C584.72 23.5967 584.822 24.1185 584.863 24.6107H584.904C584.927 24.1732 585.03 23.6514 585.212 23.0453L586.682 18.6908H588.862L585.95 26.3334H583.81ZM593.044 20.0306C592.602 20.0306 592.255 20.1719 592.005 20.4545C591.754 20.7325 591.611 21.1289 591.574 21.6439H594.5C594.491 21.1289 594.356 20.7325 594.097 20.4545C593.837 20.1719 593.486 20.0306 593.044 20.0306ZM593.338 26.4701C592.107 26.4701 591.146 26.1306 590.453 25.4515C589.76 24.7725 589.414 23.8109 589.414 22.5668C589.414 21.2862 589.733 20.2972 590.371 19.6C591.014 18.8982 591.9 18.5472 593.03 18.5472C594.11 18.5472 594.951 18.8549 595.553 19.4701C596.154 20.0853 596.455 20.9353 596.455 22.0199V23.0316H591.526C591.549 23.6241 591.725 24.0866 592.053 24.4193C592.381 24.752 592.841 24.9183 593.434 24.9183C593.894 24.9183 594.329 24.8705 594.739 24.7748C595.149 24.6791 595.578 24.5264 596.024 24.3168V25.9301C595.66 26.1123 595.27 26.2468 594.855 26.3334C594.441 26.4245 593.935 26.4701 593.338 26.4701ZM603.868 26.3334H601.783V16.3392H607.512V18.0756H603.868V20.6527H607.259V22.3822H603.868V26.3334ZM610.88 22.4984C610.88 23.2549 611.003 23.8269 611.249 24.2142C611.5 24.6016 611.905 24.7953 612.466 24.7953C613.022 24.7953 613.42 24.6039 613.662 24.2211C613.908 23.8337 614.031 23.2595 614.031 22.4984C614.031 21.7419 613.908 21.1745 613.662 20.7963C613.416 20.418 613.013 20.2289 612.452 20.2289C611.896 20.2289 611.495 20.418 611.249 20.7963C611.003 21.17 610.88 21.7373 610.88 22.4984ZM616.164 22.4984C616.164 23.7426 615.836 24.7155 615.18 25.4174C614.523 26.1192 613.61 26.4701 612.438 26.4701C611.705 26.4701 611.057 26.3106 610.497 25.9916C609.936 25.668 609.506 25.2054 609.205 24.6039C608.904 24.0023 608.754 23.3005 608.754 22.4984C608.754 21.2497 609.08 20.279 609.731 19.5863C610.383 18.8936 611.299 18.5472 612.479 18.5472C613.213 18.5472 613.86 18.7067 614.421 19.0258C614.981 19.3448 615.412 19.8028 615.713 20.3998C616.014 20.9968 616.164 21.6963 616.164 22.4984ZM620.906 26.4701C618.527 26.4701 617.338 25.1644 617.338 22.5531C617.338 21.2543 617.661 20.2631 618.308 19.5795C618.956 18.8913 619.883 18.5472 621.091 18.5472C621.975 18.5472 622.768 18.7204 623.47 19.0668L622.854 20.6801C622.526 20.5479 622.221 20.4408 621.938 20.3588C621.656 20.2722 621.373 20.2289 621.091 20.2289C620.006 20.2289 619.464 20.9991 619.464 22.5394C619.464 24.0342 620.006 24.7816 621.091 24.7816C621.492 24.7816 621.863 24.7292 622.205 24.6244C622.547 24.515 622.889 24.3464 623.23 24.1185V25.9027C622.893 26.1169 622.551 26.265 622.205 26.347C621.863 26.4291 621.43 26.4701 620.906 26.4701ZM630.338 26.3334L630.057 25.3558H629.948C629.725 25.7113 629.408 25.987 628.998 26.183C628.588 26.3744 628.121 26.4701 627.597 26.4701C626.699 26.4701 626.022 26.2308 625.566 25.7523C625.111 25.2692 624.883 24.5765 624.883 23.6742V18.6908H626.968V23.1547C626.968 23.7061 627.066 24.1208 627.262 24.3988C627.458 24.6722 627.77 24.809 628.198 24.809C628.781 24.809 629.203 24.6153 629.463 24.2279C629.723 23.836 629.852 23.1888 629.852 22.2865V18.6908H631.937V26.3334H630.338ZM639.373 24.0638C639.373 24.8477 639.099 25.4447 638.553 25.8549C638.01 26.265 637.197 26.4701 636.112 26.4701C635.556 26.4701 635.082 26.4314 634.69 26.3539C634.298 26.281 633.931 26.1716 633.59 26.0258V24.3031C633.977 24.4854 634.412 24.6381 634.895 24.7611C635.383 24.8842 635.811 24.9457 636.18 24.9457C636.937 24.9457 637.315 24.7269 637.315 24.2894C637.315 24.1254 637.265 23.9932 637.165 23.8929C637.065 23.7881 636.891 23.6719 636.645 23.5443C636.399 23.4122 636.071 23.2595 635.661 23.0863C635.073 22.8402 634.64 22.6123 634.362 22.4027C634.089 22.1931 633.888 21.9538 633.761 21.6849C633.638 21.4115 633.576 21.0765 633.576 20.6801C633.576 20.001 633.838 19.4769 634.362 19.1078C634.891 18.7341 635.638 18.5472 636.604 18.5472C637.525 18.5472 638.42 18.7478 639.291 19.1488L638.662 20.6527C638.279 20.4886 637.921 20.3542 637.589 20.2494C637.256 20.1446 636.916 20.0922 636.57 20.0922C635.955 20.0922 635.647 20.2585 635.647 20.5912C635.647 20.778 635.745 20.9398 635.941 21.0765C636.142 21.2133 636.577 21.4161 637.247 21.6849C637.844 21.9265 638.281 22.1521 638.559 22.3617C638.837 22.5713 639.042 22.8129 639.175 23.0863C639.307 23.3597 639.373 23.6856 639.373 24.0638Z" fill="#464B52"/>
<rect width="270" height="99.3333" transform="translate(544 42.3334)" fill="white"/>
<rect opacity="0.4" x="647" y="76" width="64" height="32" rx="16" fill="#217CBB"/>
<path d="M708 92C708 99.1797 702.18 105 695 105C687.82 105 682 99.1797 682 92C682 84.8203 687.82 79 695 79C702.18 79 708 84.8203 708 92Z" fill="white"/>
<rect width="271" height="40" transform="translate(815 1.33337)" fill="#F1F1F6"/>
<path d="M832.376 26.3334L831.651 23.9545H828.008L827.283 26.3334H825L828.527 16.2982H831.118L834.659 26.3334H832.376ZM831.146 22.1771C830.476 20.0215 830.097 18.8024 830.011 18.5199C829.929 18.2373 829.869 18.014 829.833 17.85C829.683 18.4333 829.252 19.8757 828.541 22.1771H831.146ZM838.779 26.4701C836.4 26.4701 835.211 25.1644 835.211 22.5531C835.211 21.2543 835.534 20.2631 836.182 19.5795C836.829 18.8913 837.756 18.5472 838.964 18.5472C839.848 18.5472 840.641 18.7204 841.343 19.0668L840.728 20.6801C840.399 20.5479 840.094 20.4408 839.812 20.3588C839.529 20.2722 839.246 20.2289 838.964 20.2289C837.879 20.2289 837.337 20.9991 837.337 22.5394C837.337 24.0342 837.879 24.7816 838.964 24.7816C839.365 24.7816 839.736 24.7292 840.078 24.6244C840.42 24.515 840.762 24.3464 841.104 24.1185V25.9027C840.766 26.1169 840.424 26.265 840.078 26.347C839.736 26.4291 839.303 26.4701 838.779 26.4701ZM846.017 24.809C846.381 24.809 846.819 24.7292 847.329 24.5697V26.1215C846.81 26.3539 846.172 26.4701 845.415 26.4701C844.581 26.4701 843.973 26.2605 843.59 25.8412C843.212 25.4174 843.022 24.7839 843.022 23.9408V20.2562H842.024V19.3744L843.173 18.6771L843.774 17.0638H845.107V18.6908H847.247V20.2562H845.107V23.9408C845.107 24.237 845.189 24.4558 845.353 24.597C845.522 24.7383 845.743 24.809 846.017 24.809ZM848.708 16.7152C848.708 16.0362 849.086 15.6967 849.843 15.6967C850.599 15.6967 850.977 16.0362 850.977 16.7152C850.977 17.0388 850.882 17.2917 850.69 17.474C850.504 17.6517 850.221 17.7406 849.843 17.7406C849.086 17.7406 848.708 17.3988 848.708 16.7152ZM850.882 26.3334H848.797V18.6908H850.882V26.3334ZM854.81 26.3334L851.898 18.6908H854.079L855.556 23.0453C855.72 23.5967 855.822 24.1185 855.863 24.6107H855.904C855.927 24.1732 856.03 23.6514 856.212 23.0453L857.682 18.6908H859.862L856.95 26.3334H854.81ZM864.044 20.0306C863.602 20.0306 863.255 20.1719 863.005 20.4545C862.754 20.7325 862.611 21.1289 862.574 21.6439H865.5C865.491 21.1289 865.356 20.7325 865.097 20.4545C864.837 20.1719 864.486 20.0306 864.044 20.0306ZM864.338 26.4701C863.107 26.4701 862.146 26.1306 861.453 25.4515C860.76 24.7725 860.414 23.8109 860.414 22.5668C860.414 21.2862 860.733 20.2972 861.371 19.6C862.014 18.8982 862.9 18.5472 864.03 18.5472C865.11 18.5472 865.951 18.8549 866.553 19.4701C867.154 20.0853 867.455 20.9353 867.455 22.0199V23.0316H862.526C862.549 23.6241 862.725 24.0866 863.053 24.4193C863.381 24.752 863.841 24.9183 864.434 24.9183C864.894 24.9183 865.329 24.8705 865.739 24.7748C866.149 24.6791 866.578 24.5264 867.024 24.3168V25.9301C866.66 26.1123 866.27 26.2468 865.855 26.3334C865.441 26.4245 864.935 26.4701 864.338 26.4701ZM878.539 26.3334H872.783V16.3392H878.539V18.0756H874.902V20.2699H878.286V22.0062H874.902V24.5834H878.539V26.3334ZM884.648 18.5472C884.931 18.5472 885.166 18.5677 885.352 18.6088L885.195 20.5638C885.027 20.5183 884.821 20.4955 884.58 20.4955C883.915 20.4955 883.395 20.6664 883.021 21.0082C882.652 21.35 882.468 21.8285 882.468 22.4437V26.3334H880.383V18.6908H881.962L882.269 19.976H882.372C882.609 19.5476 882.928 19.2035 883.329 18.9437C883.735 18.6794 884.174 18.5472 884.648 18.5472ZM890.922 18.5472C891.204 18.5472 891.439 18.5677 891.626 18.6088L891.469 20.5638C891.3 20.5183 891.095 20.4955 890.853 20.4955C890.188 20.4955 889.668 20.6664 889.295 21.0082C888.926 21.35 888.741 21.8285 888.741 22.4437V26.3334H886.656V18.6908H888.235L888.543 19.976H888.645C888.882 19.5476 889.201 19.2035 889.602 18.9437C890.008 18.6794 890.448 18.5472 890.922 18.5472ZM894.591 22.4984C894.591 23.2549 894.714 23.8269 894.96 24.2142C895.21 24.6016 895.616 24.7953 896.177 24.7953C896.733 24.7953 897.131 24.6039 897.373 24.2211C897.619 23.8337 897.742 23.2595 897.742 22.4984C897.742 21.7419 897.619 21.1745 897.373 20.7963C897.127 20.418 896.723 20.2289 896.163 20.2289C895.607 20.2289 895.206 20.418 894.96 20.7963C894.714 21.17 894.591 21.7373 894.591 22.4984ZM899.875 22.4984C899.875 23.7426 899.547 24.7155 898.89 25.4174C898.234 26.1192 897.32 26.4701 896.149 26.4701C895.416 26.4701 894.768 26.3106 894.208 25.9916C893.647 25.668 893.217 25.2054 892.916 24.6039C892.615 24.0023 892.465 23.3005 892.465 22.4984C892.465 21.2497 892.791 20.279 893.442 19.5863C894.094 18.8936 895.01 18.5472 896.19 18.5472C896.924 18.5472 897.571 18.7067 898.132 19.0258C898.692 19.3448 899.123 19.8028 899.424 20.3998C899.724 20.9968 899.875 21.6963 899.875 22.4984ZM905.779 18.5472C906.062 18.5472 906.296 18.5677 906.483 18.6088L906.326 20.5638C906.157 20.5183 905.952 20.4955 905.711 20.4955C905.045 20.4955 904.526 20.6664 904.152 21.0082C903.783 21.35 903.598 21.8285 903.598 22.4437V26.3334H901.513V18.6908H903.093L903.4 19.976H903.503C903.74 19.5476 904.059 19.2035 904.46 18.9437C904.865 18.6794 905.305 18.5472 905.779 18.5472Z" fill="#464B52"/>
<rect width="271" height="99.3333" transform="translate(815 42.3334)" fill="white"/>
<path fill-rule="evenodd" clip-rule="evenodd" d="M966.5 69H934.5C921.797 69 911.5 79.2975 911.5 92C911.5 104.703 921.797 115 934.5 115H966.5C979.203 115 989.5 104.703 989.5 92C989.5 79.2975 979.203 69 966.5 69ZM966.5 73C976.993 73 985.5 81.5066 985.5 92C985.5 102.493 976.993 111 966.5 111H934.5C924.007 111 915.5 102.493 915.5 92C915.5 81.5066 924.007 73 934.5 73H966.5Z" fill="#B44E2A"/>
<rect width="64" height="32" rx="16" transform="matrix(-1 0 0 1 982.5 76)" fill="#217CBB"/>
<path d="M921.5 92C921.5 99.1797 927.32 105 934.5 105C941.68 105 947.5 99.1797 947.5 92C947.5 84.8203 941.68 79 934.5 79C927.32 79 921.5 84.8203 921.5 92Z" fill="white"/>
<rect width="1086" height="142.333" transform="translate(0 174.667)" fill="#C4C4C4"/>
<rect width="271" height="40" transform="translate(1 175.667)" fill="#F1F1F6"/>
<path d="M20.5498 195.574C20.5498 197.219 20.0804 198.479 19.1416 199.354C18.2074 200.229 16.8561 200.667 15.0879 200.667H12.2578V190.673H15.3955C17.027 190.673 18.2939 191.103 19.1963 191.965C20.0986 192.826 20.5498 194.029 20.5498 195.574ZM18.3486 195.629C18.3486 193.482 17.4007 192.409 15.5049 192.409H14.377V198.917H15.2861C17.3278 198.917 18.3486 197.821 18.3486 195.629ZM25.5381 194.364C25.096 194.364 24.7497 194.505 24.499 194.788C24.2484 195.066 24.1048 195.462 24.0683 195.977H26.9941C26.985 195.462 26.8506 195.066 26.5908 194.788C26.331 194.505 25.9801 194.364 25.5381 194.364ZM25.832 200.803C24.6015 200.803 23.64 200.464 22.9473 199.785C22.2545 199.106 21.9082 198.144 21.9082 196.9C21.9082 195.62 22.2272 194.631 22.8652 193.933C23.5078 193.232 24.3942 192.881 25.5244 192.881C26.6045 192.881 27.4453 193.188 28.0469 193.803C28.6484 194.419 28.9492 195.269 28.9492 196.353V197.365H24.0205C24.0433 197.957 24.2187 198.42 24.5469 198.753C24.875 199.085 25.3353 199.252 25.9277 199.252C26.388 199.252 26.8232 199.204 27.2334 199.108C27.6435 199.012 28.0719 198.86 28.5185 198.65V200.263C28.154 200.446 27.7643 200.58 27.3496 200.667C26.9349 200.758 26.429 200.803 25.832 200.803ZM34.7851 194.59H32.9804V200.667H30.8955V194.59H29.747V193.585L30.8955 193.024V192.464C30.8955 191.593 31.1097 190.957 31.5381 190.556C31.9664 190.155 32.6523 189.955 33.5957 189.955C34.3157 189.955 34.956 190.062 35.5166 190.276L34.9834 191.807C34.5641 191.675 34.1767 191.609 33.8213 191.609C33.525 191.609 33.3108 191.698 33.1787 191.876C33.0465 192.049 32.9804 192.272 32.9804 192.546V193.024H34.7851V194.59ZM40.7578 200.667L40.3544 199.628H40.2998C39.9488 200.07 39.5865 200.377 39.2128 200.551C38.8437 200.719 38.3606 200.803 37.7636 200.803C37.0299 200.803 36.4511 200.594 36.0273 200.175C35.608 199.755 35.3984 199.158 35.3984 198.384C35.3984 197.572 35.6809 196.975 36.246 196.593C36.8157 196.205 37.6725 195.991 38.8164 195.95L40.1425 195.909V195.574C40.1425 194.799 39.746 194.412 38.9531 194.412C38.3424 194.412 37.6246 194.596 36.7998 194.966L36.1093 193.557C36.9889 193.097 37.9641 192.867 39.0351 192.867C40.0605 192.867 40.8466 193.09 41.3935 193.537C41.9404 193.983 42.2138 194.663 42.2138 195.574V200.667H40.7578ZM40.1425 197.126L39.3359 197.153C38.7298 197.171 38.2786 197.281 37.9824 197.481C37.6862 197.682 37.538 197.987 37.538 198.397C37.538 198.985 37.8753 199.279 38.5498 199.279C39.0328 199.279 39.4179 199.14 39.705 198.862C39.9967 198.584 40.1425 198.215 40.1425 197.755V197.126ZM49.6972 200.667L49.4169 199.689H49.3076C49.0842 200.045 48.7675 200.32 48.3574 200.516C47.9472 200.708 47.4801 200.803 46.956 200.803C46.0582 200.803 45.3814 200.564 44.9257 200.086C44.47 199.603 44.2421 198.91 44.2421 198.008V193.024H46.3271V197.488C46.3271 198.039 46.4251 198.454 46.621 198.732C46.817 199.006 47.1292 199.142 47.5576 199.142C48.1409 199.142 48.5624 198.949 48.8222 198.561C49.082 198.169 49.2119 197.522 49.2119 196.62V193.024H51.2968V200.667H49.6972ZM55.4853 200.667H53.4003V190.03H55.4853V200.667ZM60.8153 199.142C61.1799 199.142 61.6174 199.063 62.1278 198.903V200.455C61.6083 200.687 60.9703 200.803 60.2138 200.803C59.3798 200.803 58.7714 200.594 58.3886 200.175C58.0103 199.751 57.8212 199.117 57.8212 198.274V194.59H56.8231V193.708L57.9716 193.01L58.5731 191.397H59.9062V193.024H62.0458V194.59H59.9062V198.274C59.9062 198.57 59.9882 198.789 60.1522 198.93C60.3209 199.072 60.5419 199.142 60.8153 199.142Z" fill="#464B52"/>
<rect width="271" height="99.3333" transform="translate(1 216.667)" fill="white"/>
<rect x="104.5" y="250.333" width="64" height="32" rx="16" fill="#90939F"/>
<path d="M107.5 266.333C107.5 273.513 113.32 279.333 120.5 279.333C127.68 279.333 133.5 273.513 133.5 266.333C133.5 259.154 127.68 253.333 120.5 253.333C113.32 253.333 107.5 259.154 107.5 266.333Z" fill="white"/>
<rect width="270" height="40" transform="translate(273 175.667)" fill="#F1F1F6"/>
<path d="M292.55 195.574C292.55 197.219 292.08 198.479 291.142 199.354C290.207 200.229 288.856 200.667 287.088 200.667H284.258V190.673H287.396C289.027 190.673 290.294 191.103 291.196 191.965C292.099 192.826 292.55 194.029 292.55 195.574ZM290.349 195.629C290.349 193.482 289.401 192.409 287.505 192.409H286.377V198.917H287.286C289.328 198.917 290.349 197.821 290.349 195.629ZM297.538 194.364C297.096 194.364 296.75 194.505 296.499 194.788C296.248 195.066 296.105 195.462 296.068 195.977H298.994C298.985 195.462 298.851 195.066 298.591 194.788C298.331 194.505 297.98 194.364 297.538 194.364ZM297.832 200.803C296.602 200.803 295.64 200.464 294.947 199.785C294.255 199.106 293.908 198.144 293.908 196.9C293.908 195.62 294.227 194.631 294.865 193.933C295.508 193.232 296.394 192.881 297.524 192.881C298.604 192.881 299.445 193.188 300.047 193.803C300.648 194.419 300.949 195.269 300.949 196.353V197.365H296.02C296.043 197.957 296.219 198.42 296.547 198.753C296.875 199.085 297.335 199.252 297.928 199.252C298.388 199.252 298.823 199.204 299.233 199.108C299.644 199.012 300.072 198.86 300.519 198.65V200.263C300.154 200.446 299.764 200.58 299.35 200.667C298.935 200.758 298.429 200.803 297.832 200.803ZM306.785 194.59H304.98V200.667H302.895V194.59H301.747V193.585L302.895 193.024V192.464C302.895 191.593 303.11 190.957 303.538 190.556C303.966 190.155 304.652 189.955 305.596 189.955C306.316 189.955 306.956 190.062 307.517 190.276L306.983 191.807C306.564 191.675 306.177 191.609 305.821 191.609C305.525 191.609 305.311 191.698 305.179 191.876C305.047 192.049 304.98 192.272 304.98 192.546V193.024H306.785V194.59ZM312.758 200.667L312.354 199.628H312.3C311.949 200.07 311.587 200.377 311.213 200.551C310.844 200.719 310.361 200.803 309.764 200.803C309.03 200.803 308.451 200.594 308.027 200.175C307.608 199.755 307.398 199.158 307.398 198.384C307.398 197.572 307.681 196.975 308.246 196.593C308.816 196.205 309.672 195.991 310.816 195.95L312.143 195.909V195.574C312.143 194.799 311.746 194.412 310.953 194.412C310.342 194.412 309.625 194.596 308.8 194.966L308.109 193.557C308.989 193.097 309.964 192.867 311.035 192.867C312.06 192.867 312.847 193.09 313.394 193.537C313.94 193.983 314.214 194.663 314.214 195.574V200.667H312.758ZM312.143 197.126L311.336 197.153C310.73 197.171 310.279 197.281 309.982 197.481C309.686 197.682 309.538 197.987 309.538 198.397C309.538 198.985 309.875 199.279 310.55 199.279C311.033 199.279 311.418 199.14 311.705 198.862C311.997 198.584 312.143 198.215 312.143 197.755V197.126ZM321.697 200.667L321.417 199.689H321.308C321.084 200.045 320.768 200.32 320.357 200.516C319.947 200.708 319.48 200.803 318.956 200.803C318.058 200.803 317.381 200.564 316.926 200.086C316.47 199.603 316.242 198.91 316.242 198.008V193.024H318.327V197.488C318.327 198.039 318.425 198.454 318.621 198.732C318.817 199.006 319.129 199.142 319.558 199.142C320.141 199.142 320.562 198.949 320.822 198.561C321.082 198.169 321.212 197.522 321.212 196.62V193.024H323.297V200.667H321.697ZM327.485 200.667H325.4V190.03H327.485V200.667ZM332.815 199.142C333.18 199.142 333.617 199.063 334.128 198.903V200.455C333.608 200.687 332.97 200.803 332.214 200.803C331.38 200.803 330.771 200.594 330.389 200.175C330.01 199.751 329.821 199.117 329.821 198.274V194.59H328.823V193.708L329.972 193.01L330.573 191.397H331.906V193.024H334.046V194.59H331.906V198.274C331.906 198.57 331.988 198.789 332.152 198.93C332.321 199.072 332.542 199.142 332.815 199.142ZM341.397 200.667H339.312V190.673H345.041V192.409H341.397V194.986H344.788V196.716H341.397V200.667ZM348.409 196.832C348.409 197.588 348.532 198.16 348.778 198.548C349.029 198.935 349.434 199.129 349.995 199.129C350.551 199.129 350.95 198.937 351.191 198.554C351.437 198.167 351.56 197.593 351.56 196.832C351.56 196.075 351.437 195.508 351.191 195.13C350.945 194.751 350.542 194.562 349.981 194.562C349.425 194.562 349.024 194.751 348.778 195.13C348.532 195.503 348.409 196.071 348.409 196.832ZM353.693 196.832C353.693 198.076 353.365 199.049 352.709 199.751C352.053 200.453 351.139 200.803 349.968 200.803C349.234 200.803 348.587 200.644 348.026 200.325C347.466 200.001 347.035 199.539 346.734 198.937C346.433 198.336 346.283 197.634 346.283 196.832C346.283 195.583 346.609 194.612 347.261 193.92C347.912 193.227 348.828 192.881 350.009 192.881C350.742 192.881 351.39 193.04 351.95 193.359C352.511 193.678 352.941 194.136 353.242 194.733C353.543 195.33 353.693 196.03 353.693 196.832ZM358.435 200.803C356.056 200.803 354.867 199.498 354.867 196.886C354.867 195.588 355.191 194.596 355.838 193.913C356.485 193.225 357.412 192.881 358.62 192.881C359.504 192.881 360.297 193.054 360.999 193.4L360.384 195.013C360.056 194.881 359.75 194.774 359.468 194.692C359.185 194.606 358.903 194.562 358.62 194.562C357.535 194.562 356.993 195.332 356.993 196.873C356.993 198.368 357.535 199.115 358.62 199.115C359.021 199.115 359.392 199.063 359.734 198.958C360.076 198.848 360.418 198.68 360.76 198.452V200.236C360.422 200.45 360.081 200.598 359.734 200.68C359.392 200.762 358.959 200.803 358.435 200.803ZM367.867 200.667L367.587 199.689H367.477C367.254 200.045 366.937 200.32 366.527 200.516C366.117 200.708 365.65 200.803 365.126 200.803C364.228 200.803 363.551 200.564 363.096 200.086C362.64 199.603 362.412 198.91 362.412 198.008V193.024H364.497V197.488C364.497 198.039 364.595 198.454 364.791 198.732C364.987 199.006 365.299 199.142 365.727 199.142C366.311 199.142 366.732 198.949 366.992 198.561C367.252 198.169 367.382 197.522 367.382 196.62V193.024H369.467V200.667H367.867ZM376.902 198.397C376.902 199.181 376.629 199.778 376.082 200.188C375.54 200.598 374.726 200.803 373.641 200.803C373.085 200.803 372.611 200.765 372.22 200.687C371.828 200.614 371.461 200.505 371.119 200.359V198.636C371.506 198.819 371.942 198.971 372.425 199.094C372.912 199.218 373.341 199.279 373.71 199.279C374.466 199.279 374.845 199.06 374.845 198.623C374.845 198.459 374.794 198.327 374.694 198.226C374.594 198.121 374.421 198.005 374.175 197.878C373.929 197.746 373.6 197.593 373.19 197.42C372.602 197.174 372.169 196.946 371.891 196.736C371.618 196.526 371.417 196.287 371.29 196.018C371.167 195.745 371.105 195.41 371.105 195.013C371.105 194.334 371.367 193.81 371.891 193.441C372.42 193.067 373.167 192.881 374.134 192.881C375.054 192.881 375.95 193.081 376.82 193.482L376.191 194.986C375.808 194.822 375.451 194.688 375.118 194.583C374.785 194.478 374.446 194.426 374.099 194.426C373.484 194.426 373.177 194.592 373.177 194.925C373.177 195.111 373.275 195.273 373.471 195.41C373.671 195.547 374.106 195.749 374.776 196.018C375.373 196.26 375.811 196.485 376.089 196.695C376.367 196.905 376.572 197.146 376.704 197.42C376.836 197.693 376.902 198.019 376.902 198.397Z" fill="#464B52"/>
<rect width="270" height="99.3333" transform="translate(273 216.667)" fill="white"/>
<path fill-rule="evenodd" clip-rule="evenodd" d="M424 243.333H392C379.297 243.333 369 253.631 369 266.333C369 279.036 379.297 289.333 392 289.333H424C436.703 289.333 447 279.036 447 266.333C447 253.631 436.703 243.333 424 243.333ZM424 247.333C434.493 247.333 443 255.84 443 266.333C443 276.827 434.493 285.333 424 285.333H392C381.507 285.333 373 276.827 373 266.333C373 255.84 381.507 247.333 392 247.333H424Z" fill="#0084FF"/>
<rect width="64" height="32" rx="16" transform="matrix(-1 0 0 1 440 250.333)" fill="#90939F"/>
<path d="M379 266.333C379 273.513 384.82 279.333 392 279.333C399.18 279.333 405 273.513 405 266.333C405 259.154 399.18 253.333 392 253.333C384.82 253.333 379 259.154 379 266.333Z" fill="white"/>
<rect width="270" height="40" transform="translate(544 175.667)" fill="#F1F1F6"/>
<path d="M563.55 195.574C563.55 197.219 563.08 198.479 562.142 199.354C561.207 200.229 559.856 200.667 558.088 200.667H555.258V190.673H558.396C560.027 190.673 561.294 191.103 562.196 191.965C563.099 192.826 563.55 194.029 563.55 195.574ZM561.349 195.629C561.349 193.482 560.401 192.409 558.505 192.409H557.377V198.917H558.286C560.328 198.917 561.349 197.821 561.349 195.629ZM568.538 194.364C568.096 194.364 567.75 194.505 567.499 194.788C567.248 195.066 567.105 195.462 567.068 195.977H569.994C569.985 195.462 569.851 195.066 569.591 194.788C569.331 194.505 568.98 194.364 568.538 194.364ZM568.832 200.803C567.602 200.803 566.64 200.464 565.947 199.785C565.255 199.106 564.908 198.144 564.908 196.9C564.908 195.62 565.227 194.631 565.865 193.933C566.508 193.232 567.394 192.881 568.524 192.881C569.604 192.881 570.445 193.188 571.047 193.803C571.648 194.419 571.949 195.269 571.949 196.353V197.365H567.02C567.043 197.957 567.219 198.42 567.547 198.753C567.875 199.085 568.335 199.252 568.928 199.252C569.388 199.252 569.823 199.204 570.233 199.108C570.644 199.012 571.072 198.86 571.519 198.65V200.263C571.154 200.446 570.764 200.58 570.35 200.667C569.935 200.758 569.429 200.803 568.832 200.803ZM577.785 194.59H575.98V200.667H573.895V194.59H572.747V193.585L573.895 193.024V192.464C573.895 191.593 574.11 190.957 574.538 190.556C574.966 190.155 575.652 189.955 576.596 189.955C577.316 189.955 577.956 190.062 578.517 190.276L577.983 191.807C577.564 191.675 577.177 191.609 576.821 191.609C576.525 191.609 576.311 191.698 576.179 191.876C576.047 192.049 575.98 192.272 575.98 192.546V193.024H577.785V194.59ZM583.758 200.667L583.354 199.628H583.3C582.949 200.07 582.587 200.377 582.213 200.551C581.844 200.719 581.361 200.803 580.764 200.803C580.03 200.803 579.451 200.594 579.027 200.175C578.608 199.755 578.398 199.158 578.398 198.384C578.398 197.572 578.681 196.975 579.246 196.593C579.816 196.205 580.672 195.991 581.816 195.95L583.143 195.909V195.574C583.143 194.799 582.746 194.412 581.953 194.412C581.342 194.412 580.625 194.596 579.8 194.966L579.109 193.557C579.989 193.097 580.964 192.867 582.035 192.867C583.06 192.867 583.847 193.09 584.394 193.537C584.94 193.983 585.214 194.663 585.214 195.574V200.667H583.758ZM583.143 197.126L582.336 197.153C581.73 197.171 581.279 197.281 580.982 197.481C580.686 197.682 580.538 197.987 580.538 198.397C580.538 198.985 580.875 199.279 581.55 199.279C582.033 199.279 582.418 199.14 582.705 198.862C582.997 198.584 583.143 198.215 583.143 197.755V197.126ZM592.697 200.667L592.417 199.689H592.308C592.084 200.045 591.768 200.32 591.357 200.516C590.947 200.708 590.48 200.803 589.956 200.803C589.058 200.803 588.381 200.564 587.926 200.086C587.47 199.603 587.242 198.91 587.242 198.008V193.024H589.327V197.488C589.327 198.039 589.425 198.454 589.621 198.732C589.817 199.006 590.129 199.142 590.558 199.142C591.141 199.142 591.562 198.949 591.822 198.561C592.082 198.169 592.212 197.522 592.212 196.62V193.024H594.297V200.667H592.697ZM598.485 200.667H596.4V190.03H598.485V200.667ZM603.815 199.142C604.18 199.142 604.617 199.063 605.128 198.903V200.455C604.608 200.687 603.97 200.803 603.214 200.803C602.38 200.803 601.771 200.594 601.389 200.175C601.01 199.751 600.821 199.117 600.821 198.274V194.59H599.823V193.708L600.972 193.01L601.573 191.397H602.906V193.024H605.046V194.59H602.906V198.274C602.906 198.57 602.988 198.789 603.152 198.93C603.321 199.072 603.542 199.142 603.815 199.142ZM612.397 200.667H610.312V190.673H616.041V192.409H612.397V194.986H615.788V196.716H612.397V200.667ZM619.409 196.832C619.409 197.588 619.532 198.16 619.778 198.548C620.029 198.935 620.434 199.129 620.995 199.129C621.551 199.129 621.95 198.937 622.191 198.554C622.437 198.167 622.56 197.593 622.56 196.832C622.56 196.075 622.437 195.508 622.191 195.13C621.945 194.751 621.542 194.562 620.981 194.562C620.425 194.562 620.024 194.751 619.778 195.13C619.532 195.503 619.409 196.071 619.409 196.832ZM624.693 196.832C624.693 198.076 624.365 199.049 623.709 199.751C623.053 200.453 622.139 200.803 620.968 200.803C620.234 200.803 619.587 200.644 619.026 200.325C618.466 200.001 618.035 199.539 617.734 198.937C617.433 198.336 617.283 197.634 617.283 196.832C617.283 195.583 617.609 194.612 618.261 193.92C618.912 193.227 619.828 192.881 621.009 192.881C621.742 192.881 622.39 193.04 622.95 193.359C623.511 193.678 623.941 194.136 624.242 194.733C624.543 195.33 624.693 196.03 624.693 196.832ZM629.435 200.803C627.056 200.803 625.867 199.498 625.867 196.886C625.867 195.588 626.191 194.596 626.838 193.913C627.485 193.225 628.412 192.881 629.62 192.881C630.504 192.881 631.297 193.054 631.999 193.4L631.384 195.013C631.056 194.881 630.75 194.774 630.468 194.692C630.185 194.606 629.903 194.562 629.62 194.562C628.535 194.562 627.993 195.332 627.993 196.873C627.993 198.368 628.535 199.115 629.62 199.115C630.021 199.115 630.392 199.063 630.734 198.958C631.076 198.848 631.418 198.68 631.76 198.452V200.236C631.422 200.45 631.081 200.598 630.734 200.68C630.392 200.762 629.959 200.803 629.435 200.803ZM638.867 200.667L638.587 199.689H638.477C638.254 200.045 637.937 200.32 637.527 200.516C637.117 200.708 636.65 200.803 636.126 200.803C635.228 200.803 634.551 200.564 634.096 200.086C633.64 199.603 633.412 198.91 633.412 198.008V193.024H635.497V197.488C635.497 198.039 635.595 198.454 635.791 198.732C635.987 199.006 636.299 199.142 636.727 199.142C637.311 199.142 637.732 198.949 637.992 198.561C638.252 198.169 638.382 197.522 638.382 196.62V193.024H640.467V200.667H638.867ZM647.902 198.397C647.902 199.181 647.629 199.778 647.082 200.188C646.54 200.598 645.726 200.803 644.641 200.803C644.085 200.803 643.611 200.765 643.22 200.687C642.828 200.614 642.461 200.505 642.119 200.359V198.636C642.506 198.819 642.942 198.971 643.425 199.094C643.912 199.218 644.341 199.279 644.71 199.279C645.466 199.279 645.845 199.06 645.845 198.623C645.845 198.459 645.794 198.327 645.694 198.226C645.594 198.121 645.421 198.005 645.175 197.878C644.929 197.746 644.6 197.593 644.19 197.42C643.602 197.174 643.169 196.946 642.891 196.736C642.618 196.526 642.417 196.287 642.29 196.018C642.167 195.745 642.105 195.41 642.105 195.013C642.105 194.334 642.367 193.81 642.891 193.441C643.42 193.067 644.167 192.881 645.134 192.881C646.054 192.881 646.95 193.081 647.82 193.482L647.191 194.986C646.808 194.822 646.451 194.688 646.118 194.583C645.785 194.478 645.446 194.426 645.099 194.426C644.484 194.426 644.177 194.592 644.177 194.925C644.177 195.111 644.275 195.273 644.471 195.41C644.671 195.547 645.106 195.749 645.776 196.018C646.373 196.26 646.811 196.485 647.089 196.695C647.367 196.905 647.572 197.146 647.704 197.42C647.836 197.693 647.902 198.019 647.902 198.397Z" fill="#464B52"/>
<rect width="270" height="99.3333" transform="translate(544 216.667)" fill="white"/>
<rect opacity="0.4" width="64" height="32" rx="16" transform="matrix(-1 0 0 1 711 250.333)" fill="#90939F"/>
<path d="M650 266.333C650 273.513 655.82 279.333 663 279.333C670.18 279.333 676 273.513 676 266.333C676 259.154 670.18 253.333 663 253.333C655.82 253.333 650 259.154 650 266.333Z" fill="white"/>
<rect width="269" height="40" transform="translate(816 175.667)" fill="#F1F1F6"/>
<path d="M835.55 195.574C835.55 197.219 835.08 198.479 834.142 199.354C833.207 200.229 831.856 200.667 830.088 200.667H827.258V190.673H830.396C832.027 190.673 833.294 191.103 834.196 191.965C835.099 192.826 835.55 194.029 835.55 195.574ZM833.349 195.629C833.349 193.482 832.401 192.409 830.505 192.409H829.377V198.917H830.286C832.328 198.917 833.349 197.821 833.349 195.629ZM840.538 194.364C840.096 194.364 839.75 194.505 839.499 194.788C839.248 195.066 839.105 195.462 839.068 195.977H841.994C841.985 195.462 841.851 195.066 841.591 194.788C841.331 194.505 840.98 194.364 840.538 194.364ZM840.832 200.803C839.602 200.803 838.64 200.464 837.947 199.785C837.255 199.106 836.908 198.144 836.908 196.9C836.908 195.62 837.227 194.631 837.865 193.933C838.508 193.232 839.394 192.881 840.524 192.881C841.604 192.881 842.445 193.188 843.047 193.803C843.648 194.419 843.949 195.269 843.949 196.353V197.365H839.02C839.043 197.957 839.219 198.42 839.547 198.753C839.875 199.085 840.335 199.252 840.928 199.252C841.388 199.252 841.823 199.204 842.233 199.108C842.644 199.012 843.072 198.86 843.519 198.65V200.263C843.154 200.446 842.764 200.58 842.35 200.667C841.935 200.758 841.429 200.803 840.832 200.803ZM849.785 194.59H847.98V200.667H845.895V194.59H844.747V193.585L845.895 193.024V192.464C845.895 191.593 846.11 190.957 846.538 190.556C846.966 190.155 847.652 189.955 848.596 189.955C849.316 189.955 849.956 190.062 850.517 190.276L849.983 191.807C849.564 191.675 849.177 191.609 848.821 191.609C848.525 191.609 848.311 191.698 848.179 191.876C848.047 192.049 847.98 192.272 847.98 192.546V193.024H849.785V194.59ZM855.758 200.667L855.354 199.628H855.3C854.949 200.07 854.587 200.377 854.213 200.551C853.844 200.719 853.361 200.803 852.764 200.803C852.03 200.803 851.451 200.594 851.027 200.175C850.608 199.755 850.398 199.158 850.398 198.384C850.398 197.572 850.681 196.975 851.246 196.593C851.816 196.205 852.672 195.991 853.816 195.95L855.143 195.909V195.574C855.143 194.799 854.746 194.412 853.953 194.412C853.342 194.412 852.625 194.596 851.8 194.966L851.109 193.557C851.989 193.097 852.964 192.867 854.035 192.867C855.06 192.867 855.847 193.09 856.394 193.537C856.94 193.983 857.214 194.663 857.214 195.574V200.667H855.758ZM855.143 197.126L854.336 197.153C853.73 197.171 853.279 197.281 852.982 197.481C852.686 197.682 852.538 197.987 852.538 198.397C852.538 198.985 852.875 199.279 853.55 199.279C854.033 199.279 854.418 199.14 854.705 198.862C854.997 198.584 855.143 198.215 855.143 197.755V197.126ZM864.697 200.667L864.417 199.689H864.308C864.084 200.045 863.768 200.32 863.357 200.516C862.947 200.708 862.48 200.803 861.956 200.803C861.058 200.803 860.381 200.564 859.926 200.086C859.47 199.603 859.242 198.91 859.242 198.008V193.024H861.327V197.488C861.327 198.039 861.425 198.454 861.621 198.732C861.817 199.006 862.129 199.142 862.558 199.142C863.141 199.142 863.562 198.949 863.822 198.561C864.082 198.169 864.212 197.522 864.212 196.62V193.024H866.297V200.667H864.697ZM870.485 200.667H868.4V190.03H870.485V200.667ZM875.815 199.142C876.18 199.142 876.617 199.063 877.128 198.903V200.455C876.608 200.687 875.97 200.803 875.214 200.803C874.38 200.803 873.771 200.594 873.389 200.175C873.01 199.751 872.821 199.117 872.821 198.274V194.59H871.823V193.708L872.972 193.01L873.573 191.397H874.906V193.024H877.046V194.59H874.906V198.274C874.906 198.57 874.988 198.789 875.152 198.93C875.321 199.072 875.542 199.142 875.815 199.142ZM888.068 200.667H882.312V190.673H888.068V192.409H884.432V194.603H887.815V196.34H884.432V198.917H888.068V200.667ZM894.178 192.881C894.46 192.881 894.695 192.901 894.882 192.942L894.724 194.897C894.556 194.852 894.351 194.829 894.109 194.829C893.444 194.829 892.924 195 892.551 195.342C892.181 195.683 891.997 196.162 891.997 196.777V200.667H889.912V193.024H891.491L891.799 194.309H891.901C892.138 193.881 892.457 193.537 892.858 193.277C893.264 193.013 893.704 192.881 894.178 192.881ZM900.451 192.881C900.734 192.881 900.968 192.901 901.155 192.942L900.998 194.897C900.829 194.852 900.624 194.829 900.383 194.829C899.717 194.829 899.198 195 898.824 195.342C898.455 195.683 898.27 196.162 898.27 196.777V200.667H896.185V193.024H897.764L898.072 194.309H898.175C898.412 193.881 898.731 193.537 899.132 193.277C899.537 193.013 899.977 192.881 900.451 192.881ZM904.12 196.832C904.12 197.588 904.243 198.16 904.489 198.548C904.74 198.935 905.145 199.129 905.706 199.129C906.262 199.129 906.661 198.937 906.902 198.554C907.148 198.167 907.271 197.593 907.271 196.832C907.271 196.075 907.148 195.508 906.902 195.13C906.656 194.751 906.253 194.562 905.692 194.562C905.136 194.562 904.735 194.751 904.489 195.13C904.243 195.503 904.12 196.071 904.12 196.832ZM909.404 196.832C909.404 198.076 909.076 199.049 908.42 199.751C907.763 200.453 906.85 200.803 905.679 200.803C904.945 200.803 904.298 200.644 903.737 200.325C903.177 200.001 902.746 199.539 902.445 198.937C902.144 198.336 901.994 197.634 901.994 196.832C901.994 195.583 902.32 194.612 902.972 193.92C903.623 193.227 904.539 192.881 905.72 192.881C906.453 192.881 907.1 193.04 907.661 193.359C908.222 193.678 908.652 194.136 908.953 194.733C909.254 195.33 909.404 196.03 909.404 196.832ZM915.308 192.881C915.591 192.881 915.826 192.901 916.013 192.942L915.855 194.897C915.687 194.852 915.482 194.829 915.24 194.829C914.575 194.829 914.055 195 913.681 195.342C913.312 195.683 913.128 196.162 913.128 196.777V200.667H911.043V193.024H912.622L912.929 194.309H913.032C913.269 193.881 913.588 193.537 913.989 193.277C914.395 193.013 914.834 192.881 915.308 192.881Z" fill="#464B52"/>
<rect width="269" height="99.3333" transform="translate(816 216.667)" fill="white"/>
<path fill-rule="evenodd" clip-rule="evenodd" d="M966.5 243.333H934.5C921.797 243.333 911.5 253.631 911.5 266.333C911.5 279.036 921.797 289.333 934.5 289.333H966.5C979.203 289.333 989.5 279.036 989.5 266.333C989.5 253.631 979.203 243.333 966.5 243.333ZM966.5 247.333C976.993 247.333 985.5 255.84 985.5 266.333C985.5 276.827 976.993 285.333 966.5 285.333H934.5C924.007 285.333 915.5 276.827 915.5 266.333C915.5 255.84 924.007 247.333 934.5 247.333H966.5Z" fill="#B44E2A"/>
<rect width="64" height="32" rx="16" transform="matrix(-1 0 0 1 982.5 250.333)" fill="#90939F"/>
<path d="M921.5 266.333C921.5 273.513 927.32 279.333 934.5 279.333C941.68 279.333 947.5 273.513 947.5 266.333C947.5 259.154 941.68 253.333 934.5 253.333C927.32 253.333 921.5 259.154 921.5 266.333Z" fill="white"/>
</svg>
