<svg width="1088" height="162" viewBox="0 0 1088 162" fill="none" xmlns="http://www.w3.org/2000/svg">
<rect width="1087" height="162" transform="translate(0.5)" fill="#F1F1F6"/>
<rect x="255" y="97" width="64" height="32" rx="16" transform="rotate(-180 255 97)" fill="#90939F"/>
<path d="M193.5 81C193.5 73.5442 199.544 67.5 207 67.5C214.456 67.5 220.5 73.5442 220.5 81C220.5 88.4558 214.456 94.5 207 94.5C199.544 94.5 193.5 88.4558 193.5 81Z" fill="white" stroke="#90939F"/>
<path d="M280.159 90V74.2949H281.985V88.3457H288.914V90H280.159ZM298.811 90L298.456 88.3242H298.37C297.783 89.0618 297.196 89.5632 296.608 89.8281C296.028 90.0859 295.301 90.2148 294.428 90.2148C293.26 90.2148 292.344 89.9141 291.678 89.3125C291.019 88.7109 290.689 87.8551 290.689 86.7451C290.689 84.3675 292.591 83.1214 296.394 83.0068L298.392 82.9424V82.2119C298.392 81.2881 298.191 80.6077 297.79 80.1709C297.396 79.7269 296.762 79.5049 295.889 79.5049C294.908 79.5049 293.798 79.8057 292.559 80.4072L292.011 79.043C292.591 78.7279 293.225 78.4808 293.912 78.3018C294.607 78.1227 295.301 78.0332 295.996 78.0332C297.4 78.0332 298.438 78.3447 299.111 78.9678C299.792 79.5908 300.132 80.5898 300.132 81.9648V90H298.811ZM294.782 88.7432C295.892 88.7432 296.762 88.4388 297.393 87.8301C298.03 87.2214 298.349 86.3691 298.349 85.2734V84.21L296.565 84.2852C295.147 84.3353 294.123 84.5573 293.493 84.9512C292.87 85.3379 292.559 85.943 292.559 86.7666C292.559 87.4111 292.752 87.9017 293.139 88.2383C293.533 88.5749 294.08 88.7432 294.782 88.7432ZM309.545 78.0332C311.092 78.0332 312.291 78.5632 313.144 79.623C314.003 80.6758 314.433 82.1689 314.433 84.1025C314.433 86.0361 313.999 87.54 313.133 88.6143C312.273 89.6813 311.077 90.2148 309.545 90.2148C308.779 90.2148 308.077 90.0752 307.439 89.7959C306.809 89.5094 306.279 89.0726 305.85 88.4854H305.721L305.345 90H304.066V73.2852H305.85V77.3457C305.85 78.2552 305.821 79.0716 305.764 79.7949H305.85C306.68 78.6204 307.912 78.0332 309.545 78.0332ZM309.287 79.5264C308.07 79.5264 307.192 79.8773 306.655 80.5791C306.118 81.2738 305.85 82.4482 305.85 84.1025C305.85 85.7568 306.125 86.9421 306.677 87.6582C307.228 88.3672 308.113 88.7217 309.33 88.7217C310.426 88.7217 311.242 88.3242 311.779 87.5293C312.316 86.7272 312.585 85.5778 312.585 84.0811C312.585 82.5485 312.316 81.4062 311.779 80.6543C311.242 79.9023 310.411 79.5264 309.287 79.5264ZM322.782 90.2148C321.042 90.2148 319.667 89.6849 318.657 88.625C317.655 87.5651 317.153 86.0934 317.153 84.21C317.153 82.3122 317.619 80.8047 318.55 79.6875C319.488 78.5703 320.745 78.0117 322.32 78.0117C323.796 78.0117 324.963 78.4987 325.822 79.4727C326.682 80.4395 327.111 81.7178 327.111 83.3076V84.4355H319.001C319.037 85.8177 319.384 86.8669 320.043 87.583C320.709 88.2992 321.644 88.6572 322.847 88.6572C324.114 88.6572 325.368 88.3923 326.606 87.8623V89.4521C325.976 89.7243 325.378 89.9176 324.812 90.0322C324.254 90.154 323.577 90.2148 322.782 90.2148ZM322.299 79.5049C321.354 79.5049 320.598 79.8128 320.032 80.4287C319.474 81.0446 319.144 81.8968 319.044 82.9854H325.199C325.199 81.861 324.949 81.0016 324.447 80.4072C323.946 79.8057 323.23 79.5049 322.299 79.5049ZM332.195 90H330.412V73.2852H332.195V90Z" fill="#171C1E"/>
<g opacity="0.4">
<rect x="434" y="97" width="64" height="32" rx="16" transform="rotate(-180 434 97)" fill="#90939F"/>
<path d="M372.5 81C372.5 73.5442 378.544 67.5 386 67.5C393.456 67.5 399.5 73.5442 399.5 81C399.5 88.4558 393.456 94.5 386 94.5C378.544 94.5 372.5 88.4558 372.5 81Z" fill="white" stroke="#90939F"/>
<path d="M459.159 90V74.2949H460.985V88.3457H467.914V90H459.159ZM477.811 90L477.456 88.3242H477.37C476.783 89.0618 476.196 89.5632 475.608 89.8281C475.028 90.0859 474.301 90.2148 473.428 90.2148C472.26 90.2148 471.344 89.9141 470.678 89.3125C470.019 88.7109 469.689 87.8551 469.689 86.7451C469.689 84.3675 471.591 83.1214 475.394 83.0068L477.392 82.9424V82.2119C477.392 81.2881 477.191 80.6077 476.79 80.1709C476.396 79.7269 475.762 79.5049 474.889 79.5049C473.908 79.5049 472.798 79.8057 471.559 80.4072L471.011 79.043C471.591 78.7279 472.225 78.4808 472.912 78.3018C473.607 78.1227 474.301 78.0332 474.996 78.0332C476.4 78.0332 477.438 78.3447 478.111 78.9678C478.792 79.5908 479.132 80.5898 479.132 81.9648V90H477.811ZM473.782 88.7432C474.892 88.7432 475.762 88.4388 476.393 87.8301C477.03 87.2214 477.349 86.3691 477.349 85.2734V84.21L475.565 84.2852C474.147 84.3353 473.123 84.5573 472.493 84.9512C471.87 85.3379 471.559 85.943 471.559 86.7666C471.559 87.4111 471.752 87.9017 472.139 88.2383C472.533 88.5749 473.08 88.7432 473.782 88.7432ZM488.545 78.0332C490.092 78.0332 491.291 78.5632 492.144 79.623C493.003 80.6758 493.433 82.1689 493.433 84.1025C493.433 86.0361 492.999 87.54 492.133 88.6143C491.273 89.6813 490.077 90.2148 488.545 90.2148C487.779 90.2148 487.077 90.0752 486.439 89.7959C485.809 89.5094 485.279 89.0726 484.85 88.4854H484.721L484.345 90H483.066V73.2852H484.85V77.3457C484.85 78.2552 484.821 79.0716 484.764 79.7949H484.85C485.68 78.6204 486.912 78.0332 488.545 78.0332ZM488.287 79.5264C487.07 79.5264 486.192 79.8773 485.655 80.5791C485.118 81.2738 484.85 82.4482 484.85 84.1025C484.85 85.7568 485.125 86.9421 485.677 87.6582C486.228 88.3672 487.113 88.7217 488.33 88.7217C489.426 88.7217 490.242 88.3242 490.779 87.5293C491.316 86.7272 491.585 85.5778 491.585 84.0811C491.585 82.5485 491.316 81.4062 490.779 80.6543C490.242 79.9023 489.411 79.5264 488.287 79.5264ZM501.782 90.2148C500.042 90.2148 498.667 89.6849 497.657 88.625C496.655 87.5651 496.153 86.0934 496.153 84.21C496.153 82.3122 496.619 80.8047 497.55 79.6875C498.488 78.5703 499.745 78.0117 501.32 78.0117C502.796 78.0117 503.963 78.4987 504.822 79.4727C505.682 80.4395 506.111 81.7178 506.111 83.3076V84.4355H498.001C498.037 85.8177 498.384 86.8669 499.043 87.583C499.709 88.2992 500.644 88.6572 501.847 88.6572C503.114 88.6572 504.368 88.3923 505.606 87.8623V89.4521C504.976 89.7243 504.378 89.9176 503.812 90.0322C503.254 90.154 502.577 90.2148 501.782 90.2148ZM501.299 79.5049C500.354 79.5049 499.598 79.8128 499.032 80.4287C498.474 81.0446 498.144 81.8968 498.044 82.9854H504.199C504.199 81.861 503.949 81.0016 503.447 80.4072C502.946 79.8057 502.23 79.5049 501.299 79.5049ZM511.195 90H509.412V73.2852H511.195V90Z" fill="#171C1E"/>
</g>
<rect x="550" y="65" width="64" height="32" rx="16" fill="#217CBB"/>
<path d="M611.5 81C611.5 88.4558 605.456 94.5 598 94.5C590.544 94.5 584.5 88.4558 584.5 81C584.5 73.5442 590.544 67.5 598 67.5C605.456 67.5 611.5 73.5442 611.5 81Z" fill="white" stroke="#217CBB"/>
<path d="M638.159 90V74.2949H639.985V88.3457H646.914V90H638.159ZM656.811 90L656.456 88.3242H656.37C655.783 89.0618 655.196 89.5632 654.608 89.8281C654.028 90.0859 653.301 90.2148 652.428 90.2148C651.26 90.2148 650.344 89.9141 649.678 89.3125C649.019 88.7109 648.689 87.8551 648.689 86.7451C648.689 84.3675 650.591 83.1214 654.394 83.0068L656.392 82.9424V82.2119C656.392 81.2881 656.191 80.6077 655.79 80.1709C655.396 79.7269 654.762 79.5049 653.889 79.5049C652.908 79.5049 651.798 79.8057 650.559 80.4072L650.011 79.043C650.591 78.7279 651.225 78.4808 651.912 78.3018C652.607 78.1227 653.301 78.0332 653.996 78.0332C655.4 78.0332 656.438 78.3447 657.111 78.9678C657.792 79.5908 658.132 80.5898 658.132 81.9648V90H656.811ZM652.782 88.7432C653.892 88.7432 654.762 88.4388 655.393 87.8301C656.03 87.2214 656.349 86.3691 656.349 85.2734V84.21L654.565 84.2852C653.147 84.3353 652.123 84.5573 651.493 84.9512C650.87 85.3379 650.559 85.943 650.559 86.7666C650.559 87.4111 650.752 87.9017 651.139 88.2383C651.533 88.5749 652.08 88.7432 652.782 88.7432ZM667.545 78.0332C669.092 78.0332 670.291 78.5632 671.144 79.623C672.003 80.6758 672.433 82.1689 672.433 84.1025C672.433 86.0361 671.999 87.54 671.133 88.6143C670.273 89.6813 669.077 90.2148 667.545 90.2148C666.779 90.2148 666.077 90.0752 665.439 89.7959C664.809 89.5094 664.279 89.0726 663.85 88.4854H663.721L663.345 90H662.066V73.2852H663.85V77.3457C663.85 78.2552 663.821 79.0716 663.764 79.7949H663.85C664.68 78.6204 665.912 78.0332 667.545 78.0332ZM667.287 79.5264C666.07 79.5264 665.192 79.8773 664.655 80.5791C664.118 81.2738 663.85 82.4482 663.85 84.1025C663.85 85.7568 664.125 86.9421 664.677 87.6582C665.228 88.3672 666.113 88.7217 667.33 88.7217C668.426 88.7217 669.242 88.3242 669.779 87.5293C670.316 86.7272 670.585 85.5778 670.585 84.0811C670.585 82.5485 670.316 81.4062 669.779 80.6543C669.242 79.9023 668.411 79.5264 667.287 79.5264ZM680.782 90.2148C679.042 90.2148 677.667 89.6849 676.657 88.625C675.655 87.5651 675.153 86.0934 675.153 84.21C675.153 82.3122 675.619 80.8047 676.55 79.6875C677.488 78.5703 678.745 78.0117 680.32 78.0117C681.796 78.0117 682.963 78.4987 683.822 79.4727C684.682 80.4395 685.111 81.7178 685.111 83.3076V84.4355H677.001C677.037 85.8177 677.384 86.8669 678.043 87.583C678.709 88.2992 679.644 88.6572 680.847 88.6572C682.114 88.6572 683.368 88.3923 684.606 87.8623V89.4521C683.976 89.7243 683.378 89.9176 682.812 90.0322C682.254 90.154 681.577 90.2148 680.782 90.2148ZM680.299 79.5049C679.354 79.5049 678.598 79.8128 678.032 80.4287C677.474 81.0446 677.144 81.8968 677.044 82.9854H683.199C683.199 81.861 682.949 81.0016 682.447 80.4072C681.946 79.8057 681.23 79.5049 680.299 79.5049ZM690.195 90H688.412V73.2852H690.195V90Z" fill="#171C1E"/>
<g opacity="0.4">
<rect x="731" y="65" width="64" height="32" rx="16" fill="#217CBB"/>
<path d="M792.5 81C792.5 88.4558 786.456 94.5 779 94.5C771.544 94.5 765.5 88.4558 765.5 81C765.5 73.5442 771.544 67.5 779 67.5C786.456 67.5 792.5 73.5442 792.5 81Z" fill="white" stroke="#217CBB"/>
<path d="M819.159 90V74.2949H820.985V88.3457H827.914V90H819.159ZM837.811 90L837.456 88.3242H837.37C836.783 89.0618 836.196 89.5632 835.608 89.8281C835.028 90.0859 834.301 90.2148 833.428 90.2148C832.26 90.2148 831.344 89.9141 830.678 89.3125C830.019 88.7109 829.689 87.8551 829.689 86.7451C829.689 84.3675 831.591 83.1214 835.394 83.0068L837.392 82.9424V82.2119C837.392 81.2881 837.191 80.6077 836.79 80.1709C836.396 79.7269 835.762 79.5049 834.889 79.5049C833.908 79.5049 832.798 79.8057 831.559 80.4072L831.011 79.043C831.591 78.7279 832.225 78.4808 832.912 78.3018C833.607 78.1227 834.301 78.0332 834.996 78.0332C836.4 78.0332 837.438 78.3447 838.111 78.9678C838.792 79.5908 839.132 80.5898 839.132 81.9648V90H837.811ZM833.782 88.7432C834.892 88.7432 835.762 88.4388 836.393 87.8301C837.03 87.2214 837.349 86.3691 837.349 85.2734V84.21L835.565 84.2852C834.147 84.3353 833.123 84.5573 832.493 84.9512C831.87 85.3379 831.559 85.943 831.559 86.7666C831.559 87.4111 831.752 87.9017 832.139 88.2383C832.533 88.5749 833.08 88.7432 833.782 88.7432ZM848.545 78.0332C850.092 78.0332 851.291 78.5632 852.144 79.623C853.003 80.6758 853.433 82.1689 853.433 84.1025C853.433 86.0361 852.999 87.54 852.133 88.6143C851.273 89.6813 850.077 90.2148 848.545 90.2148C847.779 90.2148 847.077 90.0752 846.439 89.7959C845.809 89.5094 845.279 89.0726 844.85 88.4854H844.721L844.345 90H843.066V73.2852H844.85V77.3457C844.85 78.2552 844.821 79.0716 844.764 79.7949H844.85C845.68 78.6204 846.912 78.0332 848.545 78.0332ZM848.287 79.5264C847.07 79.5264 846.192 79.8773 845.655 80.5791C845.118 81.2738 844.85 82.4482 844.85 84.1025C844.85 85.7568 845.125 86.9421 845.677 87.6582C846.228 88.3672 847.113 88.7217 848.33 88.7217C849.426 88.7217 850.242 88.3242 850.779 87.5293C851.316 86.7272 851.585 85.5778 851.585 84.0811C851.585 82.5485 851.316 81.4062 850.779 80.6543C850.242 79.9023 849.411 79.5264 848.287 79.5264ZM861.782 90.2148C860.042 90.2148 858.667 89.6849 857.657 88.625C856.655 87.5651 856.153 86.0934 856.153 84.21C856.153 82.3122 856.619 80.8047 857.55 79.6875C858.488 78.5703 859.745 78.0117 861.32 78.0117C862.796 78.0117 863.963 78.4987 864.822 79.4727C865.682 80.4395 866.111 81.7178 866.111 83.3076V84.4355H858.001C858.037 85.8177 858.384 86.8669 859.043 87.583C859.709 88.2992 860.644 88.6572 861.847 88.6572C863.114 88.6572 864.368 88.3923 865.606 87.8623V89.4521C864.976 89.7243 864.378 89.9176 863.812 90.0322C863.254 90.154 862.577 90.2148 861.782 90.2148ZM861.299 79.5049C860.354 79.5049 859.598 79.8128 859.032 80.4287C858.474 81.0446 858.144 81.8968 858.044 82.9854H864.199C864.199 81.861 863.949 81.0016 863.447 80.4072C862.946 79.8057 862.23 79.5049 861.299 79.5049ZM871.195 90H869.412V73.2852H871.195V90Z" fill="#171C1E"/>
</g>
</svg>
