<svg width="1088" height="143" viewBox="0 0 1088 143" fill="none" xmlns="http://www.w3.org/2000/svg">
<rect width="1088" height="142.333" fill="#C4C4C4"/>
<rect width="99" height="142.333" transform="translate(1)" fill="#C4C4C4"/>
<rect width="99" height="40" transform="translate(1 1)" fill="#F1F1F6"/>
<path d="M18.1572 23.2246C18.1572 24.127 17.8314 24.8379 17.1797 25.3574C16.5326 25.877 15.6302 26.1367 14.4727 26.1367C13.4062 26.1367 12.4629 25.9362 11.6426 25.5352V23.5664C12.3171 23.8672 12.8867 24.0791 13.3516 24.2021C13.821 24.3252 14.2493 24.3867 14.6367 24.3867C15.1016 24.3867 15.457 24.2979 15.7031 24.1201C15.9538 23.9424 16.0791 23.6781 16.0791 23.3271C16.0791 23.1312 16.0244 22.958 15.915 22.8076C15.8057 22.6527 15.6439 22.5046 15.4297 22.3633C15.2201 22.222 14.7894 21.9964 14.1377 21.6865C13.527 21.3994 13.069 21.1237 12.7637 20.8594C12.4583 20.5951 12.2145 20.2874 12.0322 19.9365C11.8499 19.5856 11.7588 19.1755 11.7588 18.7061C11.7588 17.8219 12.0573 17.127 12.6543 16.6211C13.2559 16.1152 14.0853 15.8623 15.1426 15.8623C15.6621 15.8623 16.1566 15.9238 16.626 16.0469C17.0999 16.1699 17.5944 16.3431 18.1094 16.5664L17.4258 18.2139C16.8926 17.9951 16.4505 17.8424 16.0996 17.7559C15.7533 17.6693 15.4115 17.626 15.0742 17.626C14.6732 17.626 14.3656 17.7194 14.1514 17.9062C13.9372 18.0931 13.8301 18.3369 13.8301 18.6377C13.8301 18.8245 13.8734 18.9886 13.96 19.1299C14.0465 19.2666 14.1833 19.401 14.3701 19.5332C14.5615 19.6608 15.0104 19.8932 15.7168 20.2305C16.651 20.6771 17.2913 21.126 17.6377 21.5771C17.984 22.0238 18.1572 22.5729 18.1572 23.2246ZM22.9404 24.4756C23.305 24.4756 23.7425 24.3958 24.2529 24.2363V25.7881C23.7334 26.0205 23.0954 26.1367 22.3389 26.1367C21.5049 26.1367 20.8965 25.9271 20.5137 25.5078C20.1354 25.084 19.9463 24.4505 19.9463 23.6074V19.9229H18.9482V19.041L20.0967 18.3438L20.6982 16.7305H22.0312V18.3574H24.1709V19.9229H22.0312V23.6074C22.0312 23.9036 22.1133 24.1224 22.2773 24.2637C22.4459 24.4049 22.667 24.4756 22.9404 24.4756ZM30.5742 26L30.1709 24.9609H30.1162C29.7653 25.403 29.403 25.7106 29.0293 25.8838C28.6601 26.0524 28.1771 26.1367 27.58 26.1367C26.8463 26.1367 26.2675 25.9271 25.8437 25.5078C25.4244 25.0885 25.2148 24.4915 25.2148 23.7168C25.2148 22.9056 25.4974 22.3086 26.0625 21.9258C26.6321 21.5384 27.4889 21.3242 28.6328 21.2832L29.959 21.2422V20.9072C29.959 20.1325 29.5625 19.7451 28.7695 19.7451C28.1588 19.7451 27.441 19.9297 26.6162 20.2988L25.9257 18.8906C26.8053 18.4303 27.7806 18.2002 28.8515 18.2002C29.8769 18.2002 30.6631 18.4235 31.2099 18.8701C31.7568 19.3167 32.0302 19.9958 32.0302 20.9072V26H30.5742ZM29.959 22.459L29.1523 22.4863C28.5462 22.5046 28.095 22.6139 27.7988 22.8145C27.5026 23.015 27.3545 23.3203 27.3545 23.7305C27.3545 24.3184 27.6917 24.6123 28.3662 24.6123C28.8493 24.6123 29.2343 24.4733 29.5215 24.1953C29.8131 23.9173 29.959 23.5482 29.959 23.0879V22.459ZM37.3193 24.4756C37.6839 24.4756 38.1214 24.3958 38.6318 24.2363V25.7881C38.1123 26.0205 37.4742 26.1367 36.7177 26.1367C35.8837 26.1367 35.2753 25.9271 34.8925 25.5078C34.5143 25.084 34.3251 24.4505 34.3251 23.6074V19.9229H33.3271V19.041L34.4755 18.3438L35.0771 16.7305H36.4101V18.3574H38.5498V19.9229H36.4101V23.6074C36.4101 23.9036 36.4921 24.1224 36.6562 24.2637C36.8248 24.4049 37.0459 24.4756 37.3193 24.4756ZM43.2646 19.6973C42.8225 19.6973 42.4762 19.8385 42.2255 20.1211C41.9749 20.3991 41.8313 20.7956 41.7949 21.3105H44.7206C44.7115 20.7956 44.5771 20.3991 44.3173 20.1211C44.0576 19.8385 43.7066 19.6973 43.2646 19.6973ZM43.5585 26.1367C42.3281 26.1367 41.3665 25.7972 40.6738 25.1182C39.9811 24.4391 39.6347 23.4775 39.6347 22.2334C39.6347 20.9528 39.9537 19.9639 40.5917 19.2666C41.2343 18.5648 42.1207 18.2139 43.2509 18.2139C44.331 18.2139 45.1718 18.5215 45.7734 19.1367C46.3749 19.752 46.6757 20.6019 46.6757 21.6865V22.6982H41.747C41.7698 23.2907 41.9452 23.7533 42.2734 24.0859C42.6015 24.4186 43.0618 24.585 43.6542 24.585C44.1145 24.585 44.5497 24.5371 44.9599 24.4414C45.3701 24.3457 45.7984 24.193 46.2451 23.9834V25.5967C45.8805 25.779 45.4908 25.9134 45.0761 26C44.6614 26.0911 44.1555 26.1367 43.5585 26.1367Z" fill="#464B52"/>
<rect width="99" height="99.3333" transform="translate(1 42)" fill="white"/>
<path d="M18.1572 93.8913C18.1572 94.7936 17.8314 95.5046 17.1797 96.0241C16.5326 96.5436 15.6302 96.8034 14.4727 96.8034C13.4062 96.8034 12.4629 96.6029 11.6426 96.2018V94.2331C12.3171 94.5339 12.8867 94.7458 13.3516 94.8688C13.821 94.9919 14.2493 95.0534 14.6367 95.0534C15.1016 95.0534 15.457 94.9645 15.7031 94.7868C15.9538 94.6091 16.0791 94.3447 16.0791 93.9938C16.0791 93.7979 16.0244 93.6247 15.915 93.4743C15.8057 93.3194 15.6439 93.1712 15.4297 93.03C15.2201 92.8887 14.7894 92.6631 14.1377 92.3532C13.527 92.0661 13.069 91.7904 12.7637 91.5261C12.4583 91.2617 12.2145 90.9541 12.0322 90.6032C11.8499 90.2523 11.7588 89.8421 11.7588 89.3727C11.7588 88.4886 12.0573 87.7936 12.6543 87.2878C13.2559 86.7819 14.0853 86.529 15.1426 86.529C15.6621 86.529 16.1566 86.5905 16.626 86.7136C17.0999 86.8366 17.5944 87.0098 18.1094 87.2331L17.4258 88.8806C16.8926 88.6618 16.4505 88.5091 16.0996 88.4225C15.7533 88.336 15.4115 88.2927 15.0742 88.2927C14.6732 88.2927 14.3656 88.3861 14.1514 88.5729C13.9372 88.7598 13.8301 89.0036 13.8301 89.3044C13.8301 89.4912 13.8734 89.6553 13.96 89.7966C14.0465 89.9333 14.1833 90.0677 14.3701 90.1999C14.5615 90.3275 15.0104 90.5599 15.7168 90.8972C16.651 91.3438 17.2913 91.7927 17.6377 92.2438C17.984 92.6905 18.1572 93.2396 18.1572 93.8913ZM26.5635 96.6667H24.4785V92.2028C24.4785 91.6514 24.3851 91.239 24.1982 90.9655C24.0159 90.6875 23.7265 90.5485 23.3301 90.5485C22.7969 90.5485 22.4095 90.7445 22.168 91.1364C21.9264 91.5283 21.8056 92.1732 21.8056 93.071V96.6667H19.7207V89.0241H21.3135L21.5937 90.0016H21.7099C21.915 89.6507 22.2112 89.3773 22.5986 89.1813C22.986 88.9808 23.4303 88.8806 23.9316 88.8806C25.0755 88.8806 25.8502 89.2543 26.2558 90.0016H26.4404C26.6455 89.6462 26.9463 89.3705 27.3428 89.1745C27.7438 88.9785 28.195 88.8806 28.6963 88.8806C29.5622 88.8806 30.2161 89.1039 30.6582 89.5505C31.1048 89.9925 31.3281 90.7035 31.3281 91.6833V96.6667H29.2363V92.2028C29.2363 91.6514 29.1429 91.239 28.956 90.9655C28.7737 90.6875 28.4844 90.5485 28.0879 90.5485C27.5775 90.5485 27.1946 90.7308 26.9394 91.0954C26.6888 91.46 26.5635 92.0388 26.5635 92.8317V96.6667ZM38.2441 96.6667L37.8408 95.6276H37.7861C37.4352 96.0697 37.0729 96.3773 36.6992 96.5505C36.33 96.7191 35.847 96.8034 35.25 96.8034C34.5162 96.8034 33.9375 96.5938 33.5136 96.1745C33.0944 95.7552 32.8847 95.1582 32.8847 94.3835C32.8847 93.5723 33.1673 92.9753 33.7324 92.5925C34.3021 92.2051 35.1588 91.9909 36.3027 91.9499L37.6289 91.9089V91.5739C37.6289 90.7992 37.2324 90.4118 36.4394 90.4118C35.8287 90.4118 35.111 90.5964 34.2861 90.9655L33.5957 89.5573C34.4752 89.097 35.4505 88.8669 36.5215 88.8669C37.5468 88.8669 38.333 89.0902 38.8799 89.5368C39.4267 89.9834 39.7002 90.6625 39.7002 91.5739V96.6667H38.2441ZM37.6289 93.1257L36.8222 93.153C36.2161 93.1712 35.7649 93.2806 35.4687 93.4811C35.1725 93.6817 35.0244 93.987 35.0244 94.3972C35.0244 94.985 35.3616 95.279 36.0361 95.279C36.5192 95.279 36.9043 95.14 37.1914 94.862C37.483 94.584 37.6289 94.2149 37.6289 93.7546V93.1257ZM43.8544 96.6667H41.7695V86.03H43.8544V96.6667ZM48.0497 96.6667H45.9648V86.03H48.0497V96.6667Z" fill="black"/>
<rect width="760" height="40" transform="translate(101 1)" fill="#F1F1F6"/>
<path d="M118.014 26H112.258V16.0059H118.014V17.7422H114.377V19.9365H117.761V21.6729H114.377V24.25H118.014V26ZM121.423 22.0967L118.962 18.3574H121.327L122.811 20.791L124.308 18.3574H126.673L124.185 22.0967L126.789 26H124.417L122.811 23.3818L121.197 26H118.832L121.423 22.0967ZM132.721 26L132.317 24.9609H132.263C131.912 25.403 131.549 25.7106 131.176 25.8838C130.807 26.0524 130.324 26.1367 129.727 26.1367C128.993 26.1367 128.414 25.9271 127.99 25.5078C127.571 25.0885 127.361 24.4915 127.361 23.7168C127.361 22.9056 127.644 22.3086 128.209 21.9258C128.779 21.5384 129.635 21.3242 130.779 21.2832L132.105 21.2422V20.9072C132.105 20.1325 131.709 19.7451 130.916 19.7451C130.305 19.7451 129.588 19.9297 128.763 20.2988L128.072 18.8906C128.952 18.4303 129.927 18.2002 130.998 18.2002C132.023 18.2002 132.81 18.4235 133.356 18.8701C133.903 19.3167 134.177 19.9958 134.177 20.9072V26H132.721ZM132.105 22.459L131.299 22.4863C130.693 22.5046 130.242 22.6139 129.945 22.8145C129.649 23.015 129.501 23.3203 129.501 23.7305C129.501 24.3184 129.838 24.6123 130.513 24.6123C130.996 24.6123 131.381 24.4733 131.668 24.1953C131.96 23.9173 132.105 23.5482 132.105 23.0879V22.459ZM143.089 26H141.004V21.5361C141.004 20.9847 140.91 20.5723 140.724 20.2988C140.541 20.0208 140.252 19.8818 139.855 19.8818C139.322 19.8818 138.935 20.0778 138.693 20.4697C138.452 20.8617 138.331 21.5065 138.331 22.4043V26H136.246V18.3574H137.839L138.119 19.335H138.235C138.44 18.984 138.737 18.7106 139.124 18.5146C139.511 18.3141 139.956 18.2139 140.457 18.2139C141.601 18.2139 142.376 18.5876 142.781 19.335H142.966C143.171 18.9795 143.472 18.7038 143.868 18.5078C144.269 18.3118 144.72 18.2139 145.222 18.2139C146.088 18.2139 146.741 18.4372 147.184 18.8838C147.63 19.3258 147.853 20.0368 147.853 21.0166V26H145.762V21.5361C145.762 20.9847 145.668 20.5723 145.481 20.2988C145.299 20.0208 145.01 19.8818 144.613 19.8818C144.103 19.8818 143.72 20.0641 143.465 20.4287C143.214 20.7933 143.089 21.3721 143.089 22.165V26ZM154.113 26.1367C153.215 26.1367 152.511 25.8109 152.001 25.1592H151.892C151.964 25.7972 152.001 26.1663 152.001 26.2666V29.3633H149.916V18.3574H151.611L151.905 19.3486H152.001C152.489 18.5921 153.211 18.2139 154.168 18.2139C155.07 18.2139 155.777 18.5625 156.287 19.2598C156.797 19.957 157.053 20.9255 157.053 22.165C157.053 22.9808 156.932 23.6895 156.69 24.291C156.453 24.8926 156.114 25.3506 155.672 25.665C155.23 25.9795 154.71 26.1367 154.113 26.1367ZM153.498 19.8818C152.983 19.8818 152.607 20.0413 152.37 20.3604C152.133 20.6748 152.01 21.1966 152.001 21.9258V22.1514C152.001 22.9717 152.122 23.5596 152.363 23.915C152.609 24.2705 152.997 24.4482 153.525 24.4482C154.46 24.4482 154.927 23.6781 154.927 22.1377C154.927 21.3857 154.81 20.8229 154.578 20.4492C154.35 20.071 153.99 19.8818 153.498 19.8818ZM160.776 26H158.691V15.3633H160.776V26ZM166.052 19.6973C165.61 19.6973 165.263 19.8385 165.013 20.1211C164.762 20.3991 164.618 20.7956 164.582 21.3105H167.508C167.499 20.7956 167.364 20.3991 167.104 20.1211C166.845 19.8385 166.494 19.6973 166.052 19.6973ZM166.346 26.1367C165.115 26.1367 164.154 25.7972 163.461 25.1182C162.768 24.4391 162.422 23.4775 162.422 22.2334C162.422 20.9528 162.741 19.9639 163.379 19.2666C164.021 18.5648 164.908 18.2139 166.038 18.2139C167.118 18.2139 167.959 18.5215 168.56 19.1367C169.162 19.752 169.463 20.6019 169.463 21.6865V22.6982H164.534C164.557 23.2907 164.732 23.7533 165.06 24.0859C165.389 24.4186 165.849 24.585 166.441 24.585C166.902 24.585 167.337 24.5371 167.747 24.4414C168.157 24.3457 168.586 24.193 169.032 23.9834V25.5967C168.668 25.779 168.278 25.9134 167.863 26C167.448 26.0911 166.943 26.1367 166.346 26.1367Z" fill="#464B52"/>
<rect width="760" height="99.3333" transform="translate(101 42)" fill="white"/>
<path d="M344.578 86.6667V78.1003H346.395V86.6667H344.578ZM354.385 86.6667H352.598V82.8405C352.598 82.3679 352.514 82.0143 352.346 81.78C352.178 81.5417 351.91 81.4225 351.543 81.4225C351.043 81.4225 350.682 81.5905 350.459 81.9265C350.237 82.2585 350.125 82.8112 350.125 83.5847V86.6667H348.338V80.1159H349.703L349.944 80.9538H350.043C350.242 80.6374 350.516 80.3991 350.864 80.239C351.215 80.0749 351.614 79.9929 352.059 79.9929C352.821 79.9929 353.399 80.1999 353.793 80.614C354.188 81.0241 354.385 81.6179 354.385 82.3952V86.6667ZM360.723 84.7214C360.723 85.3932 360.489 85.905 360.02 86.2565C359.555 86.6081 358.858 86.7839 357.928 86.7839C357.452 86.7839 357.045 86.7507 356.71 86.6843C356.374 86.6218 356.059 86.528 355.766 86.403V84.9265C356.098 85.0827 356.471 85.2136 356.885 85.319C357.303 85.4245 357.67 85.4772 357.987 85.4772C358.635 85.4772 358.96 85.2897 358.96 84.9147C358.96 84.7741 358.917 84.6608 358.831 84.5749C358.745 84.485 358.596 84.3854 358.385 84.2761C358.174 84.1628 357.893 84.0319 357.542 83.8835C357.038 83.6725 356.667 83.4772 356.428 83.2975C356.194 83.1179 356.022 82.9128 355.913 82.6823C355.807 82.4479 355.754 82.1608 355.754 81.821C355.754 81.239 355.979 80.7897 356.428 80.4733C356.881 80.153 357.522 79.9929 358.35 79.9929C359.139 79.9929 359.907 80.1647 360.653 80.5085L360.114 81.7975C359.786 81.6569 359.479 81.5417 359.194 81.4518C358.909 81.362 358.618 81.3171 358.321 81.3171C357.793 81.3171 357.53 81.4597 357.53 81.7448C357.53 81.905 357.614 82.0436 357.782 82.1608C357.954 82.278 358.327 82.4518 358.901 82.6823C359.413 82.8893 359.788 83.0827 360.026 83.2624C360.264 83.4421 360.44 83.6491 360.553 83.8835C360.667 84.1179 360.723 84.3972 360.723 84.7214ZM361.97 78.4225C361.97 77.8405 362.294 77.5495 362.942 77.5495C363.591 77.5495 363.915 77.8405 363.915 78.4225C363.915 78.6999 363.833 78.9167 363.669 79.0729C363.509 79.2253 363.266 79.3015 362.942 79.3015C362.294 79.3015 361.97 79.0085 361.97 78.4225ZM363.833 86.6667H362.046V80.1159H363.833V86.6667ZM367.716 86.7839C366.946 86.7839 366.341 86.485 365.899 85.8874C365.462 85.2897 365.243 84.4616 365.243 83.403C365.243 82.3288 365.466 81.4929 365.911 80.8952C366.36 80.2936 366.978 79.9929 367.763 79.9929C368.587 79.9929 369.216 80.3132 369.649 80.9538H369.708C369.618 80.4655 369.573 80.03 369.573 79.6472V77.5495H371.366V86.6667H369.995L369.649 85.8171H369.573C369.167 86.4616 368.548 86.7839 367.716 86.7839ZM368.343 85.36C368.8 85.36 369.134 85.2272 369.345 84.9616C369.56 84.696 369.677 84.2448 369.696 83.6081V83.4147C369.696 82.7116 369.587 82.2077 369.368 81.903C369.153 81.5983 368.802 81.446 368.314 81.446C367.915 81.446 367.605 81.6159 367.382 81.9557C367.163 82.2917 367.054 82.7819 367.054 83.4265C367.054 84.071 367.165 84.5554 367.388 84.8796C367.61 85.1999 367.929 85.36 368.343 85.36ZM375.876 81.2643C375.497 81.2643 375.201 81.3854 374.986 81.6276C374.771 81.8659 374.648 82.2057 374.617 82.6472H377.124C377.117 82.2057 377.001 81.8659 376.779 81.6276C376.556 81.3854 376.255 81.2643 375.876 81.2643ZM376.128 86.7839C375.074 86.7839 374.249 86.4929 373.656 85.9108C373.062 85.3288 372.765 84.5046 372.765 83.4382C372.765 82.3405 373.038 81.4929 373.585 80.8952C374.136 80.2936 374.896 79.9929 375.865 79.9929C376.79 79.9929 377.511 80.2565 378.027 80.7839C378.542 81.3112 378.8 82.0397 378.8 82.9694V83.8366H374.576C374.595 84.3444 374.745 84.7409 375.027 85.0261C375.308 85.3112 375.702 85.4538 376.21 85.4538C376.605 85.4538 376.978 85.4128 377.329 85.3307C377.681 85.2487 378.048 85.1179 378.431 84.9382V86.321C378.119 86.4772 377.785 86.5925 377.429 86.6667C377.074 86.7448 376.64 86.7839 376.128 86.7839ZM385.887 86.7839C383.848 86.7839 382.828 85.6647 382.828 83.4265C382.828 82.3132 383.105 81.4636 383.66 80.8776C384.215 80.2878 385.01 79.9929 386.045 79.9929C386.803 79.9929 387.482 80.1413 388.084 80.4382L387.557 81.821C387.275 81.7077 387.014 81.6159 386.771 81.5456C386.529 81.4714 386.287 81.4343 386.045 81.4343C385.115 81.4343 384.65 82.0944 384.65 83.4147C384.65 84.696 385.115 85.3366 386.045 85.3366C386.389 85.3366 386.707 85.2917 387 85.2018C387.293 85.1081 387.586 84.9636 387.879 84.7682V86.2975C387.59 86.4811 387.297 86.6081 387 86.6784C386.707 86.7487 386.336 86.7839 385.887 86.7839ZM389.254 78.4225C389.254 77.8405 389.578 77.5495 390.227 77.5495C390.875 77.5495 391.199 77.8405 391.199 78.4225C391.199 78.6999 391.117 78.9167 390.953 79.0729C390.793 79.2253 390.551 79.3015 390.227 79.3015C389.578 79.3015 389.254 79.0085 389.254 78.4225ZM391.117 86.6667H389.33V80.1159H391.117V86.6667ZM396.582 79.9929C396.825 79.9929 397.026 80.0104 397.186 80.0456L397.051 81.7214C396.907 81.6823 396.731 81.6628 396.524 81.6628C395.954 81.6628 395.508 81.8093 395.188 82.1022C394.872 82.3952 394.713 82.8054 394.713 83.3327V86.6667H392.926V80.1159H394.28L394.543 81.2175H394.631C394.834 80.8503 395.108 80.5554 395.452 80.3327C395.799 80.1061 396.176 79.9929 396.582 79.9929ZM400.964 86.7839C398.925 86.7839 397.905 85.6647 397.905 83.4265C397.905 82.3132 398.182 81.4636 398.737 80.8776C399.292 80.2878 400.087 79.9929 401.122 79.9929C401.88 79.9929 402.559 80.1413 403.161 80.4382L402.634 81.821C402.352 81.7077 402.091 81.6159 401.848 81.5456C401.606 81.4714 401.364 81.4343 401.122 81.4343C400.192 81.4343 399.727 82.0944 399.727 83.4147C399.727 84.696 400.192 85.3366 401.122 85.3366C401.466 85.3366 401.784 85.2917 402.077 85.2018C402.37 85.1081 402.663 84.9636 402.956 84.7682V86.2975C402.667 86.4811 402.374 86.6081 402.077 86.6784C401.784 86.7487 401.413 86.7839 400.964 86.7839ZM406.194 86.6667H404.407V77.5495H406.194V86.6667ZM410.716 81.2643C410.337 81.2643 410.04 81.3854 409.825 81.6276C409.611 81.8659 409.488 82.2057 409.456 82.6472H411.964C411.956 82.2057 411.841 81.8659 411.618 81.6276C411.396 81.3854 411.095 81.2643 410.716 81.2643ZM410.968 86.7839C409.913 86.7839 409.089 86.4929 408.495 85.9108C407.902 85.3288 407.605 84.5046 407.605 83.4382C407.605 82.3405 407.878 81.4929 408.425 80.8952C408.976 80.2936 409.736 79.9929 410.704 79.9929C411.63 79.9929 412.351 80.2565 412.866 80.7839C413.382 81.3112 413.64 82.0397 413.64 82.9694V83.8366H409.415C409.435 84.3444 409.585 84.7409 409.866 85.0261C410.148 85.3112 410.542 85.4538 411.05 85.4538C411.445 85.4538 411.818 85.4128 412.169 85.3307C412.521 85.2487 412.888 85.1179 413.271 84.9382V86.321C412.958 86.4772 412.624 86.5925 412.269 86.6667C411.913 86.7448 411.48 86.7839 410.968 86.7839ZM414.769 85.8288C414.769 85.5007 414.857 85.2526 415.033 85.0847C415.209 84.9167 415.464 84.8327 415.8 84.8327C416.125 84.8327 416.375 84.9186 416.55 85.0905C416.73 85.2624 416.82 85.5085 416.82 85.8288C416.82 86.1374 416.73 86.3815 416.55 86.5612C416.371 86.737 416.121 86.8249 415.8 86.8249C415.472 86.8249 415.218 86.739 415.039 86.5671C414.859 86.3913 414.769 86.1452 414.769 85.8288ZM414.769 80.989C414.769 80.6608 414.857 80.4128 415.033 80.2448C415.209 80.0768 415.464 79.9929 415.8 79.9929C416.125 79.9929 416.375 80.0788 416.55 80.2507C416.73 80.4225 416.82 80.6686 416.82 80.989C416.82 81.3054 416.728 81.5515 416.544 81.7272C416.365 81.8991 416.117 81.985 415.8 81.985C415.472 81.985 415.218 81.8991 415.039 81.7272C414.859 81.5554 414.769 81.3093 414.769 80.989ZM426.695 86.6667H421.065V85.8288L423.32 83.5612C424.008 82.8659 424.461 82.3698 424.68 82.0729C424.899 81.7761 425.063 81.487 425.172 81.2057C425.281 80.9245 425.336 80.6218 425.336 80.2975C425.336 79.8405 425.197 79.4792 424.92 79.2136C424.643 78.944 424.258 78.8093 423.766 78.8093C423.41 78.8093 423.072 78.8679 422.752 78.985C422.436 79.1022 422.082 79.3151 421.691 79.6237L421.176 78.9616C421.965 78.3054 422.824 77.9772 423.754 77.9772C424.559 77.9772 425.19 78.1843 425.647 78.5983C426.104 79.0085 426.332 79.5612 426.332 80.2565C426.332 80.7995 426.18 81.3366 425.875 81.8679C425.57 82.3991 425 83.071 424.164 83.8835L422.289 85.7175V85.7643H426.695V86.6667ZM430.696 77.9772C431.477 77.9772 432.096 78.1589 432.553 78.5222C433.01 78.8854 433.239 79.3874 433.239 80.028C433.239 80.4499 433.108 80.8347 432.846 81.1823C432.584 81.53 432.166 81.8464 431.592 82.1315C432.287 82.4636 432.782 82.8132 433.075 83.1804C433.368 83.5436 433.514 83.9655 433.514 84.446C433.514 85.1569 433.266 85.7253 432.77 86.1511C432.274 86.5729 431.594 86.7839 430.731 86.7839C429.817 86.7839 429.114 86.5847 428.621 86.1862C428.129 85.7839 427.883 85.2155 427.883 84.4811C427.883 83.5007 428.481 82.737 429.676 82.1901C429.137 81.8854 428.75 81.5573 428.516 81.2057C428.282 80.8503 428.164 80.4538 428.164 80.0163C428.164 79.3952 428.393 78.9011 428.85 78.5339C429.311 78.1628 429.926 77.9772 430.696 77.9772ZM428.844 84.5046C428.844 84.9733 429.006 85.3386 429.33 85.6003C429.659 85.862 430.118 85.9929 430.707 85.9929C431.289 85.9929 431.743 85.8561 432.067 85.5827C432.391 85.3093 432.553 84.9343 432.553 84.4577C432.553 84.0788 432.401 83.7429 432.096 83.4499C431.791 83.153 431.26 82.8659 430.502 82.5886C429.92 82.8386 429.498 83.1159 429.237 83.4206C428.975 83.7214 428.844 84.0827 428.844 84.5046ZM430.684 78.7682C430.196 78.7682 429.813 78.8854 429.535 79.1198C429.258 79.3542 429.119 79.6667 429.119 80.0573C429.119 80.4167 429.235 80.7253 429.465 80.9831C429.696 81.2409 430.121 81.4987 430.743 81.7565C431.301 81.5222 431.696 81.2702 431.926 81.0007C432.16 80.7311 432.278 80.4167 432.278 80.0573C432.278 79.6628 432.135 79.3503 431.85 79.1198C431.569 78.8854 431.18 78.7682 430.684 78.7682ZM439.471 85.8054H439.419C438.969 86.4577 438.297 86.7839 437.403 86.7839C436.563 86.7839 435.909 86.4968 435.44 85.9225C434.975 85.3483 434.743 84.5319 434.743 83.4733C434.743 82.4147 434.977 81.5925 435.446 81.0065C435.915 80.4206 436.567 80.1276 437.403 80.1276C438.274 80.1276 438.942 80.444 439.407 81.0768H439.483L439.442 80.614L439.419 80.1628V77.5495H440.391V86.6667H439.6L439.471 85.8054ZM437.526 85.9694C438.19 85.9694 438.671 85.7897 438.967 85.4304C439.268 85.0671 439.419 84.4831 439.419 83.6784V83.4733C439.419 82.5632 439.266 81.9147 438.962 81.528C438.661 81.1374 438.178 80.9421 437.514 80.9421C436.944 80.9421 436.506 81.1647 436.202 81.61C435.901 82.0515 435.751 82.6765 435.751 83.485C435.751 84.3054 435.901 84.9245 436.202 85.3425C436.503 85.7604 436.944 85.9694 437.526 85.9694ZM445.376 86.7839C444.958 86.7839 444.575 86.7077 444.227 86.5554C443.884 86.3991 443.595 86.1608 443.36 85.8405H443.29C443.337 86.2155 443.36 86.571 443.36 86.9069V89.5495H442.388V80.2448H443.179L443.313 81.1237H443.36C443.61 80.7722 443.901 80.5182 444.233 80.362C444.565 80.2057 444.946 80.1276 445.376 80.1276C446.227 80.1276 446.884 80.4186 447.345 81.0007C447.809 81.5827 448.042 82.3991 448.042 83.4499C448.042 84.5046 447.806 85.3249 447.333 85.9108C446.864 86.4929 446.212 86.7839 445.376 86.7839ZM445.235 80.9538C444.579 80.9538 444.104 81.1354 443.811 81.4987C443.518 81.862 443.368 82.4401 443.36 83.2331V83.4499C443.36 84.3522 443.511 84.9987 443.811 85.3893C444.112 85.7761 444.595 85.9694 445.259 85.9694C445.813 85.9694 446.247 85.7448 446.559 85.2956C446.876 84.8464 447.034 84.2272 447.034 83.4382C447.034 82.6374 446.876 82.0241 446.559 81.5983C446.247 81.1686 445.806 80.9538 445.235 80.9538ZM344.578 98.1003H347.244C348.459 98.1003 349.34 98.2741 349.887 98.6218C350.438 98.9655 350.713 99.5143 350.713 100.268C350.713 100.78 350.592 101.2 350.35 101.528C350.111 101.856 349.793 102.053 349.395 102.12V102.178C349.938 102.299 350.328 102.526 350.566 102.858C350.809 103.19 350.93 103.632 350.93 104.182C350.93 104.964 350.646 105.573 350.08 106.01C349.518 106.448 348.752 106.667 347.783 106.667H344.578V98.1003ZM346.395 101.493H347.449C347.941 101.493 348.297 101.417 348.516 101.264C348.738 101.112 348.85 100.86 348.85 100.508C348.85 100.18 348.729 99.946 348.486 99.8054C348.248 99.6608 347.869 99.5886 347.35 99.5886H346.395V101.493ZM346.395 102.934V105.167H347.578C348.078 105.167 348.447 105.071 348.686 104.88C348.924 104.688 349.043 104.395 349.043 104.001C349.043 103.29 348.535 102.934 347.52 102.934H346.395ZM353.852 103.38C353.852 104.028 353.957 104.518 354.168 104.85C354.383 105.182 354.731 105.348 355.211 105.348C355.688 105.348 356.03 105.184 356.237 104.856C356.448 104.524 356.553 104.032 356.553 103.38C356.553 102.731 356.448 102.245 356.237 101.921C356.026 101.596 355.68 101.434 355.199 101.434C354.723 101.434 354.379 101.596 354.168 101.921C353.957 102.241 353.852 102.727 353.852 103.38ZM358.381 103.38C358.381 104.446 358.1 105.28 357.537 105.882C356.975 106.483 356.192 106.784 355.188 106.784C354.559 106.784 354.004 106.647 353.524 106.374C353.043 106.096 352.674 105.7 352.416 105.184C352.158 104.669 352.03 104.067 352.03 103.38C352.03 102.309 352.309 101.477 352.867 100.883C353.426 100.29 354.211 99.9929 355.223 99.9929C355.852 99.9929 356.407 100.13 356.887 100.403C357.367 100.676 357.737 101.069 357.994 101.581C358.252 102.092 358.381 102.692 358.381 103.38ZM363.442 99.9929C363.684 99.9929 363.885 100.01 364.045 100.046L363.911 101.721C363.766 101.682 363.59 101.663 363.383 101.663C362.813 101.663 362.368 101.809 362.047 102.102C361.731 102.395 361.573 102.805 361.573 103.333V106.667H359.786V100.116H361.139L361.403 101.217H361.491C361.694 100.85 361.967 100.555 362.311 100.333C362.659 100.106 363.036 99.9929 363.442 99.9929ZM367.237 106.784C366.468 106.784 365.862 106.485 365.421 105.887C364.983 105.29 364.764 104.462 364.764 103.403C364.764 102.329 364.987 101.493 365.432 100.895C365.882 100.294 366.499 99.9929 367.284 99.9929C368.108 99.9929 368.737 100.313 369.171 100.954H369.229C369.139 100.466 369.095 100.03 369.095 99.6472V97.5495H370.888V106.667H369.516L369.171 105.817H369.095C368.688 106.462 368.069 106.784 367.237 106.784ZM367.864 105.36C368.321 105.36 368.655 105.227 368.866 104.962C369.081 104.696 369.198 104.245 369.218 103.608V103.415C369.218 102.712 369.108 102.208 368.889 101.903C368.675 101.598 368.323 101.446 367.835 101.446C367.436 101.446 367.126 101.616 366.903 101.956C366.684 102.292 366.575 102.782 366.575 103.426C366.575 104.071 366.686 104.555 366.909 104.88C367.132 105.2 367.45 105.36 367.864 105.36ZM375.398 101.264C375.019 101.264 374.722 101.385 374.507 101.628C374.292 101.866 374.169 102.206 374.138 102.647H376.646C376.638 102.206 376.523 101.866 376.3 101.628C376.077 101.385 375.776 101.264 375.398 101.264ZM375.649 106.784C374.595 106.784 373.771 106.493 373.177 105.911C372.583 105.329 372.286 104.505 372.286 103.438C372.286 102.341 372.56 101.493 373.107 100.895C373.657 100.294 374.417 99.9929 375.386 99.9929C376.312 99.9929 377.032 100.257 377.548 100.784C378.064 101.311 378.321 102.04 378.321 102.969V103.837H374.097C374.116 104.344 374.267 104.741 374.548 105.026C374.829 105.311 375.224 105.454 375.732 105.454C376.126 105.454 376.499 105.413 376.851 105.331C377.202 105.249 377.569 105.118 377.952 104.938V106.321C377.64 106.477 377.306 106.592 376.95 106.667C376.595 106.745 376.161 106.784 375.649 106.784ZM383.359 99.9929C383.601 99.9929 383.802 100.01 383.962 100.046L383.827 101.721C383.683 101.682 383.507 101.663 383.3 101.663C382.73 101.663 382.285 101.809 381.964 102.102C381.648 102.395 381.49 102.805 381.49 103.333V106.667H379.702V100.116H381.056L381.32 101.217H381.408C381.611 100.85 381.884 100.555 382.228 100.333C382.576 100.106 382.952 99.9929 383.359 99.9929ZM384.5 104.182V102.717H387.646V104.182H384.5ZM392.531 99.9929C392.773 99.9929 392.975 100.01 393.135 100.046L393 101.721C392.855 101.682 392.68 101.663 392.473 101.663C391.902 101.663 391.457 101.809 391.137 102.102C390.82 102.395 390.662 102.805 390.662 103.333V106.667H388.875V100.116H390.228L390.492 101.217H390.58C390.783 100.85 391.057 100.555 391.4 100.333C391.748 100.106 392.125 99.9929 392.531 99.9929ZM398.412 106.667L398.067 105.776H398.02C397.719 106.155 397.408 106.419 397.088 106.567C396.772 106.712 396.358 106.784 395.846 106.784C395.217 106.784 394.721 106.604 394.358 106.245C393.998 105.885 393.819 105.374 393.819 104.71C393.819 104.014 394.061 103.503 394.545 103.174C395.033 102.842 395.768 102.659 396.748 102.624L397.885 102.589V102.301C397.885 101.637 397.545 101.305 396.865 101.305C396.342 101.305 395.727 101.464 395.02 101.78L394.428 100.573C395.182 100.178 396.018 99.9811 396.936 99.9811C397.815 99.9811 398.488 100.173 398.957 100.555C399.426 100.938 399.66 101.52 399.66 102.301V106.667H398.412ZM397.885 103.632L397.194 103.655C396.674 103.671 396.287 103.764 396.033 103.936C395.779 104.108 395.653 104.37 395.653 104.721C395.653 105.225 395.942 105.477 396.52 105.477C396.934 105.477 397.264 105.358 397.51 105.12C397.76 104.882 397.885 104.565 397.885 104.171V103.632ZM403.508 106.784C402.739 106.784 402.133 106.485 401.692 105.887C401.254 105.29 401.036 104.462 401.036 103.403C401.036 102.329 401.258 101.493 401.704 100.895C402.153 100.294 402.77 99.9929 403.555 99.9929C404.379 99.9929 405.008 100.313 405.442 100.954H405.5C405.411 100.466 405.366 100.03 405.366 99.6472V97.5495H407.159V106.667H405.788L405.442 105.817H405.366C404.959 106.462 404.34 106.784 403.508 106.784ZM404.135 105.36C404.592 105.36 404.926 105.227 405.137 104.962C405.352 104.696 405.469 104.245 405.489 103.608V103.415C405.489 102.712 405.379 102.208 405.161 101.903C404.946 101.598 404.594 101.446 404.106 101.446C403.707 101.446 403.397 101.616 403.174 101.956C402.956 102.292 402.846 102.782 402.846 103.426C402.846 104.071 402.957 104.555 403.18 104.88C403.403 105.2 403.721 105.36 404.135 105.36ZM408.88 98.4225C408.88 97.8405 409.204 97.5495 409.852 97.5495C410.501 97.5495 410.825 97.8405 410.825 98.4225C410.825 98.6999 410.743 98.9167 410.579 99.0729C410.419 99.2253 410.176 99.3015 409.852 99.3015C409.204 99.3015 408.88 99.0085 408.88 98.4225ZM410.743 106.667H408.956V100.116H410.743V106.667ZM417.192 106.667L416.952 105.829H416.858C416.667 106.133 416.396 106.37 416.044 106.538C415.692 106.702 415.292 106.784 414.843 106.784C414.073 106.784 413.493 106.579 413.103 106.169C412.712 105.755 412.517 105.161 412.517 104.387V100.116H414.304V103.942C414.304 104.415 414.388 104.77 414.556 105.008C414.724 105.243 414.991 105.36 415.358 105.36C415.858 105.36 416.22 105.194 416.442 104.862C416.665 104.526 416.776 103.971 416.776 103.198V100.116H418.563V106.667H417.192ZM424.937 104.721C424.937 105.393 424.702 105.905 424.234 106.257C423.769 106.608 423.072 106.784 422.142 106.784C421.665 106.784 421.259 106.751 420.923 106.684C420.587 106.622 420.273 106.528 419.98 106.403V104.926C420.312 105.083 420.685 105.214 421.099 105.319C421.517 105.424 421.884 105.477 422.2 105.477C422.849 105.477 423.173 105.29 423.173 104.915C423.173 104.774 423.13 104.661 423.044 104.575C422.958 104.485 422.81 104.385 422.599 104.276C422.388 104.163 422.107 104.032 421.755 103.883C421.251 103.673 420.88 103.477 420.642 103.298C420.407 103.118 420.236 102.913 420.126 102.682C420.021 102.448 419.968 102.161 419.968 101.821C419.968 101.239 420.193 100.79 420.642 100.473C421.095 100.153 421.736 99.9929 422.564 99.9929C423.353 99.9929 424.12 100.165 424.866 100.508L424.327 101.798C423.999 101.657 423.693 101.542 423.407 101.452C423.122 101.362 422.831 101.317 422.534 101.317C422.007 101.317 421.743 101.46 421.743 101.745C421.743 101.905 421.827 102.044 421.995 102.161C422.167 102.278 422.54 102.452 423.115 102.682C423.626 102.889 424.001 103.083 424.24 103.262C424.478 103.442 424.654 103.649 424.767 103.883C424.88 104.118 424.937 104.397 424.937 104.721ZM426.007 105.829C426.007 105.501 426.095 105.253 426.271 105.085C426.447 104.917 426.703 104.833 427.039 104.833C427.363 104.833 427.613 104.919 427.789 105.091C427.968 105.262 428.058 105.508 428.058 105.829C428.058 106.137 427.968 106.382 427.789 106.561C427.609 106.737 427.359 106.825 427.039 106.825C426.71 106.825 426.457 106.739 426.277 106.567C426.097 106.391 426.007 106.145 426.007 105.829ZM426.007 100.989C426.007 100.661 426.095 100.413 426.271 100.245C426.447 100.077 426.703 99.9929 427.039 99.9929C427.363 99.9929 427.613 100.079 427.789 100.251C427.968 100.423 428.058 100.669 428.058 100.989C428.058 101.305 427.966 101.551 427.783 101.727C427.603 101.899 427.355 101.985 427.039 101.985C426.71 101.985 426.457 101.899 426.277 101.727C426.097 101.555 426.007 101.309 426.007 100.989ZM435.906 106.667H434.957V100.561C434.957 100.053 434.973 99.5729 435.004 99.1198C434.922 99.2018 434.83 99.2878 434.729 99.3776C434.627 99.4675 434.162 99.8483 433.334 100.52L432.818 99.8522L435.086 98.1003H435.906V106.667ZM444.776 102.372C444.776 103.852 444.541 104.958 444.073 105.688C443.608 106.419 442.895 106.784 441.934 106.784C441.012 106.784 440.311 106.411 439.83 105.665C439.35 104.915 439.11 103.817 439.11 102.372C439.11 100.88 439.342 99.7722 439.807 99.0495C440.272 98.3268 440.981 97.9655 441.934 97.9655C442.864 97.9655 443.569 98.3425 444.049 99.0964C444.534 99.8503 444.776 100.942 444.776 102.372ZM440.094 102.372C440.094 103.618 440.241 104.526 440.534 105.096C440.827 105.663 441.293 105.946 441.934 105.946C442.582 105.946 443.051 105.659 443.34 105.085C443.633 104.507 443.78 103.602 443.78 102.372C443.78 101.141 443.633 100.241 443.34 99.6706C443.051 99.0964 442.582 98.8093 441.934 98.8093C441.293 98.8093 440.827 99.0925 440.534 99.6589C440.241 100.221 440.094 101.126 440.094 102.372ZM451.571 102.372C451.571 103.852 451.337 104.958 450.868 105.688C450.403 106.419 449.69 106.784 448.729 106.784C447.807 106.784 447.106 106.411 446.626 105.665C446.145 104.915 445.905 103.817 445.905 102.372C445.905 100.88 446.137 99.7722 446.602 99.0495C447.067 98.3268 447.776 97.9655 448.729 97.9655C449.659 97.9655 450.364 98.3425 450.844 99.0964C451.329 99.8503 451.571 100.942 451.571 102.372ZM446.889 102.372C446.889 103.618 447.036 104.526 447.329 105.096C447.622 105.663 448.089 105.946 448.729 105.946C449.378 105.946 449.846 105.659 450.135 105.085C450.428 104.507 450.575 103.602 450.575 102.372C450.575 101.141 450.428 100.241 450.135 99.6706C449.846 99.0964 449.378 98.8093 448.729 98.8093C448.089 98.8093 447.622 99.0925 447.329 99.6589C447.036 100.221 446.889 101.126 446.889 102.372ZM457.505 105.805H457.452C457.003 106.458 456.331 106.784 455.436 106.784C454.597 106.784 453.942 106.497 453.474 105.923C453.009 105.348 452.776 104.532 452.776 103.473C452.776 102.415 453.011 101.592 453.479 101.007C453.948 100.421 454.6 100.128 455.436 100.128C456.308 100.128 456.975 100.444 457.44 101.077H457.517L457.475 100.614L457.452 100.163V97.5495H458.425V106.667H457.634L457.505 105.805ZM455.559 105.969C456.224 105.969 456.704 105.79 457.001 105.43C457.302 105.067 457.452 104.483 457.452 103.678V103.473C457.452 102.563 457.3 101.915 456.995 101.528C456.694 101.137 456.212 100.942 455.548 100.942C454.977 100.942 454.54 101.165 454.235 101.61C453.934 102.051 453.784 102.676 453.784 103.485C453.784 104.305 453.934 104.924 454.235 105.342C454.536 105.76 454.977 105.969 455.559 105.969ZM463.409 106.784C462.991 106.784 462.609 106.708 462.261 106.555C461.917 106.399 461.628 106.161 461.394 105.841H461.323C461.37 106.216 461.394 106.571 461.394 106.907V109.549H460.421V100.245H461.212L461.347 101.124H461.394C461.644 100.772 461.935 100.518 462.267 100.362C462.599 100.206 462.98 100.128 463.409 100.128C464.261 100.128 464.917 100.419 465.378 101.001C465.843 101.583 466.075 102.399 466.075 103.45C466.075 104.505 465.839 105.325 465.366 105.911C464.898 106.493 464.245 106.784 463.409 106.784ZM463.269 100.954C462.612 100.954 462.138 101.135 461.845 101.499C461.552 101.862 461.402 102.44 461.394 103.233V103.45C461.394 104.352 461.544 104.999 461.845 105.389C462.146 105.776 462.628 105.969 463.292 105.969C463.847 105.969 464.28 105.745 464.593 105.296C464.909 104.846 465.068 104.227 465.068 103.438C465.068 102.637 464.909 102.024 464.593 101.598C464.28 101.169 463.839 100.954 463.269 100.954Z" fill="black"/>
<path d="M332.5 118.667V64.6667H470.327V75.1521L477.5 83.0162L470.327 90.356V118.667H332.5Z" stroke="#CCCCCC"/>
<rect x="483.5" y="75.6667" width="64" height="32" rx="16" fill="#217CBB"/>
<path d="M545 91.6667C545 99.1225 538.956 105.167 531.5 105.167C524.044 105.167 518 99.1225 518 91.6667C518 84.2108 524.044 78.1667 531.5 78.1667C538.956 78.1667 545 84.2108 545 91.6667Z" fill="white" stroke="#217CBB"/>
<path d="M553.5 76H562.5V107H553.5" stroke="#4091D2"/>
<path d="M578.635 86.72C578.635 87.2551 578.473 87.7102 578.148 88.0852C577.824 88.4602 577.369 88.718 576.783 88.8586V88.8938C577.475 88.9797 577.998 89.1907 578.354 89.5266C578.709 89.8586 578.887 90.3079 578.887 90.8743C578.887 91.6985 578.588 92.3411 577.99 92.802C577.393 93.259 576.539 93.4875 575.43 93.4875C574.5 93.4875 573.676 93.3333 572.957 93.0247V91.4836C573.289 91.6516 573.654 91.7883 574.053 91.8938C574.451 91.9993 574.846 92.052 575.236 92.052C575.834 92.052 576.275 91.9504 576.561 91.7473C576.846 91.5442 576.988 91.218 576.988 90.7688C576.988 90.3665 576.824 90.0813 576.496 89.9133C576.168 89.7454 575.645 89.6614 574.926 89.6614H574.275V88.2727H574.938C575.602 88.2727 576.086 88.1868 576.391 88.0149C576.699 87.8391 576.854 87.5403 576.854 87.1184C576.854 86.47 576.447 86.1458 575.635 86.1458C575.354 86.1458 575.066 86.1926 574.773 86.2864C574.484 86.3801 574.162 86.5422 573.807 86.7727L572.969 85.5247C573.75 84.9622 574.682 84.6809 575.764 84.6809C576.65 84.6809 577.35 84.8606 577.861 85.22C578.377 85.5793 578.635 86.0793 578.635 86.72ZM585.752 93.3704H579.764V92.1106L581.914 89.9368C582.551 89.2844 582.967 88.8333 583.162 88.5833C583.358 88.3293 583.498 88.095 583.584 87.8801C583.67 87.6653 583.713 87.4426 583.713 87.2122C583.713 86.8684 583.617 86.6125 583.426 86.4446C583.239 86.2766 582.987 86.1926 582.67 86.1926C582.338 86.1926 582.016 86.2688 581.703 86.4211C581.391 86.5735 581.065 86.7903 580.725 87.0715L579.74 85.9055C580.162 85.5461 580.512 85.2922 580.789 85.1438C581.067 84.9954 581.369 84.8821 581.698 84.804C582.026 84.7219 582.393 84.6809 582.799 84.6809C583.334 84.6809 583.807 84.7786 584.217 84.9739C584.627 85.1692 584.946 85.4426 585.172 85.7942C585.399 86.1458 585.512 86.5481 585.512 87.0012C585.512 87.3958 585.442 87.7668 585.301 88.1145C585.164 88.4583 584.949 88.8118 584.657 89.175C584.367 89.5383 583.856 90.0559 583.121 90.7278L582.02 91.7649V91.8469H585.752V93.3704ZM589.079 93.4875C588.309 93.4875 587.704 93.1887 587.262 92.5911C586.825 91.9934 586.606 91.1653 586.606 90.1067C586.606 89.0325 586.829 88.1965 587.274 87.5989C587.723 86.9973 588.34 86.6965 589.126 86.6965C589.95 86.6965 590.579 87.0168 591.012 87.6575H591.071C590.981 87.1692 590.936 86.7336 590.936 86.3508V84.2532H592.729V93.3704H591.358L591.012 92.5208H590.936C590.53 93.1653 589.911 93.4875 589.079 93.4875ZM589.706 92.0637C590.163 92.0637 590.497 91.9309 590.708 91.6653C590.922 91.3997 591.04 90.9485 591.059 90.3118V90.1184C591.059 89.4153 590.95 88.9114 590.731 88.6067C590.516 88.302 590.165 88.1497 589.676 88.1497C589.278 88.1497 588.967 88.3196 588.745 88.6594C588.526 88.9954 588.417 89.4856 588.417 90.1301C588.417 90.7747 588.528 91.259 588.751 91.5833C588.973 91.9036 589.292 92.0637 589.706 92.0637ZM598.124 93.4875C597.354 93.4875 596.751 93.2083 596.313 92.6497H596.22C596.282 93.1965 596.313 93.5129 596.313 93.5989V96.2532H594.526V86.8196H595.979L596.231 87.6692H596.313C596.731 87.0208 597.35 86.6965 598.171 86.6965C598.944 86.6965 599.55 86.9954 599.987 87.593C600.425 88.1907 600.643 89.0208 600.643 90.0833C600.643 90.7825 600.54 91.3899 600.333 91.9055C600.13 92.4211 599.839 92.8137 599.46 93.0833C599.081 93.3528 598.636 93.4875 598.124 93.4875ZM597.597 88.1262C597.155 88.1262 596.833 88.2629 596.63 88.5364C596.427 88.8059 596.321 89.2532 596.313 89.8782V90.0715C596.313 90.7747 596.417 91.2786 596.624 91.5833C596.835 91.8879 597.167 92.0403 597.62 92.0403C598.421 92.0403 598.821 91.3801 598.821 90.0598C598.821 89.4153 598.722 88.9329 598.522 88.6125C598.327 88.2883 598.018 88.1262 597.597 88.1262Z" fill="#4091D2"/>
<rect width="88" height="142.333" transform="translate(862)" fill="#C4C4C4"/>
<rect width="88" height="40" transform="translate(862 1)" fill="#F1F1F6"/>
<path d="M881.447 26H879.335V21.6865H875.377V26H873.258V16.0059H875.377V19.9229H879.335V16.0059H881.447V26ZM886.894 19.6973C886.451 19.6973 886.105 19.8385 885.854 20.1211C885.604 20.3991 885.46 20.7956 885.424 21.3105H888.35C888.34 20.7956 888.206 20.3991 887.946 20.1211C887.687 19.8385 887.336 19.6973 886.894 19.6973ZM887.187 26.1367C885.957 26.1367 884.995 25.7972 884.303 25.1182C883.61 24.4391 883.264 23.4775 883.264 22.2334C883.264 20.9528 883.583 19.9639 884.221 19.2666C884.863 18.5648 885.75 18.2139 886.88 18.2139C887.96 18.2139 888.801 18.5215 889.402 19.1367C890.004 19.752 890.305 20.6019 890.305 21.6865V22.6982H885.376C885.399 23.2907 885.574 23.7533 885.902 24.0859C886.23 24.4186 886.691 24.585 887.283 24.585C887.743 24.585 888.179 24.5371 888.589 24.4414C888.999 24.3457 889.427 24.193 889.874 23.9834V25.5967C889.509 25.779 889.12 25.9134 888.705 26C888.29 26.0911 887.784 26.1367 887.187 26.1367ZM891.827 16.3818C891.827 15.7028 892.205 15.3633 892.962 15.3633C893.718 15.3633 894.097 15.7028 894.097 16.3818C894.097 16.7054 894.001 16.9583 893.81 17.1406C893.623 17.3184 893.34 17.4072 892.962 17.4072C892.205 17.4072 891.827 17.0654 891.827 16.3818ZM894.001 26H891.916V18.3574H894.001V26ZM902.763 18.3574V19.417L901.566 19.7246C901.785 20.0664 901.894 20.4492 901.894 20.873C901.894 21.6934 901.607 22.3337 901.033 22.7939C900.463 23.2497 899.671 23.4775 898.654 23.4775L898.278 23.457L897.971 23.4229C897.756 23.5869 897.649 23.7692 897.649 23.9697C897.649 24.2705 898.032 24.4209 898.798 24.4209H900.097C900.935 24.4209 901.573 24.6009 902.011 24.9609C902.453 25.321 902.674 25.8496 902.674 26.5469C902.674 27.4401 902.3 28.1328 901.553 28.625C900.81 29.1172 899.741 29.3633 898.347 29.3633C897.28 29.3633 896.464 29.1764 895.899 28.8027C895.339 28.4336 895.059 27.9141 895.059 27.2441C895.059 26.7839 895.202 26.3988 895.489 26.0889C895.776 25.779 896.198 25.5579 896.754 25.4258C896.54 25.3346 896.353 25.1865 896.193 24.9814C896.034 24.7718 895.954 24.5508 895.954 24.3184C895.954 24.0267 896.038 23.7852 896.207 23.5938C896.376 23.3978 896.619 23.2064 896.938 23.0195C896.537 22.8464 896.218 22.5684 895.981 22.1855C895.749 21.8027 895.633 21.3516 895.633 20.832C895.633 19.998 895.904 19.3532 896.446 18.8975C896.989 18.4417 897.763 18.2139 898.77 18.2139C898.985 18.2139 899.238 18.2344 899.529 18.2754C899.825 18.3118 900.015 18.3392 900.097 18.3574H902.763ZM896.863 27.0801C896.863 27.3672 897 27.5928 897.273 27.7568C897.551 27.9209 897.939 28.0029 898.435 28.0029C899.183 28.0029 899.769 27.9004 900.192 27.6953C900.616 27.4902 900.828 27.21 900.828 26.8545C900.828 26.5674 900.703 26.3691 900.452 26.2598C900.201 26.1504 899.814 26.0957 899.29 26.0957H898.21C897.827 26.0957 897.506 26.1846 897.246 26.3623C896.991 26.5446 896.863 26.7839 896.863 27.0801ZM897.622 20.8594C897.622 21.2741 897.715 21.6022 897.902 21.8438C898.094 22.0853 898.383 22.2061 898.77 22.2061C899.162 22.2061 899.449 22.0853 899.632 21.8438C899.814 21.6022 899.905 21.2741 899.905 20.8594C899.905 19.9388 899.527 19.4785 898.77 19.4785C898.005 19.4785 897.622 19.9388 897.622 20.8594ZM910.998 26H908.913V21.5361C908.913 20.4333 908.503 19.8818 907.683 19.8818C907.099 19.8818 906.678 20.0801 906.418 20.4766C906.158 20.873 906.028 21.5156 906.028 22.4043V26H903.943V15.3633H906.028V17.5303C906.028 17.6989 906.012 18.0954 905.98 18.7197L905.933 19.335H906.042C906.507 18.5876 907.245 18.2139 908.257 18.2139C909.155 18.2139 909.836 18.4554 910.301 18.9385C910.766 19.4215 910.998 20.1143 910.998 21.0166V26ZM916.28 24.4756C916.645 24.4756 917.082 24.3958 917.593 24.2363V25.7881C917.073 26.0205 916.435 26.1367 915.679 26.1367C914.845 26.1367 914.236 25.9271 913.853 25.5078C913.475 25.084 913.286 24.4505 913.286 23.6074V19.9229H912.288V19.041L913.436 18.3438L914.038 16.7305H915.371V18.3574H917.511V19.9229H915.371V23.6074C915.371 23.9036 915.453 24.1224 915.617 24.2637C915.786 24.4049 916.007 24.4756 916.28 24.4756Z" fill="#50545B"/>
<rect width="88" height="99.3333" transform="translate(862 42)" fill="white"/>
<path d="M875.808 90.5622C876.86 90.5622 877.688 90.8242 878.289 91.3483C878.895 91.8679 879.198 92.5811 879.198 93.488C879.198 94.5225 878.868 95.3337 878.207 95.9216C877.551 96.5095 876.644 96.8034 875.486 96.8034C874.361 96.8034 873.502 96.6234 872.909 96.2634V95.1696C873.228 95.3747 873.625 95.5365 874.099 95.655C874.573 95.7689 875.04 95.8259 875.5 95.8259C876.302 95.8259 876.924 95.6367 877.366 95.2585C877.813 94.8802 878.036 94.3334 878.036 93.6179C878.036 92.2233 877.182 91.5261 875.473 91.5261C875.04 91.5261 874.461 91.5921 873.736 91.7243L873.148 91.3483L873.524 86.6725H878.494V87.7184H874.495L874.242 90.7194C874.766 90.6146 875.288 90.5622 875.808 90.5622ZM880.728 92.3942C880.728 90.43 881.108 88.9626 881.869 87.9919C882.635 87.0166 883.765 86.529 885.26 86.529C885.775 86.529 886.18 86.5723 886.477 86.6589V87.6364C886.126 87.5225 885.725 87.4655 885.273 87.4655C884.202 87.4655 883.384 87.8005 882.819 88.4704C882.254 89.1358 881.944 90.1839 881.89 91.6149H881.972C882.473 90.8311 883.266 90.4391 884.351 90.4391C885.248 90.4391 885.955 90.7103 886.47 91.2526C886.989 91.7949 887.249 92.5309 887.249 93.4606C887.249 94.4997 886.964 95.3177 886.395 95.9147C885.829 96.5072 885.064 96.8034 884.098 96.8034C883.063 96.8034 882.243 96.416 881.637 95.6413C881.031 94.862 880.728 93.7796 880.728 92.3942ZM884.084 95.8395C884.731 95.8395 885.232 95.6367 885.588 95.2311C885.948 94.821 886.128 94.2308 886.128 93.4606C886.128 92.7998 885.962 92.2803 885.629 91.902C885.296 91.5238 884.799 91.3347 884.139 91.3347C883.728 91.3347 883.353 91.419 883.011 91.5876C882.669 91.7562 882.395 91.9886 882.19 92.2849C881.99 92.5811 881.89 92.8887 881.89 93.2077C881.89 93.6771 881.981 94.1146 882.163 94.5202C882.345 94.9258 882.603 95.2471 882.936 95.4841C883.273 95.721 883.656 95.8395 884.084 95.8395ZM894.158 95.6618H894.097C893.573 96.4229 892.789 96.8034 891.745 96.8034C890.765 96.8034 890.002 96.4684 889.455 95.7985C888.913 95.1286 888.642 94.1761 888.642 92.9411C888.642 91.7061 888.915 90.7468 889.462 90.0632C890.009 89.3796 890.77 89.0378 891.745 89.0378C892.761 89.0378 893.541 89.4069 894.083 90.1452H894.172L894.124 89.6052L894.097 89.0788V86.03H895.231V96.6667H894.309L894.158 95.6618ZM891.889 95.8532C892.663 95.8532 893.224 95.6436 893.57 95.2243C893.921 94.8005 894.097 94.1192 894.097 93.1804V92.9411C894.097 91.8793 893.919 91.1227 893.563 90.6716C893.213 90.2158 892.65 89.988 891.875 89.988C891.21 89.988 890.699 90.2477 890.344 90.7673C889.993 91.2822 889.817 92.0114 889.817 92.9548C889.817 93.9118 889.993 94.6341 890.344 95.1218C890.695 95.6094 891.21 95.8532 891.889 95.8532ZM901.047 96.8034C900.559 96.8034 900.113 96.7145 899.707 96.5368C899.306 96.3545 898.969 96.0765 898.695 95.7028H898.613C898.668 96.1403 898.695 96.555 898.695 96.947V100.03H897.56V89.1745H898.483L898.641 90.1999H898.695C898.987 89.7897 899.326 89.4935 899.714 89.3112C900.101 89.1289 900.546 89.0378 901.047 89.0378C902.04 89.0378 902.806 89.3773 903.344 90.0563C903.886 90.7354 904.157 91.6878 904.157 92.9138C904.157 94.1442 903.881 95.1013 903.33 95.7849C902.783 96.4639 902.022 96.8034 901.047 96.8034ZM900.883 90.0016C900.117 90.0016 899.563 90.2136 899.222 90.6374C898.88 91.0612 898.704 91.7357 898.695 92.6608V92.9138C898.695 93.9665 898.871 94.7207 899.222 95.1765C899.573 95.6276 900.135 95.8532 900.91 95.8532C901.557 95.8532 902.063 95.5912 902.428 95.0671C902.797 94.543 902.981 93.8207 902.981 92.9001C902.981 91.9658 902.797 91.2503 902.428 90.7536C902.063 90.2523 901.548 90.0016 900.883 90.0016Z" fill="black"/>
<rect width="136" height="142.333" transform="translate(951)" fill="#C4C4C4"/>
<rect width="136" height="40" transform="translate(951 1)" fill="#F1F1F6"/>
<path d="M970.393 16.0059V22.4727C970.393 23.2109 970.226 23.8581 969.894 24.4141C969.565 24.9701 969.089 25.3962 968.465 25.6924C967.84 25.9886 967.102 26.1367 966.25 26.1367C964.965 26.1367 963.967 25.8086 963.256 25.1523C962.545 24.4915 962.189 23.5892 962.189 22.4453V16.0059H964.302V22.124C964.302 22.8942 964.457 23.4593 964.767 23.8193C965.076 24.1794 965.589 24.3594 966.305 24.3594C966.997 24.3594 967.499 24.1794 967.809 23.8193C968.123 23.4548 968.28 22.8851 968.28 22.1104V16.0059H970.393ZM977.924 23.7305C977.924 24.5143 977.65 25.1113 977.104 25.5215C976.561 25.9316 975.748 26.1367 974.663 26.1367C974.107 26.1367 973.633 26.098 973.241 26.0205C972.849 25.9476 972.482 25.8382 972.141 25.6924V23.9697C972.528 24.152 972.963 24.3047 973.446 24.4277C973.934 24.5508 974.362 24.6123 974.731 24.6123C975.488 24.6123 975.866 24.3936 975.866 23.9561C975.866 23.792 975.816 23.6598 975.716 23.5596C975.616 23.4548 975.442 23.3385 975.196 23.2109C974.95 23.0788 974.622 22.9261 974.212 22.7529C973.624 22.5068 973.191 22.279 972.913 22.0693C972.64 21.8597 972.439 21.6204 972.312 21.3516C972.188 21.0781 972.127 20.7432 972.127 20.3467C972.127 19.6676 972.389 19.1436 972.913 18.7744C973.442 18.4007 974.189 18.2139 975.155 18.2139C976.076 18.2139 976.971 18.4144 977.842 18.8154L977.213 20.3193C976.83 20.1553 976.472 20.0208 976.14 19.916C975.807 19.8112 975.467 19.7588 975.121 19.7588C974.506 19.7588 974.198 19.9251 974.198 20.2578C974.198 20.4447 974.296 20.6064 974.492 20.7432C974.693 20.8799 975.128 21.0827 975.798 21.3516C976.395 21.5931 976.832 21.8187 977.11 22.0283C977.388 22.238 977.593 22.4795 977.726 22.7529C977.858 23.0264 977.924 23.3522 977.924 23.7305ZM982.632 19.6973C982.19 19.6973 981.843 19.8385 981.593 20.1211C981.342 20.3991 981.199 20.7956 981.162 21.3105H984.088C984.079 20.7956 983.944 20.3991 983.685 20.1211C983.425 19.8385 983.074 19.6973 982.632 19.6973ZM982.926 26.1367C981.695 26.1367 980.734 25.7972 980.041 25.1182C979.348 24.4391 979.002 23.4775 979.002 22.2334C979.002 20.9528 979.321 19.9639 979.959 19.2666C980.602 18.5648 981.488 18.2139 982.618 18.2139C983.698 18.2139 984.539 18.5215 985.141 19.1367C985.742 19.752 986.043 20.6019 986.043 21.6865V22.6982H981.114C981.137 23.2907 981.312 23.7533 981.641 24.0859C981.969 24.4186 982.429 24.585 983.021 24.585C983.482 24.585 983.917 24.5371 984.327 24.4414C984.737 24.3457 985.166 24.193 985.612 23.9834V25.5967C985.248 25.779 984.858 25.9134 984.443 26C984.029 26.0911 983.523 26.1367 982.926 26.1367ZM995.616 17.626C994.819 17.626 994.201 17.9268 993.764 18.5283C993.326 19.1253 993.107 19.9593 993.107 21.0303C993.107 23.2588 993.944 24.373 995.616 24.373C996.318 24.373 997.168 24.1976 998.166 23.8467V25.624C997.346 25.9658 996.43 26.1367 995.418 26.1367C993.964 26.1367 992.852 25.6969 992.082 24.8174C991.312 23.9333 990.927 22.6663 990.927 21.0166C990.927 19.9775 991.116 19.0684 991.494 18.2891C991.872 17.5052 992.415 16.9059 993.121 16.4912C993.832 16.0719 994.664 15.8623 995.616 15.8623C996.587 15.8623 997.562 16.097 998.542 16.5664L997.858 18.2891C997.485 18.1113 997.109 17.9564 996.73 17.8242C996.352 17.6921 995.981 17.626 995.616 17.626ZM1004.9 26L1004.5 24.9609H1004.45C1004.1 25.403 1003.73 25.7106 1003.36 25.8838C1002.99 26.0524 1002.51 26.1367 1001.91 26.1367C1001.18 26.1367 1000.6 25.9271 1000.17 25.5078C999.754 25.0885 999.545 24.4915 999.545 23.7168C999.545 22.9056 999.827 22.3086 1000.39 21.9258C1000.96 21.5384 1001.82 21.3242 1002.96 21.2832L1004.29 21.2422V20.9072C1004.29 20.1325 1003.89 19.7451 1003.1 19.7451C1002.49 19.7451 1001.77 19.9297 1000.95 20.2988L1000.26 18.8906C1001.14 18.4303 1002.11 18.2002 1003.18 18.2002C1004.21 18.2002 1004.99 18.4235 1005.54 18.8701C1006.09 19.3167 1006.36 19.9958 1006.36 20.9072V26H1004.9ZM1004.29 22.459L1003.48 22.4863C1002.88 22.5046 1002.43 22.6139 1002.13 22.8145C1001.83 23.015 1001.68 23.3203 1001.68 23.7305C1001.68 24.3184 1002.02 24.6123 1002.7 24.6123C1003.18 24.6123 1003.56 24.4733 1003.85 24.1953C1004.14 23.9173 1004.29 23.5482 1004.29 23.0879V22.459ZM1013.76 23.7305C1013.76 24.5143 1013.49 25.1113 1012.94 25.5215C1012.4 25.9316 1011.59 26.1367 1010.5 26.1367C1009.94 26.1367 1009.47 26.098 1009.08 26.0205C1008.69 25.9476 1008.32 25.8382 1007.98 25.6924V23.9697C1008.37 24.152 1008.8 24.3047 1009.28 24.4277C1009.77 24.5508 1010.2 24.6123 1010.57 24.6123C1011.33 24.6123 1011.7 24.3936 1011.7 23.9561C1011.7 23.792 1011.65 23.6598 1011.55 23.5596C1011.45 23.4548 1011.28 23.3385 1011.03 23.2109C1010.79 23.0788 1010.46 22.9261 1010.05 22.7529C1009.46 22.5068 1009.03 22.279 1008.75 22.0693C1008.48 21.8597 1008.28 21.6204 1008.15 21.3516C1008.03 21.0781 1007.96 20.7432 1007.96 20.3467C1007.96 19.6676 1008.23 19.1436 1008.75 18.7744C1009.28 18.4007 1010.03 18.2139 1010.99 18.2139C1011.91 18.2139 1012.81 18.4144 1013.68 18.8154L1013.05 20.3193C1012.67 20.1553 1012.31 20.0208 1011.98 19.916C1011.64 19.8112 1011.31 19.7588 1010.96 19.7588C1010.34 19.7588 1010.04 19.9251 1010.04 20.2578C1010.04 20.4447 1010.13 20.6064 1010.33 20.7432C1010.53 20.8799 1010.97 21.0827 1011.64 21.3516C1012.23 21.5931 1012.67 21.8187 1012.95 22.0283C1013.23 22.238 1013.43 22.4795 1013.56 22.7529C1013.7 23.0264 1013.76 23.3522 1013.76 23.7305ZM1018.47 19.6973C1018.03 19.6973 1017.68 19.8385 1017.43 20.1211C1017.18 20.3991 1017.04 20.7956 1017 21.3105H1019.93C1019.92 20.7956 1019.78 20.3991 1019.52 20.1211C1019.26 19.8385 1018.91 19.6973 1018.47 19.6973ZM1018.76 26.1367C1017.53 26.1367 1016.57 25.7972 1015.88 25.1182C1015.19 24.4391 1014.84 23.4775 1014.84 22.2334C1014.84 20.9528 1015.16 19.9639 1015.8 19.2666C1016.44 18.5648 1017.33 18.2139 1018.46 18.2139C1019.54 18.2139 1020.38 18.5215 1020.98 19.1367C1021.58 19.752 1021.88 20.6019 1021.88 21.6865V22.6982H1016.95C1016.97 23.2907 1017.15 23.7533 1017.48 24.0859C1017.81 24.4186 1018.27 24.585 1018.86 24.585C1019.32 24.585 1019.75 24.5371 1020.16 24.4414C1020.58 24.3457 1021 24.193 1021.45 23.9834V25.5967C1021.09 25.779 1020.7 25.9134 1020.28 26C1019.87 26.0911 1019.36 26.1367 1018.76 26.1367Z" fill="#50545B"/>
<rect width="136" height="99.3333" transform="translate(951 42)" fill="white"/>
<path d="M962.374 96.6667V86.6725H963.536V95.614H967.945V96.6667H962.374ZM970.527 96.6667H969.393V89.1745H970.527V96.6667ZM969.297 87.1442C969.297 86.8845 969.361 86.6953 969.488 86.5768C969.616 86.4538 969.775 86.3923 969.967 86.3923C970.149 86.3923 970.306 86.4538 970.438 86.5768C970.571 86.6999 970.637 86.889 970.637 87.1442C970.637 87.3994 970.571 87.5908 970.438 87.7184C970.306 87.8415 970.149 87.903 969.967 87.903C969.775 87.903 969.616 87.8415 969.488 87.7184C969.361 87.5908 969.297 87.3994 969.297 87.1442ZM977.683 94.6227C977.683 95.32 977.423 95.8578 976.903 96.236C976.384 96.6143 975.655 96.8034 974.716 96.8034C973.722 96.8034 972.948 96.6462 972.392 96.3317V95.279C972.752 95.4613 973.137 95.6048 973.547 95.7097C973.962 95.8145 974.36 95.8669 974.743 95.8669C975.336 95.8669 975.791 95.7735 976.11 95.5866C976.429 95.3952 976.589 95.1058 976.589 94.7184C976.589 94.4268 976.461 94.1784 976.206 93.9733C975.955 93.7637 975.463 93.5176 974.729 93.235C974.032 92.9753 973.535 92.7497 973.239 92.5583C972.948 92.3623 972.729 92.1413 972.583 91.8952C972.442 91.6491 972.371 91.3552 972.371 91.0134C972.371 90.4027 972.619 89.9219 973.116 89.571C973.613 89.2155 974.294 89.0378 975.16 89.0378C975.967 89.0378 976.755 89.2018 977.525 89.53L977.122 90.4528C976.37 90.1429 975.689 89.988 975.078 89.988C974.54 89.988 974.135 90.0723 973.861 90.2409C973.588 90.4095 973.451 90.6419 973.451 90.9382C973.451 91.1387 973.501 91.3096 973.602 91.4509C973.706 91.5921 973.873 91.7266 974.101 91.8542C974.328 91.9818 974.766 92.1664 975.413 92.4079C976.302 92.7315 976.901 93.0573 977.211 93.3854C977.525 93.7136 977.683 94.126 977.683 94.6227ZM981.871 95.8669C982.072 95.8669 982.265 95.8532 982.452 95.8259C982.639 95.794 982.787 95.7621 982.896 95.7302V96.5983C982.773 96.6576 982.591 96.7054 982.35 96.7419C982.113 96.7829 981.898 96.8034 981.707 96.8034C980.258 96.8034 979.533 96.0401 979.533 94.5134V90.0563H978.46V89.5095L979.533 89.0378L980.012 87.4382H980.668V89.1745H982.842V90.0563H980.668V94.4655C980.668 94.9167 980.775 95.263 980.989 95.5046C981.203 95.7461 981.497 95.8669 981.871 95.8669Z" fill="black"/>
</svg>
