<svg width="1088" height="143" viewBox="0 0 1088 143" fill="none" xmlns="http://www.w3.org/2000/svg">
<rect width="1088" height="142.333" fill="#C4C4C4"/>
<rect width="270" height="40" transform="translate(1 1.00012)" fill="#F1F1F6"/>
<path d="M12.2578 26.0001V16.006H14.377V24.2501H18.4307V26.0001H12.2578ZM24.7793 26.0001L24.376 24.9611H24.3213C23.9704 25.4031 23.6081 25.7107 23.2344 25.8839C22.8652 26.0525 22.3821 26.1368 21.7851 26.1368C21.0514 26.1368 20.4726 25.9272 20.0488 25.5079C19.6295 25.0887 19.4199 24.4917 19.4199 23.7169C19.4199 22.9057 19.7025 22.3087 20.2676 21.9259C20.8372 21.5385 21.694 21.3243 22.8379 21.2833L24.164 21.2423V20.9073C24.164 20.1326 23.7676 19.7452 22.9746 19.7452C22.3639 19.7452 21.6461 19.9298 20.8213 20.299L20.1308 18.8907C21.0104 18.4305 21.9857 18.2003 23.0566 18.2003C24.082 18.2003 24.8681 18.4236 25.415 18.8702C25.9619 19.3169 26.2353 19.9959 26.2353 20.9073V26.0001H24.7793ZM24.164 22.4591L23.3574 22.4865C22.7513 22.5047 22.3001 22.6141 22.0039 22.8146C21.7077 23.0151 21.5596 23.3204 21.5596 23.7306C21.5596 24.3185 21.8968 24.6124 22.5713 24.6124C23.0543 24.6124 23.4394 24.4734 23.7265 24.1954C24.0182 23.9174 24.164 23.5483 24.164 23.088V22.4591ZM32.5566 18.214C33.459 18.214 34.1653 18.5672 34.6758 19.2736C35.1862 19.9754 35.4414 20.9392 35.4414 22.1652C35.4414 23.4275 35.1771 24.4051 34.6484 25.0978C34.1243 25.7905 33.4088 26.1368 32.5019 26.1368C31.6041 26.1368 30.9 25.811 30.3896 25.1593H30.2461L29.8974 26.0001H28.3047V15.3634H30.3896V17.838C30.3896 18.1525 30.3623 18.656 30.3076 19.3488H30.3896C30.8772 18.5922 31.5996 18.214 32.5566 18.214ZM31.8867 19.882C31.3717 19.882 30.9957 20.0415 30.7588 20.3605C30.5218 20.6749 30.3987 21.1967 30.3896 21.9259V22.1515C30.3896 22.9718 30.5104 23.5597 30.7519 23.9152C30.998 24.2706 31.3854 24.4484 31.914 24.4484C32.3424 24.4484 32.6819 24.2524 32.9326 23.8605C33.1878 23.464 33.3154 22.8898 33.3154 22.1378C33.3154 21.3859 33.1878 20.823 32.9326 20.4493C32.6774 20.0711 32.3287 19.882 31.8867 19.882ZM40.2451 19.6974C39.803 19.6974 39.4567 19.8387 39.206 20.1212C38.9554 20.3992 38.8118 20.7957 38.7753 21.3107H41.7011C41.692 20.7957 41.5576 20.3992 41.2978 20.1212C41.038 19.8387 40.6871 19.6974 40.2451 19.6974ZM40.539 26.1368C39.3085 26.1368 38.347 25.7973 37.6542 25.1183C36.9615 24.4392 36.6152 23.4777 36.6152 22.2335C36.6152 20.9529 36.9342 19.964 37.5722 19.2667C38.2148 18.5649 39.1012 18.214 40.2314 18.214C41.3115 18.214 42.1523 18.5216 42.7539 19.1368C43.3554 19.7521 43.6562 20.602 43.6562 21.6866V22.6984H38.7275C38.7503 23.2908 38.9257 23.7534 39.2539 24.0861C39.582 24.4187 40.0423 24.5851 40.6347 24.5851C41.095 24.5851 41.5302 24.5372 41.9404 24.4415C42.3505 24.3458 42.7789 24.1932 43.2255 23.9835V25.5968C42.861 25.7791 42.4713 25.9135 42.0566 26.0001C41.6419 26.0913 41.136 26.1368 40.539 26.1368ZM47.3525 26.0001H45.2675V15.3634H47.3525V26.0001ZM55.2987 20.4425H55.9823C56.6522 20.4425 57.1467 20.3309 57.4657 20.1075C57.7847 19.8842 57.9442 19.5333 57.9442 19.0548C57.9442 18.5809 57.7802 18.2436 57.4521 18.0431C57.1285 17.8426 56.6249 17.7423 55.9413 17.7423H55.2987V20.4425ZM55.2987 22.1652V26.0001H53.1796V16.006H56.0917C57.4498 16.006 58.4547 16.2544 59.1063 16.7511C59.758 17.2433 60.0839 17.993 60.0839 19.0001C60.0839 19.588 59.9221 20.1121 59.5985 20.5724C59.275 21.0281 58.817 21.3859 58.2245 21.6456C59.7284 23.8924 60.7082 25.3439 61.164 26.0001H58.8124L56.4267 22.1652H55.2987ZM62.0849 16.382C62.0849 15.7029 62.4631 15.3634 63.2196 15.3634C63.9761 15.3634 64.3544 15.7029 64.3544 16.382C64.3544 16.7055 64.2587 16.9585 64.0673 17.1407C63.8804 17.3185 63.5979 17.4073 63.2196 17.4073C62.4631 17.4073 62.0849 17.0656 62.0849 16.382ZM64.2587 26.0001H62.1737V18.3575H64.2587V26.0001ZM73.0204 18.3575V19.4171L71.8241 19.7247C72.0428 20.0665 72.1522 20.4493 72.1522 20.8732C72.1522 21.6935 71.8651 22.3338 71.2909 22.7941C70.7212 23.2498 69.9283 23.4777 68.912 23.4777L68.536 23.4572L68.2284 23.423C68.0142 23.587 67.9071 23.7693 67.9071 23.9698C67.9071 24.2706 68.2899 24.421 69.0555 24.421H70.3544C71.1929 24.421 71.8309 24.601 72.2684 24.9611C72.7105 25.3211 72.9315 25.8497 72.9315 26.547C72.9315 27.4402 72.5578 28.1329 71.8104 28.6251C71.0676 29.1173 69.9989 29.3634 68.6044 29.3634C67.538 29.3634 66.7222 29.1766 66.1571 28.8029C65.5966 28.4337 65.3163 27.9142 65.3163 27.2443C65.3163 26.784 65.4598 26.3989 65.7469 26.089C66.0341 25.7791 66.4556 25.5581 67.0116 25.4259C66.7974 25.3348 66.6106 25.1866 66.451 24.9816C66.2915 24.7719 66.2118 24.5509 66.2118 24.3185C66.2118 24.0268 66.2961 23.7853 66.4647 23.5939C66.6333 23.3979 66.8772 23.2065 67.1962 23.0197C66.7951 22.8465 66.4761 22.5685 66.2391 22.1857C66.0067 21.8029 65.8905 21.3517 65.8905 20.8322C65.8905 19.9982 66.1617 19.3533 66.704 18.8976C67.2463 18.4419 68.021 18.214 69.0282 18.214C69.2424 18.214 69.4953 18.2345 69.787 18.2755C70.0832 18.312 70.2723 18.3393 70.3544 18.3575H73.0204ZM67.121 27.0802C67.121 27.3673 67.2577 27.5929 67.5311 27.757C67.8091 27.921 68.1965 28.0031 68.6932 28.0031C69.4406 28.0031 70.0262 27.9005 70.4501 27.6954C70.8739 27.4904 71.0858 27.2101 71.0858 26.8546C71.0858 26.5675 70.9605 26.3693 70.7098 26.2599C70.4592 26.1505 70.0718 26.0958 69.5477 26.0958H68.4676C68.0848 26.0958 67.7635 26.1847 67.5038 26.3624C67.2486 26.5447 67.121 26.784 67.121 27.0802ZM67.8798 20.8595C67.8798 21.2742 67.9732 21.6023 68.16 21.8439C68.3514 22.0854 68.6408 22.2062 69.0282 22.2062C69.4201 22.2062 69.7072 22.0854 69.8895 21.8439C70.0718 21.6023 70.163 21.2742 70.163 20.8595C70.163 19.9389 69.7847 19.4786 69.0282 19.4786C68.2626 19.4786 67.8798 19.9389 67.8798 20.8595ZM81.2557 26.0001H79.1708V21.5363C79.1708 20.4334 78.7606 19.882 77.9403 19.882C77.357 19.882 76.9354 20.0802 76.6756 20.4767C76.4159 20.8732 76.286 21.5157 76.286 22.4044V26.0001H74.201V15.3634H76.286V17.5304C76.286 17.699 76.27 18.0955 76.2381 18.7198L76.1903 19.3351H76.2997C76.7645 18.5877 77.5028 18.214 78.5145 18.214C79.4123 18.214 80.0936 18.4555 80.5585 18.9386C81.0233 19.4217 81.2557 20.1144 81.2557 21.0167V26.0001ZM86.5379 24.4757C86.9025 24.4757 87.34 24.396 87.8504 24.2365V25.7882C87.3309 26.0206 86.6929 26.1368 85.9364 26.1368C85.1024 26.1368 84.494 25.9272 84.1112 25.5079C83.7329 25.0841 83.5438 24.4506 83.5438 23.6075V19.923H82.5457V19.0411L83.6942 18.3439L84.2957 16.7306H85.6288V18.3575H87.7684V19.923H85.6288V23.6075C85.6288 23.9038 85.7108 24.1225 85.8748 24.2638C86.0435 24.4051 86.2645 24.4757 86.5379 24.4757Z" fill="#464B52"/>
<rect width="270" height="99.3333" transform="translate(1 42.0001)" fill="white"/>
<rect x="53.5" y="75.6668" width="64" height="32" rx="16" fill="#217CBB"/>
<path d="M115 91.6668C115 99.1226 108.956 105.167 101.5 105.167C94.0442 105.167 88 99.1226 88 91.6668C88 84.2109 94.0442 78.1668 101.5 78.1668C108.956 78.1668 115 84.2109 115 91.6668Z" fill="white" stroke="#217CBB"/>
<path d="M141.659 100.667V84.9617H143.485V99.0125H150.414V100.667H141.659ZM160.311 100.667L159.956 98.991H159.87C159.283 99.7286 158.696 100.23 158.108 100.495C157.528 100.753 156.801 100.882 155.928 100.882C154.76 100.882 153.844 100.581 153.178 99.9793C152.519 99.3777 152.189 98.5219 152.189 97.4119C152.189 95.0343 154.091 93.7882 157.894 93.6736L159.892 93.6092V92.8787C159.892 91.9549 159.691 91.2745 159.29 90.8377C158.896 90.3937 158.262 90.1717 157.389 90.1717C156.408 90.1717 155.298 90.4724 154.059 91.074L153.511 89.7097C154.091 89.3946 154.725 89.1476 155.412 88.9685C156.107 88.7895 156.801 88.7 157.496 88.7C158.9 88.7 159.938 89.0115 160.611 89.6346C161.292 90.2576 161.632 91.2566 161.632 92.6316V100.667H160.311ZM156.282 99.4099C157.392 99.4099 158.262 99.1056 158.893 98.4969C159.53 97.8881 159.849 97.0359 159.849 95.9402V94.8767L158.065 94.9519C156.647 95.0021 155.623 95.2241 154.993 95.618C154.37 96.0047 154.059 96.6098 154.059 97.4334C154.059 98.0779 154.252 98.5685 154.639 98.9051C155.033 99.2416 155.58 99.4099 156.282 99.4099ZM171.045 88.7C172.592 88.7 173.791 89.2299 174.644 90.2898C175.503 91.3426 175.933 92.8357 175.933 94.7693C175.933 96.7029 175.499 98.2068 174.633 99.281C173.773 100.348 172.577 100.882 171.045 100.882C170.279 100.882 169.577 100.742 168.939 100.463C168.309 100.176 167.779 99.7394 167.35 99.1521H167.221L166.845 100.667H165.566V83.9519H167.35V88.0125C167.35 88.922 167.321 89.7384 167.264 90.4617H167.35C168.18 89.2872 169.412 88.7 171.045 88.7ZM170.787 90.1931C169.57 90.1931 168.692 90.5441 168.155 91.2459C167.618 91.9405 167.35 93.115 167.35 94.7693C167.35 96.4236 167.625 97.6088 168.177 98.325C168.728 99.034 169.613 99.3885 170.83 99.3885C171.926 99.3885 172.742 98.991 173.279 98.1961C173.816 97.394 174.085 96.2446 174.085 94.7478C174.085 93.2153 173.816 92.073 173.279 91.3211C172.742 90.5691 171.911 90.1931 170.787 90.1931ZM184.282 100.882C182.542 100.882 181.167 100.352 180.157 99.2918C179.155 98.2319 178.653 96.7602 178.653 94.8767C178.653 92.979 179.119 91.4715 180.05 90.3543C180.988 89.2371 182.245 88.6785 183.82 88.6785C185.296 88.6785 186.463 89.1655 187.322 90.1394C188.182 91.1062 188.611 92.3846 188.611 93.9744V95.1023H180.501C180.537 96.4845 180.884 97.5336 181.543 98.2498C182.209 98.9659 183.144 99.324 184.347 99.324C185.614 99.324 186.868 99.059 188.106 98.5291V100.119C187.476 100.391 186.878 100.584 186.312 100.699C185.754 100.821 185.077 100.882 184.282 100.882ZM183.799 90.1717C182.854 90.1717 182.098 90.4796 181.532 91.0955C180.974 91.7114 180.644 92.5636 180.544 93.6521H186.699C186.699 92.5278 186.449 91.6684 185.947 91.074C185.446 90.4724 184.73 90.1717 183.799 90.1717ZM193.695 100.667H191.912V83.9519H193.695V100.667Z" fill="#171C1E"/>
<rect width="270" height="40" transform="translate(272 1.00012)" fill="#F1F1F6"/>
<path d="M283.258 26.0001V16.006H285.377V24.2501H289.431V26.0001H283.258ZM295.779 26.0001L295.376 24.9611H295.321C294.97 25.4031 294.608 25.7107 294.234 25.8839C293.865 26.0525 293.382 26.1368 292.785 26.1368C292.051 26.1368 291.473 25.9272 291.049 25.5079C290.63 25.0887 290.42 24.4917 290.42 23.7169C290.42 22.9057 290.702 22.3087 291.268 21.9259C291.837 21.5385 292.694 21.3243 293.838 21.2833L295.164 21.2423V20.9073C295.164 20.1326 294.768 19.7452 293.975 19.7452C293.364 19.7452 292.646 19.9298 291.821 20.299L291.131 18.8907C292.01 18.4305 292.986 18.2003 294.057 18.2003C295.082 18.2003 295.868 18.4236 296.415 18.8702C296.962 19.3169 297.235 19.9959 297.235 20.9073V26.0001H295.779ZM295.164 22.4591L294.357 22.4865C293.751 22.5047 293.3 22.6141 293.004 22.8146C292.708 23.0151 292.56 23.3204 292.56 23.7306C292.56 24.3185 292.897 24.6124 293.571 24.6124C294.054 24.6124 294.439 24.4734 294.727 24.1954C295.018 23.9174 295.164 23.5483 295.164 23.088V22.4591ZM303.557 18.214C304.459 18.214 305.165 18.5672 305.676 19.2736C306.186 19.9754 306.441 20.9392 306.441 22.1652C306.441 23.4275 306.177 24.4051 305.648 25.0978C305.124 25.7905 304.409 26.1368 303.502 26.1368C302.604 26.1368 301.9 25.811 301.39 25.1593H301.246L300.897 26.0001H299.305V15.3634H301.39V17.838C301.39 18.1525 301.362 18.656 301.308 19.3488H301.39C301.877 18.5922 302.6 18.214 303.557 18.214ZM302.887 19.882C302.372 19.882 301.996 20.0415 301.759 20.3605C301.522 20.6749 301.399 21.1967 301.39 21.9259V22.1515C301.39 22.9718 301.51 23.5597 301.752 23.9152C301.998 24.2706 302.385 24.4484 302.914 24.4484C303.342 24.4484 303.682 24.2524 303.933 23.8605C304.188 23.464 304.315 22.8898 304.315 22.1378C304.315 21.3859 304.188 20.823 303.933 20.4493C303.677 20.0711 303.329 19.882 302.887 19.882ZM311.245 19.6974C310.803 19.6974 310.457 19.8387 310.206 20.1212C309.955 20.3992 309.812 20.7957 309.775 21.3107H312.701C312.692 20.7957 312.558 20.3992 312.298 20.1212C312.038 19.8387 311.687 19.6974 311.245 19.6974ZM311.539 26.1368C310.309 26.1368 309.347 25.7973 308.654 25.1183C307.962 24.4392 307.615 23.4777 307.615 22.2335C307.615 20.9529 307.934 19.964 308.572 19.2667C309.215 18.5649 310.101 18.214 311.231 18.214C312.311 18.214 313.152 18.5216 313.754 19.1368C314.355 19.7521 314.656 20.602 314.656 21.6866V22.6984H309.727C309.75 23.2908 309.926 23.7534 310.254 24.0861C310.582 24.4187 311.042 24.5851 311.635 24.5851C312.095 24.5851 312.53 24.5372 312.94 24.4415C313.351 24.3458 313.779 24.1932 314.226 23.9835V25.5968C313.861 25.7791 313.471 25.9135 313.057 26.0001C312.642 26.0913 312.136 26.1368 311.539 26.1368ZM318.352 26.0001H316.268V15.3634H318.352V26.0001ZM324.18 26.0001V16.006H326.299V24.2501H330.352V26.0001H324.18ZM335.013 19.6974C334.571 19.6974 334.224 19.8387 333.974 20.1212C333.723 20.3992 333.579 20.7957 333.543 21.3107H336.469C336.46 20.7957 336.325 20.3992 336.065 20.1212C335.806 19.8387 335.455 19.6974 335.013 19.6974ZM335.307 26.1368C334.076 26.1368 333.114 25.7973 332.422 25.1183C331.729 24.4392 331.383 23.4777 331.383 22.2335C331.383 20.9529 331.702 19.964 332.34 19.2667C332.982 18.5649 333.869 18.214 334.999 18.214C336.079 18.214 336.92 18.5216 337.521 19.1368C338.123 19.7521 338.424 20.602 338.424 21.6866V22.6984H333.495C333.518 23.2908 333.693 23.7534 334.021 24.0861C334.349 24.4187 334.81 24.5851 335.402 24.5851C335.863 24.5851 336.298 24.5372 336.708 24.4415C337.118 24.3458 337.546 24.1932 337.993 23.9835V25.5968C337.628 25.7791 337.239 25.9135 336.824 26.0001C336.409 26.0913 335.904 26.1368 335.307 26.1368ZM344.26 19.923H342.455V26.0001H340.37V19.923H339.222V18.9181L340.37 18.3575V17.797C340.37 16.9266 340.584 16.2908 341.013 15.8898C341.441 15.4887 342.127 15.2882 343.07 15.2882C343.79 15.2882 344.431 15.3953 344.991 15.6095L344.458 17.1407C344.039 17.0086 343.651 16.9425 343.296 16.9425C343 16.9425 342.785 17.0314 342.653 17.2091C342.521 17.3823 342.455 17.6056 342.455 17.879V18.3575H344.26V19.923ZM348.598 24.4757C348.963 24.4757 349.401 24.396 349.911 24.2365V25.7882C349.391 26.0206 348.753 26.1368 347.997 26.1368C347.163 26.1368 346.555 25.9272 346.172 25.5079C345.793 25.0841 345.604 24.4506 345.604 23.6075V19.923H344.606V19.0411L345.755 18.3439L346.356 16.7306H347.689V18.3575H349.829V19.923H347.689V23.6075C347.689 23.9038 347.771 24.1225 347.935 24.2638C348.104 24.4051 348.325 24.4757 348.598 24.4757Z" fill="#464B52"/>
<rect width="270" height="99.3333" transform="translate(272 42.0001)" fill="white"/>
<path d="M352.573 100.667V84.9617H354.399V99.0125H361.328V100.667H352.573ZM371.225 100.667L370.87 98.991H370.784C370.197 99.7286 369.61 100.23 369.022 100.495C368.442 100.753 367.715 100.882 366.842 100.882C365.674 100.882 364.758 100.581 364.092 99.9793C363.433 99.3777 363.104 98.5219 363.104 97.4119C363.104 95.0343 365.005 93.7882 368.808 93.6736L370.806 93.6092V92.8787C370.806 91.9549 370.605 91.2745 370.204 90.8377C369.81 90.3937 369.176 90.1717 368.303 90.1717C367.322 90.1717 366.212 90.4724 364.973 91.074L364.425 89.7097C365.005 89.3946 365.639 89.1476 366.326 88.9685C367.021 88.7895 367.715 88.7 368.41 88.7C369.814 88.7 370.852 89.0115 371.525 89.6346C372.206 90.2576 372.546 91.2566 372.546 92.6316V100.667H371.225ZM367.196 99.4099C368.306 99.4099 369.176 99.1056 369.807 98.4969C370.444 97.8881 370.763 97.0359 370.763 95.9402V94.8767L368.979 94.9519C367.562 95.0021 366.537 95.2241 365.907 95.618C365.284 96.0047 364.973 96.6098 364.973 97.4334C364.973 98.0779 365.166 98.5685 365.553 98.9051C365.947 99.2416 366.494 99.4099 367.196 99.4099ZM381.959 88.7C383.506 88.7 384.705 89.2299 385.558 90.2898C386.417 91.3426 386.847 92.8357 386.847 94.7693C386.847 96.7029 386.413 98.2068 385.547 99.281C384.688 100.348 383.492 100.882 381.959 100.882C381.193 100.882 380.491 100.742 379.854 100.463C379.223 100.176 378.693 99.7394 378.264 99.1521H378.135L377.759 100.667H376.48V83.9519H378.264V88.0125C378.264 88.922 378.235 89.7384 378.178 90.4617H378.264C379.094 89.2872 380.326 88.7 381.959 88.7ZM381.701 90.1931C380.484 90.1931 379.606 90.5441 379.069 91.2459C378.532 91.9405 378.264 93.115 378.264 94.7693C378.264 96.4236 378.539 97.6088 379.091 98.325C379.642 99.034 380.527 99.3885 381.744 99.3885C382.84 99.3885 383.656 98.991 384.193 98.1961C384.73 97.394 384.999 96.2446 384.999 94.7478C384.999 93.2153 384.73 92.073 384.193 91.3211C383.656 90.5691 382.826 90.1931 381.701 90.1931ZM395.196 100.882C393.456 100.882 392.081 100.352 391.071 99.2918C390.069 98.2319 389.567 96.7602 389.567 94.8767C389.567 92.979 390.033 91.4715 390.964 90.3543C391.902 89.2371 393.159 88.6785 394.734 88.6785C396.21 88.6785 397.377 89.1655 398.236 90.1394C399.096 91.1062 399.525 92.3846 399.525 93.9744V95.1023H391.415C391.451 96.4845 391.798 97.5336 392.457 98.2498C393.123 98.9659 394.058 99.324 395.261 99.324C396.528 99.324 397.782 99.059 399.021 98.5291V100.119C398.39 100.391 397.792 100.584 397.227 100.699C396.668 100.821 395.991 100.882 395.196 100.882ZM394.713 90.1717C393.768 90.1717 393.012 90.4796 392.446 91.0955C391.888 91.7114 391.558 92.5636 391.458 93.6521H397.613C397.613 92.5278 397.363 91.6684 396.861 91.074C396.36 90.4724 395.644 90.1717 394.713 90.1717ZM404.609 100.667H402.826V83.9519H404.609V100.667Z" fill="#171C1E"/>
<rect x="429.5" y="75.6668" width="64" height="32" rx="16" fill="#217CBB"/>
<path d="M491 91.6668C491 99.1226 484.956 105.167 477.5 105.167C470.044 105.167 464 99.1226 464 91.6668C464 84.2109 470.044 78.1668 477.5 78.1668C484.956 78.1668 491 84.2109 491 91.6668Z" fill="white" stroke="#217CBB"/>
<rect width="270" height="40" transform="translate(543 1.00012)" fill="#F1F1F6"/>
<path d="M554.258 26.0001V16.006H556.377V26.0001H554.258ZM561.748 26.1368C559.369 26.1368 558.18 24.8312 558.18 22.2198C558.18 20.921 558.503 19.9298 559.15 19.2462C559.798 18.5581 560.725 18.214 561.933 18.214C562.817 18.214 563.61 18.3872 564.312 18.7335L563.696 20.3468C563.368 20.2146 563.063 20.1075 562.78 20.0255C562.498 19.9389 562.215 19.8956 561.933 19.8956C560.848 19.8956 560.306 20.6658 560.306 22.2062C560.306 23.701 560.848 24.4484 561.933 24.4484C562.334 24.4484 562.705 24.396 563.047 24.2911C563.389 24.1818 563.73 24.0131 564.072 23.7853V25.5695C563.735 25.7837 563.393 25.9318 563.047 26.0138C562.705 26.0958 562.272 26.1368 561.748 26.1368ZM567.427 22.1652C567.427 22.9217 567.55 23.4936 567.796 23.881C568.047 24.2684 568.452 24.462 569.013 24.462C569.569 24.462 569.967 24.2706 570.209 23.8878C570.455 23.5004 570.578 22.9262 570.578 22.1652C570.578 21.4087 570.455 20.8413 570.209 20.463C569.963 20.0848 569.56 19.8956 568.999 19.8956C568.443 19.8956 568.042 20.0848 567.796 20.463C567.55 20.8367 567.427 21.4041 567.427 22.1652ZM572.711 22.1652C572.711 23.4093 572.383 24.3823 571.727 25.0841C571.07 25.7859 570.157 26.1368 568.985 26.1368C568.252 26.1368 567.604 25.9773 567.044 25.6583C566.483 25.3348 566.053 24.8722 565.752 24.2706C565.451 23.6691 565.301 22.9672 565.301 22.1652C565.301 20.9165 565.627 19.9458 566.278 19.2531C566.93 18.5603 567.846 18.214 569.026 18.214C569.76 18.214 570.407 18.3735 570.968 18.6925C571.528 19.0115 571.959 19.4695 572.26 20.0665C572.561 20.6635 572.711 21.3631 572.711 22.1652ZM581.404 26.0001H579.319V21.5363C579.319 20.9848 579.221 20.5724 579.025 20.299C578.829 20.021 578.517 19.882 578.089 19.882C577.505 19.882 577.084 20.0779 576.824 20.4698C576.564 20.8572 576.435 21.5021 576.435 22.4044V26.0001H574.35V18.3575H575.942L576.223 19.3351H576.339C576.571 18.9659 576.89 18.6879 577.296 18.5011C577.706 18.3097 578.171 18.214 578.69 18.214C579.579 18.214 580.254 18.4555 580.714 18.9386C581.174 19.4171 581.404 20.1098 581.404 21.0167V26.0001ZM589.303 20.4425H589.986C590.656 20.4425 591.151 20.3309 591.47 20.1075C591.789 19.8842 591.948 19.5333 591.948 19.0548C591.948 18.5809 591.784 18.2436 591.456 18.0431C591.132 17.8426 590.629 17.7423 589.945 17.7423H589.303V20.4425ZM589.303 22.1652V26.0001H587.184V16.006H590.096C591.454 16.006 592.459 16.2544 593.11 16.7511C593.762 17.2433 594.088 17.993 594.088 19.0001C594.088 19.588 593.926 20.1121 593.602 20.5724C593.279 21.0281 592.821 21.3859 592.228 21.6456C593.732 23.8924 594.712 25.3439 595.168 26.0001H592.816L590.431 22.1652H589.303ZM596.089 16.382C596.089 15.7029 596.467 15.3634 597.224 15.3634C597.98 15.3634 598.358 15.7029 598.358 16.382C598.358 16.7055 598.263 16.9585 598.071 17.1407C597.884 17.3185 597.602 17.4073 597.224 17.4073C596.467 17.4073 596.089 17.0656 596.089 16.382ZM598.263 26.0001H596.178V18.3575H598.263V26.0001ZM607.024 18.3575V19.4171L605.828 19.7247C606.047 20.0665 606.156 20.4493 606.156 20.8732C606.156 21.6935 605.869 22.3338 605.295 22.7941C604.725 23.2498 603.932 23.4777 602.916 23.4777L602.54 23.4572L602.232 23.423C602.018 23.587 601.911 23.7693 601.911 23.9698C601.911 24.2706 602.294 24.421 603.059 24.421H604.358C605.197 24.421 605.835 24.601 606.272 24.9611C606.714 25.3211 606.935 25.8497 606.935 26.547C606.935 27.4402 606.562 28.1329 605.814 28.6251C605.072 29.1173 604.003 29.3634 602.608 29.3634C601.542 29.3634 600.726 29.1766 600.161 28.8029C599.6 28.4337 599.32 27.9142 599.32 27.2443C599.32 26.784 599.464 26.3989 599.751 26.089C600.038 25.7791 600.46 25.5581 601.016 25.4259C600.801 25.3348 600.614 25.1866 600.455 24.9816C600.295 24.7719 600.216 24.5509 600.216 24.3185C600.216 24.0268 600.3 23.7853 600.469 23.5939C600.637 23.3979 600.881 23.2065 601.2 23.0197C600.799 22.8465 600.48 22.5685 600.243 22.1857C600.011 21.8029 599.894 21.3517 599.894 20.8322C599.894 19.9982 600.166 19.3533 600.708 18.8976C601.25 18.4419 602.025 18.214 603.032 18.214C603.246 18.214 603.499 18.2345 603.791 18.2755C604.087 18.312 604.276 18.3393 604.358 18.3575H607.024ZM601.125 27.0802C601.125 27.3673 601.262 27.5929 601.535 27.757C601.813 27.921 602.2 28.0031 602.697 28.0031C603.445 28.0031 604.03 27.9005 604.454 27.6954C604.878 27.4904 605.09 27.2101 605.09 26.8546C605.09 26.5675 604.964 26.3693 604.714 26.2599C604.463 26.1505 604.076 26.0958 603.552 26.0958H602.472C602.089 26.0958 601.767 26.1847 601.508 26.3624C601.252 26.5447 601.125 26.784 601.125 27.0802ZM601.884 20.8595C601.884 21.2742 601.977 21.6023 602.164 21.8439C602.355 22.0854 602.645 22.2062 603.032 22.2062C603.424 22.2062 603.711 22.0854 603.893 21.8439C604.076 21.6023 604.167 21.2742 604.167 20.8595C604.167 19.9389 603.789 19.4786 603.032 19.4786C602.266 19.4786 601.884 19.9389 601.884 20.8595ZM615.26 26.0001H613.175V21.5363C613.175 20.4334 612.765 19.882 611.944 19.882C611.361 19.882 610.939 20.0802 610.68 20.4767C610.42 20.8732 610.29 21.5157 610.29 22.4044V26.0001H608.205V15.3634H610.29V17.5304C610.29 17.699 610.274 18.0955 610.242 18.7198L610.194 19.3351H610.304C610.768 18.5877 611.507 18.214 612.518 18.214C613.416 18.214 614.098 18.4555 614.562 18.9386C615.027 19.4217 615.26 20.1144 615.26 21.0167V26.0001ZM620.542 24.4757C620.906 24.4757 621.344 24.396 621.854 24.2365V25.7882C621.335 26.0206 620.697 26.1368 619.94 26.1368C619.106 26.1368 618.498 25.9272 618.115 25.5079C617.737 25.0841 617.548 24.4506 617.548 23.6075V19.923H616.55V19.0411L617.698 18.3439L618.3 16.7306H619.633V18.3575H621.772V19.923H619.633V23.6075C619.633 23.9038 619.715 24.1225 619.879 24.2638C620.047 24.4051 620.268 24.4757 620.542 24.4757Z" fill="#464B52"/>
<rect width="270" height="99.3333" transform="translate(543 42.0001)" fill="white"/>
<rect x="620.5" y="75.6668" width="64" height="32" rx="16" fill="#217CBB"/>
<path d="M682 91.6668C682 99.1226 675.956 105.167 668.5 105.167C661.044 105.167 655 99.1226 655 91.6668C655 84.2109 661.044 78.1668 668.5 78.1668C675.956 78.1668 682 84.2109 682 91.6668Z" fill="white" stroke="#217CBB"/>
<path d="M714.5 79.3334C713.91 79.3334 713.351 79.4506 712.841 79.6619C712.331 79.8734 711.746 79.6313 711.535 79.1212C711.323 78.611 711.565 78.026 712.075 77.8144C712.823 77.5042 713.643 77.3334 714.5 77.3334H716.5C717.052 77.3334 717.5 77.7812 717.5 78.3334C717.5 78.8857 717.052 79.3334 716.5 79.3334H714.5Z" fill="#171C1E"/>
<path d="M719.5 78.3334C719.5 77.7812 719.948 77.3334 720.5 77.3334H724.5C725.052 77.3334 725.5 77.7812 725.5 78.3334C725.5 78.8857 725.052 79.3334 724.5 79.3334H720.5C719.948 79.3334 719.5 78.8857 719.5 78.3334Z" fill="#171C1E"/>
<path d="M727.5 78.3334C727.5 77.7812 727.948 77.3334 728.5 77.3334H730.5C731.357 77.3334 732.176 77.5042 732.924 77.8144C733.435 78.026 733.677 78.611 733.465 79.1212C733.254 79.6313 732.668 79.8734 732.158 79.6619C731.649 79.4506 731.089 79.3334 730.5 79.3334H728.5C727.948 79.3334 727.5 78.8857 727.5 78.3334Z" fill="#171C1E"/>
<path d="M709.954 80.7015C710.464 80.9131 710.706 81.4981 710.495 82.0083C710.284 82.5178 710.167 83.0774 710.167 83.6668V85.6668C710.167 86.2191 709.719 86.6668 709.167 86.6668C708.614 86.6668 708.167 86.2191 708.167 85.6668V83.6668C708.167 82.8099 708.337 81.9903 708.647 81.2422C708.859 80.732 709.444 80.49 709.954 80.7015Z" fill="#171C1E"/>
<path d="M735.045 80.7015C735.556 80.49 736.141 80.732 736.352 81.2422C736.662 81.9903 736.833 82.8099 736.833 83.6668V85.6668C736.833 86.2191 736.385 86.6668 735.833 86.6668C735.281 86.6668 734.833 86.2191 734.833 85.6668V83.6668C734.833 83.0774 734.716 82.5178 734.505 82.0083C734.293 81.4981 734.535 80.9131 735.045 80.7015Z" fill="#171C1E"/>
<path d="M709.167 88.6668C709.719 88.6668 710.167 89.1145 710.167 89.6668V93.6668C710.167 94.2191 709.719 94.6668 709.167 94.6668C708.614 94.6668 708.167 94.2191 708.167 93.6668V89.6668C708.167 89.1145 708.614 88.6668 709.167 88.6668Z" fill="#171C1E"/>
<path d="M735.833 88.6668C736.385 88.6668 736.833 89.1145 736.833 89.6668V93.6668C736.833 94.2191 736.385 94.6668 735.833 94.6668C735.281 94.6668 734.833 94.2191 734.833 93.6668V89.6668C734.833 89.1145 735.281 88.6668 735.833 88.6668Z" fill="#171C1E"/>
<path d="M709.167 96.6668C709.719 96.6668 710.167 97.1145 710.167 97.6668V99.6668C710.167 100.256 710.284 100.816 710.495 101.325C710.706 101.835 710.464 102.42 709.954 102.632C709.444 102.844 708.859 102.602 708.647 102.091C708.337 101.343 708.167 100.524 708.167 99.6668V97.6668C708.167 97.1145 708.614 96.6668 709.167 96.6668Z" fill="#171C1E"/>
<path d="M735.833 96.6668C736.385 96.6668 736.833 97.1145 736.833 97.6668V99.6668C736.833 100.524 736.662 101.343 736.352 102.091C736.141 102.602 735.556 102.844 735.045 102.632C734.535 102.42 734.293 101.835 734.505 101.325C734.716 100.816 734.833 100.256 734.833 99.6668V97.6668C734.833 97.1145 735.281 96.6668 735.833 96.6668Z" fill="#171C1E"/>
<path d="M711.535 104.212C711.746 103.702 712.331 103.46 712.841 103.672C713.351 103.883 713.91 104 714.5 104H716.5C717.052 104 717.5 104.448 717.5 105C717.5 105.552 717.052 106 716.5 106H714.5C713.643 106 712.823 105.829 712.075 105.519C711.565 105.308 711.323 104.723 711.535 104.212Z" fill="#171C1E"/>
<path d="M733.465 104.212C733.677 104.723 733.435 105.308 732.924 105.519C732.176 105.829 731.357 106 730.5 106H728.5C727.948 106 727.5 105.552 727.5 105C727.5 104.448 727.948 104 728.5 104H730.5C731.089 104 731.649 103.883 732.158 103.672C732.668 103.46 733.254 103.702 733.465 104.212Z" fill="#171C1E"/>
<path d="M719.5 105C719.5 104.448 719.948 104 720.5 104H724.5C725.052 104 725.5 104.448 725.5 105C725.5 105.552 725.052 106 724.5 106H720.5C719.948 106 719.5 105.552 719.5 105Z" fill="#171C1E"/>
<path d="M733.874 81.7881C734.264 81.3976 734.264 80.7644 733.874 80.3739C733.483 79.9834 732.85 79.9834 732.459 80.3739L731.131 81.7022C730.741 82.0927 730.741 82.7258 731.131 83.1164C731.522 83.5069 732.155 83.5069 732.545 83.1164L733.874 81.7881Z" fill="#171C1E"/>
<path d="M729.889 85.7729C730.279 85.3824 730.279 84.7492 729.889 84.3587C729.498 83.9682 728.865 83.9682 728.475 84.3587L725.818 87.0153C725.427 87.4058 725.427 88.039 725.818 88.4295C726.209 88.82 726.842 88.82 727.232 88.4295L729.889 85.7729Z" fill="#171C1E"/>
<path d="M724.576 91.086C724.966 90.6955 724.966 90.0623 724.576 89.6718C724.185 89.2813 723.552 89.2813 723.161 89.6718L722.5 90.3334L721.838 89.6718C721.448 89.2813 720.815 89.2813 720.424 89.6718C720.033 90.0623 720.033 90.6955 720.424 91.086L721.086 91.7476L720.505 92.3284C720.114 92.7189 720.114 93.3521 720.505 93.7426C720.895 94.1331 721.529 94.1331 721.919 93.7426L722.5 93.1619L723.081 93.7426C723.471 94.1331 724.104 94.1331 724.495 93.7426C724.885 93.3521 724.885 92.7189 724.495 92.3284L723.914 91.7477L724.576 91.086Z" fill="#171C1E"/>
<path d="M719.263 96.3992C719.653 96.0086 719.653 95.3755 719.263 94.9849C718.872 94.5944 718.239 94.5944 717.848 94.9849L715.192 97.6415C714.801 98.032 714.801 98.6652 715.192 99.0557C715.582 99.4462 716.215 99.4462 716.606 99.0557L719.263 96.3992Z" fill="#171C1E"/>
<path d="M713.949 101.712C714.34 101.322 714.34 100.689 713.949 100.298C713.559 99.9075 712.926 99.9075 712.535 100.298L711.207 101.626C710.816 102.017 710.816 102.65 711.207 103.041C711.597 103.431 712.231 103.431 712.621 103.041L713.949 101.712Z" fill="#171C1E"/>
<path d="M732.379 103.041C732.769 103.431 733.402 103.431 733.793 103.041C734.183 102.65 734.183 102.017 733.793 101.626L732.464 100.298C732.074 99.9075 731.441 99.9075 731.05 100.298C730.66 100.689 730.66 101.322 731.05 101.712L732.379 103.041Z" fill="#171C1E"/>
<path d="M728.394 99.0557C728.784 99.4462 729.417 99.4462 729.808 99.0557C730.198 98.6652 730.198 98.032 729.808 97.6415L727.151 94.9849C726.761 94.5944 726.128 94.5944 725.737 94.9849C725.347 95.3755 725.347 96.0086 725.737 96.3992L728.394 99.0557Z" fill="#171C1E"/>
<path d="M717.767 88.4295C718.158 88.82 718.791 88.82 719.182 88.4295C719.572 88.039 719.572 87.4058 719.182 87.0153L716.525 84.3587C716.135 83.9682 715.501 83.9682 715.111 84.3587C714.72 84.7492 714.72 85.3824 715.111 85.7729L717.767 88.4295Z" fill="#171C1E"/>
<path d="M712.454 83.1164C712.845 83.5069 713.478 83.5069 713.869 83.1164C714.259 82.7258 714.259 82.0927 713.869 81.7022L712.54 80.3739C712.15 79.9834 711.517 79.9834 711.126 80.3739C710.736 80.7644 710.736 81.3976 711.126 81.7881L712.454 83.1164Z" fill="#171C1E"/>
<path d="M718.574 84.8521C718.972 84.7318 719.394 84.6668 719.833 84.6668H720.833C721.385 84.6668 721.833 84.2191 721.833 83.6668C721.833 83.1145 721.385 82.6668 720.833 82.6668H719.833C719.195 82.6668 718.578 82.7614 717.995 82.9381C717.466 83.0982 717.167 83.6565 717.327 84.1851C717.488 84.7136 718.046 85.0123 718.574 84.8521Z" fill="#171C1E"/>
<path d="M724.167 82.6668C723.614 82.6668 723.167 83.1145 723.167 83.6668C723.167 84.2191 723.614 84.6668 724.167 84.6668H725.167C725.606 84.6668 726.028 84.7318 726.425 84.8521C726.954 85.0123 727.512 84.7136 727.672 84.1851C727.832 83.6565 727.534 83.0982 727.005 82.9381C726.422 82.7614 725.804 82.6668 725.167 82.6668H724.167Z" fill="#171C1E"/>
<path d="M715.685 87.7413C715.845 87.2128 715.547 86.6545 715.018 86.4944C714.49 86.3342 713.931 86.6329 713.771 87.1614C713.594 87.7446 713.5 88.3622 713.5 89.0001V90.0001C713.5 90.5524 713.948 91.0001 714.5 91.0001C715.052 91.0001 715.5 90.5524 715.5 90.0001V89.0001C715.5 88.5608 715.565 88.1385 715.685 87.7413Z" fill="#171C1E"/>
<path d="M731.229 87.1614C731.068 86.6329 730.51 86.3342 729.982 86.4944C729.453 86.6545 729.154 87.2128 729.314 87.7413C729.435 88.1385 729.5 88.5608 729.5 89.0001V90.0001C729.5 90.5524 729.948 91.0001 730.5 91.0001C731.052 91.0001 731.5 90.5524 731.5 90.0001V89.0001C731.5 88.3622 731.405 87.7446 731.229 87.1614Z" fill="#171C1E"/>
<path d="M715.5 93.3334C715.5 92.7812 715.052 92.3334 714.5 92.3334C713.948 92.3334 713.5 92.7812 713.5 93.3334V94.3334C713.5 94.9714 713.594 95.589 713.771 96.1721C713.931 96.7007 714.49 96.9993 715.018 96.8392C715.547 96.679 715.845 96.1207 715.685 95.5922C715.565 95.195 715.5 94.7727 715.5 94.3334V93.3334Z" fill="#171C1E"/>
<path d="M731.5 93.3334C731.5 92.7812 731.052 92.3334 730.5 92.3334C729.948 92.3334 729.5 92.7812 729.5 93.3334V94.3334C729.5 94.7727 729.435 95.195 729.314 95.5922C729.154 96.1207 729.453 96.679 729.982 96.8392C730.51 96.9993 731.068 96.7007 731.229 96.1721C731.405 95.589 731.5 94.9714 731.5 94.3334V93.3334Z" fill="#171C1E"/>
<path d="M718.574 98.4814C718.046 98.3213 717.488 98.6199 717.327 99.1485C717.167 99.677 717.466 100.235 717.995 100.395C718.578 100.572 719.195 100.667 719.833 100.667H720.833C721.385 100.667 721.833 100.219 721.833 99.6668C721.833 99.1145 721.385 98.6668 720.833 98.6668H719.833C719.394 98.6668 718.972 98.6017 718.574 98.4814Z" fill="#171C1E"/>
<path d="M727.005 100.395C727.534 100.235 727.832 99.677 727.672 99.1485C727.512 98.6199 726.954 98.3213 726.425 98.4814C726.028 98.6017 725.606 98.6668 725.167 98.6668H724.167C723.614 98.6668 723.167 99.1145 723.167 99.6668C723.167 100.219 723.614 100.667 724.167 100.667H725.167C725.804 100.667 726.422 100.572 727.005 100.395Z" fill="#171C1E"/>
<rect width="273" height="40" transform="translate(814 1.00012)" fill="#F1F1F6"/>
<path d="M825.258 26.0001V16.006H827.377V26.0001H825.258ZM832.748 26.1368C830.369 26.1368 829.18 24.8312 829.18 22.2198C829.18 20.921 829.503 19.9298 830.15 19.2462C830.798 18.5581 831.725 18.214 832.933 18.214C833.817 18.214 834.61 18.3872 835.312 18.7335L834.696 20.3468C834.368 20.2146 834.063 20.1075 833.78 20.0255C833.498 19.9389 833.215 19.8956 832.933 19.8956C831.848 19.8956 831.306 20.6658 831.306 22.2062C831.306 23.701 831.848 24.4484 832.933 24.4484C833.334 24.4484 833.705 24.396 834.047 24.2911C834.389 24.1818 834.73 24.0131 835.072 23.7853V25.5695C834.735 25.7837 834.393 25.9318 834.047 26.0138C833.705 26.0958 833.272 26.1368 832.748 26.1368ZM838.427 22.1652C838.427 22.9217 838.55 23.4936 838.796 23.881C839.047 24.2684 839.452 24.462 840.013 24.462C840.569 24.462 840.967 24.2706 841.209 23.8878C841.455 23.5004 841.578 22.9262 841.578 22.1652C841.578 21.4087 841.455 20.8413 841.209 20.463C840.963 20.0848 840.56 19.8956 839.999 19.8956C839.443 19.8956 839.042 20.0848 838.796 20.463C838.55 20.8367 838.427 21.4041 838.427 22.1652ZM843.711 22.1652C843.711 23.4093 843.383 24.3823 842.727 25.0841C842.07 25.7859 841.157 26.1368 839.985 26.1368C839.252 26.1368 838.604 25.9773 838.044 25.6583C837.483 25.3348 837.053 24.8722 836.752 24.2706C836.451 23.6691 836.301 22.9672 836.301 22.1652C836.301 20.9165 836.627 19.9458 837.278 19.2531C837.93 18.5603 838.846 18.214 840.026 18.214C840.76 18.214 841.407 18.3735 841.968 18.6925C842.528 19.0115 842.959 19.4695 843.26 20.0665C843.561 20.6635 843.711 21.3631 843.711 22.1652ZM852.404 26.0001H850.319V21.5363C850.319 20.9848 850.221 20.5724 850.025 20.299C849.829 20.021 849.517 19.882 849.089 19.882C848.505 19.882 848.084 20.0779 847.824 20.4698C847.564 20.8572 847.435 21.5021 847.435 22.4044V26.0001H845.35V18.3575H846.942L847.223 19.3351H847.339C847.571 18.9659 847.89 18.6879 848.296 18.5011C848.706 18.3097 849.171 18.214 849.69 18.214C850.579 18.214 851.254 18.4555 851.714 18.9386C852.174 19.4171 852.404 20.1098 852.404 21.0167V26.0001ZM858.184 26.0001V16.006H860.303V24.2501H864.356V26.0001H858.184ZM869.017 19.6974C868.574 19.6974 868.228 19.8387 867.977 20.1212C867.727 20.3992 867.583 20.7957 867.547 21.3107H870.473C870.463 20.7957 870.329 20.3992 870.069 20.1212C869.809 19.8387 869.459 19.6974 869.017 19.6974ZM869.31 26.1368C868.08 26.1368 867.118 25.7973 866.426 25.1183C865.733 24.4392 865.387 23.4777 865.387 22.2335C865.387 20.9529 865.706 19.964 866.344 19.2667C866.986 18.5649 867.873 18.214 869.003 18.214C870.083 18.214 870.924 18.5216 871.525 19.1368C872.127 19.7521 872.428 20.602 872.428 21.6866V22.6984H867.499C867.522 23.2908 867.697 23.7534 868.025 24.0861C868.353 24.4187 868.814 24.5851 869.406 24.5851C869.866 24.5851 870.302 24.5372 870.712 24.4415C871.122 24.3458 871.55 24.1932 871.997 23.9835V25.5968C871.632 25.7791 871.243 25.9135 870.828 26.0001C870.413 26.0913 869.907 26.1368 869.31 26.1368ZM878.264 19.923H876.459V26.0001H874.374V19.923H873.225V18.9181L874.374 18.3575V17.797C874.374 16.9266 874.588 16.2908 875.016 15.8898C875.445 15.4887 876.131 15.2882 877.074 15.2882C877.794 15.2882 878.434 15.3953 878.995 15.6095L878.462 17.1407C878.043 17.0086 877.655 16.9425 877.3 16.9425C877.003 16.9425 876.789 17.0314 876.657 17.2091C876.525 17.3823 876.459 17.6056 876.459 17.879V18.3575H878.264V19.923ZM882.602 24.4757C882.967 24.4757 883.404 24.396 883.915 24.2365V25.7882C883.395 26.0206 882.757 26.1368 882.001 26.1368C881.167 26.1368 880.558 25.9272 880.176 25.5079C879.797 25.0841 879.608 24.4506 879.608 23.6075V19.923H878.61V19.0411L879.759 18.3439L880.36 16.7306H881.693V18.3575H883.833V19.923H881.693V23.6075C881.693 23.9038 881.775 24.1225 881.939 24.2638C882.108 24.4051 882.329 24.4757 882.602 24.4757Z" fill="#464B52"/>
<rect width="273" height="99.3333" transform="translate(814 42.0001)" fill="white"/>
<path d="M898 79.3334C897.41 79.3334 896.851 79.4506 896.341 79.6619C895.831 79.8734 895.246 79.6313 895.035 79.1212C894.823 78.611 895.065 78.026 895.575 77.8144C896.323 77.5042 897.143 77.3334 898 77.3334H900C900.552 77.3334 901 77.7812 901 78.3334C901 78.8857 900.552 79.3334 900 79.3334H898Z" fill="#171C1E"/>
<path d="M903 78.3334C903 77.7812 903.448 77.3334 904 77.3334H908C908.552 77.3334 909 77.7812 909 78.3334C909 78.8857 908.552 79.3334 908 79.3334H904C903.448 79.3334 903 78.8857 903 78.3334Z" fill="#171C1E"/>
<path d="M911 78.3334C911 77.7812 911.448 77.3334 912 77.3334H914C914.857 77.3334 915.676 77.5042 916.424 77.8144C916.935 78.026 917.177 78.611 916.965 79.1212C916.754 79.6313 916.168 79.8734 915.658 79.6619C915.149 79.4506 914.589 79.3334 914 79.3334H912C911.448 79.3334 911 78.8857 911 78.3334Z" fill="#171C1E"/>
<path d="M893.454 80.7015C893.964 80.9131 894.206 81.4981 893.995 82.0083C893.784 82.5178 893.667 83.0774 893.667 83.6668V85.6668C893.667 86.2191 893.219 86.6668 892.667 86.6668C892.114 86.6668 891.667 86.2191 891.667 85.6668V83.6668C891.667 82.8099 891.837 81.9903 892.147 81.2422C892.359 80.732 892.944 80.49 893.454 80.7015Z" fill="#171C1E"/>
<path d="M918.545 80.7015C919.056 80.49 919.641 80.732 919.852 81.2422C920.162 81.9903 920.333 82.8099 920.333 83.6668V85.6668C920.333 86.2191 919.885 86.6668 919.333 86.6668C918.781 86.6668 918.333 86.2191 918.333 85.6668V83.6668C918.333 83.0774 918.216 82.5178 918.005 82.0083C917.793 81.4981 918.035 80.9131 918.545 80.7015Z" fill="#171C1E"/>
<path d="M892.667 88.6668C893.219 88.6668 893.667 89.1145 893.667 89.6668V93.6668C893.667 94.2191 893.219 94.6668 892.667 94.6668C892.114 94.6668 891.667 94.2191 891.667 93.6668V89.6668C891.667 89.1145 892.114 88.6668 892.667 88.6668Z" fill="#171C1E"/>
<path d="M919.333 88.6668C919.885 88.6668 920.333 89.1145 920.333 89.6668V93.6668C920.333 94.2191 919.885 94.6668 919.333 94.6668C918.781 94.6668 918.333 94.2191 918.333 93.6668V89.6668C918.333 89.1145 918.781 88.6668 919.333 88.6668Z" fill="#171C1E"/>
<path d="M892.667 96.6668C893.219 96.6668 893.667 97.1145 893.667 97.6668V99.6668C893.667 100.256 893.784 100.816 893.995 101.325C894.206 101.835 893.964 102.42 893.454 102.632C892.944 102.844 892.359 102.602 892.147 102.091C891.837 101.343 891.667 100.524 891.667 99.6668V97.6668C891.667 97.1145 892.114 96.6668 892.667 96.6668Z" fill="#171C1E"/>
<path d="M919.333 96.6668C919.885 96.6668 920.333 97.1145 920.333 97.6668V99.6668C920.333 100.524 920.162 101.343 919.852 102.091C919.641 102.602 919.056 102.844 918.545 102.632C918.035 102.42 917.793 101.835 918.005 101.325C918.216 100.816 918.333 100.256 918.333 99.6668V97.6668C918.333 97.1145 918.781 96.6668 919.333 96.6668Z" fill="#171C1E"/>
<path d="M895.035 104.212C895.246 103.702 895.831 103.46 896.341 103.672C896.851 103.883 897.41 104 898 104H900C900.552 104 901 104.448 901 105C901 105.552 900.552 106 900 106H898C897.143 106 896.323 105.829 895.575 105.519C895.065 105.308 894.823 104.723 895.035 104.212Z" fill="#171C1E"/>
<path d="M916.965 104.212C917.177 104.723 916.935 105.308 916.424 105.519C915.676 105.829 914.857 106 914 106H912C911.448 106 911 105.552 911 105C911 104.448 911.448 104 912 104H914C914.589 104 915.149 103.883 915.658 103.672C916.168 103.46 916.754 103.702 916.965 104.212Z" fill="#171C1E"/>
<path d="M903 105C903 104.448 903.448 104 904 104H908C908.552 104 909 104.448 909 105C909 105.552 908.552 106 908 106H904C903.448 106 903 105.552 903 105Z" fill="#171C1E"/>
<path d="M917.374 81.7881C917.764 81.3976 917.764 80.7644 917.374 80.3739C916.983 79.9834 916.35 79.9834 915.959 80.3739L914.631 81.7022C914.241 82.0927 914.241 82.7258 914.631 83.1164C915.022 83.5069 915.655 83.5069 916.045 83.1164L917.374 81.7881Z" fill="#171C1E"/>
<path d="M913.389 85.7729C913.779 85.3824 913.779 84.7492 913.389 84.3587C912.998 83.9682 912.365 83.9682 911.975 84.3587L909.318 87.0153C908.927 87.4058 908.927 88.039 909.318 88.4295C909.709 88.82 910.342 88.82 910.732 88.4295L913.389 85.7729Z" fill="#171C1E"/>
<path d="M908.076 91.086C908.466 90.6955 908.466 90.0623 908.076 89.6718C907.685 89.2813 907.052 89.2813 906.661 89.6718L906 90.3334L905.338 89.6718C904.948 89.2813 904.315 89.2813 903.924 89.6718C903.533 90.0623 903.533 90.6955 903.924 91.086L904.586 91.7476L904.005 92.3284C903.614 92.7189 903.614 93.3521 904.005 93.7426C904.395 94.1331 905.029 94.1331 905.419 93.7426L906 93.1619L906.581 93.7426C906.971 94.1331 907.604 94.1331 907.995 93.7426C908.385 93.3521 908.385 92.7189 907.995 92.3284L907.414 91.7477L908.076 91.086Z" fill="#171C1E"/>
<path d="M902.763 96.3992C903.153 96.0086 903.153 95.3755 902.763 94.9849C902.372 94.5944 901.739 94.5944 901.348 94.9849L898.692 97.6415C898.301 98.032 898.301 98.6652 898.692 99.0557C899.082 99.4462 899.715 99.4462 900.106 99.0557L902.763 96.3992Z" fill="#171C1E"/>
<path d="M897.449 101.712C897.84 101.322 897.84 100.689 897.449 100.298C897.059 99.9075 896.426 99.9075 896.035 100.298L894.707 101.626C894.316 102.017 894.316 102.65 894.707 103.041C895.097 103.431 895.731 103.431 896.121 103.041L897.449 101.712Z" fill="#171C1E"/>
<path d="M915.879 103.041C916.269 103.431 916.902 103.431 917.293 103.041C917.683 102.65 917.683 102.017 917.293 101.626L915.964 100.298C915.574 99.9075 914.941 99.9075 914.55 100.298C914.16 100.689 914.16 101.322 914.55 101.712L915.879 103.041Z" fill="#171C1E"/>
<path d="M911.894 99.0557C912.284 99.4462 912.917 99.4462 913.308 99.0557C913.698 98.6652 913.698 98.032 913.308 97.6415L910.651 94.9849C910.261 94.5944 909.628 94.5944 909.237 94.9849C908.847 95.3755 908.847 96.0086 909.237 96.3992L911.894 99.0557Z" fill="#171C1E"/>
<path d="M901.267 88.4295C901.658 88.82 902.291 88.82 902.682 88.4295C903.072 88.039 903.072 87.4058 902.682 87.0153L900.025 84.3587C899.635 83.9682 899.001 83.9682 898.611 84.3587C898.22 84.7492 898.22 85.3824 898.611 85.7729L901.267 88.4295Z" fill="#171C1E"/>
<path d="M895.954 83.1164C896.345 83.5069 896.978 83.5069 897.369 83.1164C897.759 82.7258 897.759 82.0927 897.369 81.7022L896.04 80.3739C895.65 79.9834 895.017 79.9834 894.626 80.3739C894.236 80.7644 894.236 81.3976 894.626 81.7881L895.954 83.1164Z" fill="#171C1E"/>
<path d="M902.074 84.8521C902.472 84.7318 902.894 84.6668 903.333 84.6668H904.333C904.885 84.6668 905.333 84.2191 905.333 83.6668C905.333 83.1145 904.885 82.6668 904.333 82.6668H903.333C902.695 82.6668 902.078 82.7614 901.495 82.9381C900.966 83.0982 900.667 83.6565 900.827 84.1851C900.988 84.7136 901.546 85.0123 902.074 84.8521Z" fill="#171C1E"/>
<path d="M907.667 82.6668C907.114 82.6668 906.667 83.1145 906.667 83.6668C906.667 84.2191 907.114 84.6668 907.667 84.6668H908.667C909.106 84.6668 909.528 84.7318 909.925 84.8521C910.454 85.0123 911.012 84.7136 911.172 84.1851C911.332 83.6565 911.034 83.0982 910.505 82.9381C909.922 82.7614 909.304 82.6668 908.667 82.6668H907.667Z" fill="#171C1E"/>
<path d="M899.185 87.7413C899.345 87.2128 899.047 86.6545 898.518 86.4944C897.99 86.3342 897.431 86.6329 897.271 87.1614C897.094 87.7446 897 88.3622 897 89.0001V90.0001C897 90.5524 897.448 91.0001 898 91.0001C898.552 91.0001 899 90.5524 899 90.0001V89.0001C899 88.5608 899.065 88.1385 899.185 87.7413Z" fill="#171C1E"/>
<path d="M914.729 87.1614C914.568 86.6329 914.01 86.3342 913.482 86.4944C912.953 86.6545 912.654 87.2128 912.814 87.7413C912.935 88.1385 913 88.5608 913 89.0001V90.0001C913 90.5524 913.448 91.0001 914 91.0001C914.552 91.0001 915 90.5524 915 90.0001V89.0001C915 88.3622 914.905 87.7446 914.729 87.1614Z" fill="#171C1E"/>
<path d="M899 93.3334C899 92.7812 898.552 92.3334 898 92.3334C897.448 92.3334 897 92.7812 897 93.3334V94.3334C897 94.9714 897.094 95.589 897.271 96.1721C897.431 96.7007 897.99 96.9993 898.518 96.8392C899.047 96.679 899.345 96.1207 899.185 95.5922C899.065 95.195 899 94.7727 899 94.3334V93.3334Z" fill="#171C1E"/>
<path d="M915 93.3334C915 92.7812 914.552 92.3334 914 92.3334C913.448 92.3334 913 92.7812 913 93.3334V94.3334C913 94.7727 912.935 95.195 912.814 95.5922C912.654 96.1207 912.953 96.679 913.482 96.8392C914.01 96.9993 914.568 96.7007 914.729 96.1721C914.905 95.589 915 94.9714 915 94.3334V93.3334Z" fill="#171C1E"/>
<path d="M902.074 98.4814C901.546 98.3213 900.988 98.6199 900.827 99.1485C900.667 99.677 900.966 100.235 901.495 100.395C902.078 100.572 902.695 100.667 903.333 100.667H904.333C904.885 100.667 905.333 100.219 905.333 99.6668C905.333 99.1145 904.885 98.6668 904.333 98.6668H903.333C902.894 98.6668 902.472 98.6017 902.074 98.4814Z" fill="#171C1E"/>
<path d="M910.505 100.395C911.034 100.235 911.332 99.677 911.172 99.1485C911.012 98.6199 910.454 98.3213 909.925 98.4814C909.528 98.6017 909.106 98.6668 908.667 98.6668H907.667C907.114 98.6668 906.667 99.1145 906.667 99.6668C906.667 100.219 907.114 100.667 907.667 100.667H908.667C909.304 100.667 909.922 100.572 910.505 100.395Z" fill="#171C1E"/>
<rect x="945" y="75.6668" width="64" height="32" rx="16" fill="#217CBB"/>
<path d="M1006.5 91.6668C1006.5 99.1226 1000.46 105.167 993 105.167C985.544 105.167 979.5 99.1226 979.5 91.6668C979.5 84.2109 985.544 78.1668 993 78.1668C1000.46 78.1668 1006.5 84.2109 1006.5 91.6668Z" fill="white" stroke="#217CBB"/>
</svg>
